<svg width="40" height="40" viewBox="0 0 40 40" fill="none" xmlns="http://www.w3.org/2000/svg">
<g clip-path="url(#clip0)">
<path d="M14.9424 34.39C13.1224 33.88 11.8324 32.17 11.3124 30.35C10.7924 28.53 10.9124 26.6001 11.0824 24.7201C11.1824 23.52 11.3824 22.18 12.3524 21.48C13.1224 20.92 14.1924 20.96 15.1024 21.25C16.0124 21.54 16.8224 22.07 17.6924 22.46C19.6124 23.31 21.8224 23.46 23.8624 22.93C24.5624 22.75 25.2824 22.49 25.9824 22.64C27.1524 22.9 27.7824 24.17 28.1224 25.32C28.6324 27.03 28.8924 28.91 28.2424 30.58C27.6024 32.25 25.8324 33.5801 24.0824 33.2201C23.6424 33.1301 23.2324 32.95 22.7924 32.87C21.6024 32.65 20.6324 33.41 19.5724 33.81C18.1224 34.35 16.4724 34.82 14.9424 34.39Z" fill="url(#paint0_linear)"/>
<path d="M23.7326 2.00001C23.2926 2.90001 22.8726 4.37001 22.9826 6.61001C23.2426 11.8 20.1726 13.32 18.0126 13.32C15.9726 13.32 15.7826 12.32 13.0026 12.53C11.9926 12.6 11.2026 13.13 10.5826 13.84C10.4726 14.12 10.5226 14.74 11.0226 15.08C11.6226 15.49 11.8826 15.31 12.0526 15.31C12.4126 14.97 12.8326 14.76 13.3126 14.81C15.1326 15 13.3326 17.23 17.9026 19.98C22.9126 23 28.2026 20.66 30.5726 16.49C32.0926 13.8 32.0626 10.53 30.4026 8.47001C28.3526 5.93001 26.4926 7.18 25.5826 5.99C24.8726 5.06 25.4726 3.54 25.9826 2.6C25.2526 2.36 24.5026 2.15001 23.7326 2.00001Z" fill="url(#paint1_linear)"/>
<path d="M19.3225 4.59002C16.0725 3.88002 12.9525 2.80001 10.1325 5.24001C6.38246 8.47001 8.12246 17.36 11.1725 17.72C15.2325 18.21 15.7425 13.89 18.0925 13.57C20.5125 13.23 24.0125 12.22 26.3225 10.58C28.6025 8.97002 29.7225 5.93002 28.9325 5.03002C27.8425 3.78002 25.0225 5.83002 19.3225 4.59002Z" fill="url(#paint2_linear)"/>
<path d="M22.9425 6.10011C22.3025 6.10011 21.6925 6.07012 21.1025 6.01012C19.2825 5.83012 17.1825 5.41012 14.8325 4.75012L14.9425 4.37012C17.2625 5.02012 19.3525 5.44012 21.1425 5.62012C22.9525 5.80012 25.0025 5.70011 27.2325 5.32011L27.3025 5.71011C25.7625 5.97011 24.3025 6.10011 22.9425 6.10011Z" fill="white"/>
<path d="M28.0526 17.06C27.6426 16.75 27.1226 16.53 26.6126 16.58C24.5126 16.78 24.4926 19.29 19.9326 19.54C18.5226 19.57 16.9526 18.3 15.8626 17.36C13.5126 15.32 11.7326 16.26 10.5826 17.41C8.15259 19.83 7.53259 32.13 11.9326 35.37C12.8026 36.01 14.7926 35.87 15.4226 34.85C16.1226 33.72 15.9126 32.33 14.8526 31.52C14.1526 30.99 13.4926 26.85 13.9926 22.31C16.2426 24.9 24.2326 24.68 25.7526 22.6C26.3126 25.21 26.5626 29.49 25.9126 31.03C25.6926 31.54 25.6126 31.54 25.3226 31.54C24.9626 31.54 24.4026 31.44 23.5126 31.2C22.8626 31.03 21.9826 30.8 21.0826 30.8C19.0426 30.8 18.1326 31.99 17.7226 32.98C17.4426 33.67 17.4426 34.33 17.6026 38.1L17.6126 38.23C17.6426 38.89 17.6726 39.53 17.6826 40.08C17.7026 40.63 17.9026 41.12 18.2226 41.51C18.7026 41.55 19.1826 41.59 19.6826 41.59C20.4726 41.59 21.2426 41.54 22.0126 41.45C22.3526 41.01 22.5326 40.48 22.5126 39.92C22.4926 39.35 22.4626 38.7 22.4426 38.02L22.4326 37.89C22.4026 37.29 22.3726 36.54 22.3526 35.88C23.1326 36.08 24.1926 36.35 25.3326 36.35C27.6626 36.35 29.4026 35.16 30.3626 32.91C31.6626 29.8 31.2426 19.45 28.0526 17.06Z" fill="url(#paint3_linear)"/>
<path d="M26.2726 22.99C28.5326 22.11 30.9126 19.9 28.7026 17.29C28.1126 16.59 27.0826 16.41 26.4326 16.55C24.3726 16.99 24.4826 19.29 19.9126 19.54C18.5026 19.57 16.9326 18.3 15.8426 17.36C13.4926 15.32 11.6626 16.22 10.5626 17.41C9.87263 18.15 10.6926 20.29 12.5226 21.92C14.3526 23.55 17.1926 24.18 19.3726 24.29C21.9026 24.42 24.0126 23.88 26.2726 22.99Z" fill="url(#paint4_linear)"/>
<path d="M30.9724 13.74L30.5824 13.65C31.0224 11.72 30.3324 9.50004 28.9424 8.36004L29.1924 8.05005C30.6924 9.28005 31.4424 11.67 30.9724 13.74Z" fill="white"/>
<path d="M19.3926 20.45C17.7926 20.34 16.5926 19.32 15.5426 18.41C14.8426 17.82 14.1926 17.26 13.5526 17.1C12.9626 16.96 12.1426 17.08 11.7526 17.68L11.4126 17.46C11.8326 16.8 12.7526 16.5 13.6426 16.71C14.3626 16.88 15.0626 17.48 15.7926 18.1C16.8026 18.96 17.9526 19.94 19.4126 20.04L19.3926 20.45Z" fill="white"/>
<path d="M18.2726 34.6201H17.8726C17.8826 33.5101 18.4726 32.4101 19.3726 31.8201C20.1126 31.3301 21.0826 31.1401 22.3326 31.2401L22.3026 31.6401C21.1526 31.5601 20.2626 31.7201 19.5926 32.1601C18.8026 32.6701 18.2826 33.6401 18.2726 34.6201Z" fill="white"/>
</g>
<defs>
<linearGradient id="paint0_linear" x1="7.20154" y1="58.2889" x2="24.1549" y2="15.8704" gradientUnits="userSpaceOnUse">
<stop offset="0.1877" stop-color="#FF0066"/>
<stop offset="0.9988" stop-color="#FDB2D1"/>
</linearGradient>
<linearGradient id="paint1_linear" x1="24.4298" y1="24.4998" x2="15.589" y2="-6.61699" gradientUnits="userSpaceOnUse">
<stop stop-color="#0069C2"/>
<stop offset="0.3776" stop-color="#0384D2"/>
<stop offset="0.7502" stop-color="#0599DF"/>
<stop offset="1" stop-color="#06A0E3"/>
</linearGradient>
<linearGradient id="paint2_linear" x1="9.97506" y1="-2.22429" x2="47.6494" y2="50.7988" gradientUnits="userSpaceOnUse">
<stop stop-color="#00ACED"/>
<stop offset="0.0128" stop-color="#07AEED"/>
<stop offset="0.1411" stop-color="#48C3F2"/>
<stop offset="0.2676" stop-color="#80D5F6"/>
<stop offset="0.389" stop-color="#ADE4F9"/>
<stop offset="0.5045" stop-color="#D1F0FC"/>
<stop offset="0.6125" stop-color="#EAF8FE"/>
<stop offset="0.7101" stop-color="#FAFDFF"/>
<stop offset="0.7882" stop-color="white"/>
</linearGradient>
<linearGradient id="paint3_linear" x1="25.9552" y1="43.5001" x2="15.1769" y2="12.9196" gradientUnits="userSpaceOnUse">
<stop offset="0.1877" stop-color="#FF0066"/>
<stop offset="0.9988" stop-color="#FDB2D1"/>
</linearGradient>
<linearGradient id="paint4_linear" x1="27.1642" y1="36.2856" x2="15.1974" y2="7.18304" gradientUnits="userSpaceOnUse">
<stop offset="0.1877" stop-color="#FF0066"/>
<stop offset="0.9988" stop-color="#FDB2D1"/>
</linearGradient>
<clipPath id="clip0">
<rect width="40" height="40" rx="20" fill="white"/>
</clipPath>
</defs>
</svg>
