<svg width="40" height="40" viewBox="0 0 40 40" fill="none" xmlns="http://www.w3.org/2000/svg">
<path d="M26.7309 9.22657C23.4317 9.16767 20.6431 11.7886 20.0147 15.2929C19.4845 11.7689 16.7745 9.05968 13.4655 9.00079C9.74408 8.94189 6.67075 12.2696 6.62165 16.4512C6.57256 20.6329 9.76373 24.8637 12.4639 27.7398C15.4195 30.8908 19.6416 34.5228 19.6416 34.5228C19.6416 34.5228 24.7082 30.9203 27.5655 27.9951C30.3246 25.1778 33.3096 21.0845 33.3685 16.9028C33.4274 12.7211 30.4523 9.28546 26.7309 9.22657Z" fill="url(#paint0_linear)"/>
<path d="M20.1031 28.4466C19.8969 28.4466 19.7202 28.3288 19.6514 28.1325L16.2737 19.5728L15.4195 22.0366C15.3507 22.2329 15.1642 22.3704 14.958 22.3704H4.49095C4.21602 22.3704 4 22.1544 4 21.8796C4 21.6047 4.21602 21.3888 4.49095 21.3888H14.6045L15.7729 18.0022C15.8417 17.8059 16.0184 17.6782 16.2246 17.6684C16.4112 17.6488 16.6174 17.7862 16.6959 17.9825L20.0638 26.5128L23.7754 15.3322C23.8441 15.1359 24.0209 15.0082 24.2271 14.9984C24.4529 15.0181 24.6198 15.1162 24.6984 15.3028L26.8291 20.4268H35.5091C35.784 20.4268 36 20.6427 36 20.9176C36 21.1925 35.784 21.4084 35.5091 21.4084H26.4952C26.2989 21.4084 26.1221 21.2906 26.0436 21.1041L24.286 16.893L20.5646 28.1128C20.4959 28.3092 20.3191 28.4466 20.1129 28.4466H20.1031Z" fill="#002596"/>
<path d="M17.393 13.9285C16.9315 12.2892 15.4979 10.9444 13.8188 10.6008L13.917 10.1198C15.763 10.5027 17.3537 11.9751 17.8643 13.7911L17.393 13.9285Z" fill="white"/>
<path d="M31.8664 19.082L31.3951 18.9544C32.053 16.4316 31.3951 13.9579 29.6277 12.3383C28.2923 11.1211 26.6231 10.6695 25.2582 11.1505L25.0913 10.6892C26.6231 10.1395 28.4887 10.6303 29.9615 11.9751C31.8566 13.7224 32.5734 16.3825 31.8664 19.082Z" fill="white"/>
<defs>
<linearGradient id="paint0_linear" x1="8.3765" y1="36.0952" x2="27.1464" y2="5.29929" gradientUnits="userSpaceOnUse">
<stop offset="0.1877" stop-color="#FF0066"/>
<stop offset="0.997" stop-color="#FD77AD"/>
</linearGradient>
</defs>
</svg>
