<svg width="40" height="40" viewBox="0 0 40 40" fill="none" xmlns="http://www.w3.org/2000/svg">
<path d="M27.9867 6.72224C28.6084 5.68641 24.6919 3.53186 22.9615 4.09121C22.1844 5.6864 21.3452 8.56602 20.4334 8.7214C20.423 8.7214 20.423 8.72141 20.4126 8.73177C20.4023 8.73177 20.4023 8.73176 20.3919 8.7214C19.4698 8.56602 18.6409 5.6864 17.8638 4.09121C16.1438 3.53186 12.2168 5.68641 12.8385 6.72224C16.2059 12.3054 15.4599 16.3037 15.7293 21.369C15.9055 24.8079 15.6983 35.2492 15.7293 35.2802C17.1799 36.3161 23.9044 36.1607 25.1063 35.2802C25.1477 35.2595 24.9302 24.8079 25.1063 21.369C25.355 16.3037 24.6193 12.3054 27.9867 6.72224Z" fill="url(#paint0_linear)"/>
<path d="M23.8217 13.7141C23.687 13.7141 23.5524 13.6623 23.4487 13.5587C22.195 12.2536 18.9312 12.1811 17.3149 13.4137C17.0869 13.5898 16.7657 13.5483 16.5896 13.3205C16.4134 13.0926 16.4549 12.7715 16.6828 12.5954C18.7136 11.0417 22.568 11.166 24.1844 12.8336C24.3812 13.0408 24.3812 13.3723 24.174 13.5691C24.0808 13.6727 23.9461 13.7141 23.8217 13.7141Z" fill="#0047AC"/>
<path d="M23.1999 17.1013C23.0652 17.1013 22.9202 17.0495 22.8269 16.9356C21.8115 15.8583 19.2005 16.0034 17.9156 16.9045C17.6773 17.0703 17.3561 17.0081 17.1903 16.7802C17.0246 16.542 17.0867 16.2209 17.3147 16.0551C18.9725 14.895 22.1327 14.7189 23.5729 16.2312C23.7698 16.4384 23.7594 16.7699 23.5522 16.9667C23.4589 17.0495 23.3242 17.1013 23.1999 17.1013Z" fill="#0047AC"/>
<path d="M23.1374 29.521C23.0856 29.521 23.0338 29.5106 22.982 29.5002C21.8941 29.1688 19.1691 29.1481 17.7806 29.4588C17.5009 29.521 17.2211 29.3449 17.159 29.0652C17.0968 28.7855 17.2729 28.5058 17.5527 28.4437C19.1069 28.0915 22.0495 28.1226 23.2825 28.4955C23.5519 28.5783 23.7073 28.8684 23.6244 29.1377C23.5726 29.376 23.3654 29.521 23.1374 29.521Z" fill="#0047AC"/>
<path d="M23.4278 32.991C23.3449 32.991 23.2516 32.9703 23.1687 32.9185C22.029 32.2659 19.0449 32.2349 17.5736 32.8564C17.3146 32.9599 17.0038 32.846 16.9002 32.5767C16.7862 32.3177 16.9105 32.007 17.1799 31.893C18.9724 31.1369 22.2466 31.199 23.6868 32.0173C23.9355 32.1624 24.0184 32.4731 23.8837 32.7217C23.7904 32.8978 23.6143 32.991 23.4278 32.991Z" fill="#0047AC"/>
<path d="M32.5768 23.2334C32.3178 22.9745 32.2971 22.5809 32.5147 22.2908C33.2918 21.2343 33.1571 19.5044 32.3489 18.5307C32.1416 18.2821 32.0795 17.9403 32.2142 17.6503C32.8773 16.169 31.9033 15.2886 31.3127 14.9157C31.1159 14.7914 31.0641 14.5324 31.1884 14.3356C31.4371 13.9316 31.7272 13.1755 31.4992 12.0982C31.2817 11.0209 30.66 10.4202 30.059 10.1819C29.7171 10.0473 29.4788 9.70544 29.5513 9.35326C29.6549 8.86641 29.6756 8.36922 29.5409 7.90309C29.3441 7.18837 28.7431 6.56686 28.0075 6.50471C27.3236 6.45292 26.6812 6.90869 26.3082 7.4784C25.9352 8.05846 25.7901 8.74211 25.6555 9.4154C24.9923 12.8026 24.609 16.2312 24.2256 19.6495C22.7958 17.4017 17.7705 17.6607 16.206 19.6495C15.8226 16.2208 15.4392 12.7922 14.7761 9.4154C14.6414 8.74211 14.4964 8.05846 14.1234 7.4784C13.7503 6.89833 13.1079 6.45292 12.4241 6.50471C11.6884 6.5565 11.0875 7.18837 10.8906 7.90309C10.7559 8.37958 10.7766 8.87677 10.8803 9.35326C10.9632 9.7158 10.7248 10.0473 10.3725 10.1819C9.77158 10.4202 9.16028 11.0106 8.93233 12.0982C8.71475 13.1755 9.00485 13.9213 9.24316 14.3356C9.36749 14.5324 9.31569 14.7914 9.11883 14.9157C8.52823 15.2886 7.55428 16.169 8.2174 17.6503C8.3521 17.9403 8.28992 18.2821 8.0827 18.5307C7.27452 19.5044 7.13982 21.2343 7.91691 22.2908C8.1345 22.5912 8.12414 22.9745 7.85475 23.2334C7.35741 23.7306 6.86009 24.58 7.03623 25.823C7.2849 27.5218 9.14992 27.8222 9.19137 28.0604C9.20173 28.1433 9.30534 30.3496 11.9164 30.6293C13.7607 30.8261 15.0248 28.7441 15.0973 27.5114C16.724 27.8015 18.9931 27.4286 20.1951 25.6262C21.397 27.4286 23.6765 27.8015 25.2928 27.5114C25.3654 28.7441 26.6191 30.8261 28.4737 30.6293C31.0848 30.3496 31.1884 28.1537 31.1988 28.0604C31.2298 27.8222 33.1052 27.5218 33.3539 25.823C33.5715 24.58 33.0742 23.7203 32.5768 23.2334Z" fill="url(#paint1_linear)"/>
<path d="M16.6932 20.9857C16.6414 20.9857 16.5792 20.965 16.5378 20.9339C16.4238 20.851 16.4031 20.6853 16.486 20.5714C17.1284 19.722 18.5271 19.1833 20.1435 19.1419C21.8738 19.0798 23.3658 19.6288 24.1429 20.561C24.2362 20.675 24.2154 20.8303 24.1118 20.9235C24.0082 21.0168 23.8424 21.0064 23.7492 20.8925C23.0861 20.0949 21.7184 19.6287 20.1642 19.6598C18.7033 19.6909 17.4599 20.1674 16.9108 20.8821C16.8486 20.9546 16.7657 20.9857 16.6932 20.9857Z" fill="white"/>
<path d="M28.7844 9.79866C28.7741 9.79866 28.7533 9.79866 28.743 9.79866C28.5979 9.77794 28.5047 9.64327 28.5254 9.49826C28.5876 9.07357 28.5979 8.48314 28.2664 8.06881C28.111 7.88236 27.8623 7.74772 27.6136 7.73736C27.4789 7.72701 27.2924 7.74772 27.1474 7.89273C27.0437 7.99632 26.878 7.99632 26.7847 7.89273C26.6811 7.78915 26.6811 7.62341 26.7847 7.53019C27.0023 7.31266 27.3028 7.21943 27.6447 7.22979C28.0488 7.2505 28.4321 7.44732 28.6704 7.75807C29.116 8.31742 29.116 9.06321 29.0331 9.59148C29.0124 9.70542 28.9088 9.79866 28.7844 9.79866Z" fill="white"/>
<path d="M13.6468 9.90224C13.6364 9.90224 13.6157 9.90224 13.6054 9.90224C13.4603 9.88152 13.367 9.74685 13.3878 9.60184C13.4499 9.17714 13.4603 8.58672 13.1287 8.17238C12.9733 7.98593 12.7247 7.8513 12.476 7.84094C12.3309 7.83058 12.1548 7.85129 12.0097 7.99631C11.9061 8.09989 11.7403 8.09989 11.647 7.99631C11.5434 7.89273 11.5434 7.72699 11.647 7.63376C11.8646 7.41624 12.1651 7.30229 12.5071 7.33336C12.9112 7.35408 13.2945 7.5509 13.5328 7.86165C13.9784 8.42099 13.9784 9.16678 13.8955 9.69506C13.8851 9.809 13.7711 9.90224 13.6468 9.90224Z" fill="white"/>
<defs>
<linearGradient id="paint0_linear" x1="59.9786" y1="50.3487" x2="2.16066" y2="5.23795" gradientUnits="userSpaceOnUse">
<stop offset="0.1812" stop-color="#00ACED"/>
<stop offset="0.9964" stop-color="#A3F3FF"/>
</linearGradient>
<linearGradient id="paint1_linear" x1="31.9159" y1="3.74825" x2="-9.63165" y2="60.0264" gradientUnits="userSpaceOnUse">
<stop stop-color="#FF3C8A"/>
<stop offset="0.9988" stop-color="#FDB2D1"/>
</linearGradient>
</defs>
</svg>
