<svg width="40" height="40" viewBox="0 0 40 40" fill="none" xmlns="http://www.w3.org/2000/svg">
<path d="M22.94 23.3599C22.94 18.9599 19.36 15.3799 14.97 15.3799C10.57 15.3799 7 18.9599 7 23.3599C7 27.1999 9.73 30.4099 13.35 31.1699V33.1599H11.29V36.4099H13.35V38.6699H16.6V36.4099H18.65V33.1599H16.6V31.1699C20.21 30.4199 22.94 27.1999 22.94 23.3599ZM10.24 23.3599C10.24 20.7599 12.36 18.6399 14.96 18.6399C17.56 18.6399 19.68 20.7599 19.68 23.3599C19.68 25.9599 17.56 28.0799 14.96 28.0799C12.36 28.0799 10.24 25.9699 10.24 23.3599Z" fill="url(#paint0_linear)"/>
<path d="M18.2502 35.1999H17.8502V34.0499H16.7202V33.6399H18.2502V35.1999Z" fill="white"/>
<path d="M25.26 5.02V8.27H27.68L25.39 10.56C24.24 9.91 22.91 9.53 21.49 9.53C17.09 9.53 13.52 13.11 13.52 17.5C13.52 21.9 17.1 25.48 21.49 25.48C25.88 25.48 29.46 21.9 29.46 17.5C29.46 15.7 28.85 14.04 27.84 12.7L30.13 10.41V12.77H33.38V5H25.26V5.02ZM21.48 22.23C18.88 22.23 16.76 20.11 16.76 17.51C16.76 14.91 18.88 12.79 21.48 12.79C24.08 12.79 26.2 14.91 26.2 17.51C26.2 20.12 24.08 22.23 21.48 22.23Z" fill="url(#paint1_linear)"/>
<path d="M32.5904 7.34001H32.1804V6.30002H27.1704V5.89001H32.5904V7.34001Z" fill="white"/>
<path d="M15.23 14.29C15.38 14.3 15.53 14.3 15.67 14.32C16.8 12.27 18.98 10.88 21.47 10.88V10.47C18.76 10.48 16.4 12.03 15.23 14.29Z" fill="white"/>
<path d="M11.6398 19.1699C11.7498 19.3699 11.8298 19.5799 11.8898 19.7999C12.7198 19.0899 13.7798 18.6399 14.9598 18.6399C16.3298 18.6399 17.5598 19.2399 18.4198 20.1699C18.4798 20.0299 18.5498 19.8899 18.6298 19.7599C18.8898 19.4199 19.1498 19.0899 19.4098 18.7499C19.7898 18.3699 20.2298 18.0699 20.6898 17.8299C19.2398 16.3299 17.2098 15.3899 14.9598 15.3899C13.1098 15.3899 11.3998 16.0299 10.0498 17.0999C10.2398 17.2399 10.4398 17.3899 10.6098 17.5699C11.0898 18.0199 11.4398 18.5499 11.6398 19.1699Z" fill="url(#paint2_linear)"/>
<path d="M8.0001 23.36H7.6001C7.6001 19.48 10.7501 16.33 14.6301 16.33V16.7399C10.9701 16.7399 8.0001 19.71 8.0001 23.36Z" fill="white"/>
<defs>
<linearGradient id="paint0_linear" x1="6.9857" y1="27.0331" x2="22.9356" y2="27.0331" gradientUnits="userSpaceOnUse">
<stop stop-color="#FF3C8A"/>
<stop offset="0.9988" stop-color="#FDB2D1"/>
</linearGradient>
<linearGradient id="paint1_linear" x1="13.5014" y1="15.2516" x2="33.3696" y2="15.2516" gradientUnits="userSpaceOnUse">
<stop offset="0.0524" stop-color="#0069C2"/>
<stop offset="1" stop-color="#06A0E3"/>
</linearGradient>
<linearGradient id="paint2_linear" x1="6.9855" y1="17.7809" x2="22.9354" y2="17.7809" gradientUnits="userSpaceOnUse">
<stop stop-color="#FF3C8A"/>
<stop offset="0.9988" stop-color="#FDB2D1"/>
</linearGradient>
</defs>
</svg>
