<svg width="40" height="40" viewBox="0 0 40 40" fill="none" xmlns="http://www.w3.org/2000/svg">
<path d="M35.2454 18.9C35.2454 18.9 28.4754 26.5999 20.1254 26.5999C11.7754 26.5999 5.00537 18.9 5.00537 18.9C5.00537 18.9 11.7754 11.2 20.1254 11.2C28.4754 11.2 35.2454 18.9 35.2454 18.9Z" fill="url(#paint0_linear)"/>
<path d="M35.5052 16.2C35.3752 16.2 35.2552 16.15 35.1552 16.05C35.0852 15.98 28.4252 9.44995 20.3852 9.44995C12.3452 9.44995 5.67519 15.98 5.61519 16.05C5.41519 16.24 5.1052 16.24 4.9052 16.05C4.7152 15.85 4.7152 15.54 4.9052 15.34C5.1852 15.06 11.9152 8.44995 20.3852 8.44995C28.8452 8.44995 35.5852 15.06 35.8652 15.34C36.0652 15.53 36.0652 15.85 35.8652 16.05C35.7652 16.15 35.6352 16.2 35.5052 16.2Z" fill="#0047AC"/>
<path d="M14.0651 12.57C12.9351 13.93 12.2451 15.69 12.2451 17.6C12.2451 21.95 15.7751 25.48 20.1251 25.48C24.4751 25.48 28.0051 21.95 28.0051 17.6C28.0051 15.55 27.2151 13.69 25.9351 12.29C24.2051 11.63 22.3251 11.2 20.3551 11.2C18.1051 11.2 15.9751 11.76 14.0651 12.57Z" fill="url(#paint1_linear)"/>
<path d="M19.8956 24.84C16.0756 24.84 12.9556 21.73 12.9556 17.9H13.3556C13.3556 21.5 16.2856 24.44 19.8956 24.44V24.84Z" fill="white"/>
<path d="M20.1254 21.35C22.2627 21.35 23.9954 19.6174 23.9954 17.48C23.9954 15.3427 22.2627 13.61 20.1254 13.61C17.988 13.61 16.2554 15.3427 16.2554 17.48C16.2554 19.6174 17.988 21.35 20.1254 21.35Z" fill="url(#paint2_linear)"/>
<path d="M20.3452 17.41L25.2952 13.05C25.2952 13.05 26.6952 13.89 27.0352 16.57C27.0052 16.54 20.3452 17.41 20.3452 17.41Z" fill="url(#paint3_linear)"/>
<path d="M20.2554 33.7999C19.9754 33.7999 19.7554 33.5799 19.7554 33.2999V28.7C19.7554 28.42 19.9754 28.2 20.2554 28.2C20.5354 28.2 20.7554 28.42 20.7554 28.7V33.2999C20.7554 33.5799 20.5254 33.7999 20.2554 33.7999Z" fill="#0047AC"/>
<path d="M29.5551 31.52C29.3751 31.52 29.1951 31.42 29.1151 31.25L27.2351 27.6C27.1051 27.35 27.2051 27.05 27.4451 26.93C27.6951 26.81 27.9951 26.9 28.1151 27.15L29.9951 30.8C30.1251 31.05 30.0251 31.35 29.7851 31.47C29.7151 31.51 29.6351 31.52 29.5551 31.52Z" fill="#0047AC"/>
<path d="M35.9954 25.71C35.8754 25.71 35.7554 25.67 35.6554 25.58L33.6354 23.7C33.4354 23.51 33.4254 23.2 33.6054 22.99C33.7954 22.79 34.1054 22.78 34.3154 22.97L36.3354 24.85C36.5354 25.04 36.5454 25.35 36.3654 25.56C36.2654 25.66 36.1254 25.71 35.9954 25.71Z" fill="#0047AC"/>
<path d="M10.9456 31.52C10.8656 31.52 10.7856 31.5 10.7156 31.46C10.4656 31.33 10.3756 31.03 10.5056 30.79L12.3856 27.14C12.5156 26.89 12.8156 26.8 13.0556 26.92C13.3056 27.05 13.3955 27.35 13.2655 27.59L11.3856 31.24C11.2956 31.43 11.1256 31.52 10.9456 31.52Z" fill="#0047AC"/>
<path d="M4.50537 25.71C4.37537 25.71 4.23538 25.66 4.13538 25.55C3.94538 25.35 3.95537 25.03 4.16537 24.84L6.18538 22.96C6.38538 22.77 6.70537 22.78 6.89537 22.98C7.08537 23.18 7.07537 23.5 6.86537 23.69L4.84537 25.57C4.75537 25.67 4.62537 25.71 4.50537 25.71Z" fill="#0047AC"/>
<defs>
<linearGradient id="paint0_linear" x1="1.67047" y1="10.2191" x2="42.7867" y2="29.5679" gradientUnits="userSpaceOnUse">
<stop stop-color="#00ACED"/>
<stop offset="0.0111" stop-color="#07AEED"/>
<stop offset="0.1225" stop-color="#48C3F2"/>
<stop offset="0.2322" stop-color="#80D5F6"/>
<stop offset="0.3377" stop-color="#ADE4F9"/>
<stop offset="0.4378" stop-color="#D1F0FC"/>
<stop offset="0.5316" stop-color="#EAF8FE"/>
<stop offset="0.6163" stop-color="#FAFDFF"/>
<stop offset="0.6841" stop-color="white"/>
</linearGradient>
<linearGradient id="paint1_linear" x1="12.2451" y1="18.3374" x2="27.9993" y2="18.3374" gradientUnits="userSpaceOnUse">
<stop offset="0.2511" stop-color="#0069C2"/>
<stop offset="0.7136" stop-color="#06A0E3"/>
</linearGradient>
<linearGradient id="paint2_linear" x1="16.2491" y1="17.4805" x2="23.996" y2="17.4805" gradientUnits="userSpaceOnUse">
<stop stop-color="#002596"/>
<stop offset="0.5895" stop-color="#0047AC"/>
<stop offset="1" stop-color="#008AD7"/>
</linearGradient>
<linearGradient id="paint3_linear" x1="18.584" y1="25.566" x2="29.5607" y2="7.14745" gradientUnits="userSpaceOnUse">
<stop stop-color="#00ACED"/>
<stop offset="0.0128" stop-color="#07AEED"/>
<stop offset="0.1411" stop-color="#48C3F2"/>
<stop offset="0.2676" stop-color="#80D5F6"/>
<stop offset="0.389" stop-color="#ADE4F9"/>
<stop offset="0.5045" stop-color="#D1F0FC"/>
<stop offset="0.6125" stop-color="#EAF8FE"/>
<stop offset="0.7101" stop-color="#FAFDFF"/>
<stop offset="0.7882" stop-color="white"/>
</linearGradient>
</defs>
</svg>
