<svg width="40" height="40" viewBox="0 0 40 40" fill="none" xmlns="http://www.w3.org/2000/svg">
<g clip-path="url(#clip0)">
<g clip-path="url(#clip1)">
<path d="M12.6101 29.3928C12.5501 29.8028 12.2101 31.6828 11.9401 33.0328C11.2501 33.6428 8.8801 35.3828 6.3501 36.7728C9.9101 40.1928 14.7201 42.3128 20.0401 42.3328C24.8101 42.3528 29.2001 40.6928 32.6401 37.9028C29.3101 36.4928 25.4401 33.6728 24.6701 32.9628C24.2801 32.5928 24.1901 31.9528 24.2101 31.3428C24.2901 30.9428 24.3601 30.6228 24.4001 30.4828C24.4901 30.1528 24.7601 29.9428 25.1301 29.9528C25.5601 29.9628 25.9901 30.0228 26.4201 30.0828C27.4201 30.2428 28.4101 30.3828 29.4301 30.3128C29.7501 30.2928 30.0801 30.2228 30.3801 30.1028C31.0901 29.8128 31.5101 29.2428 31.2501 28.2828C31.1601 28.0028 31.0001 27.7528 30.8601 27.5028C30.7401 27.2828 30.7801 27.1028 30.9401 26.9428C31.0901 26.7828 31.2601 26.6328 31.4201 26.4828C31.6201 26.2928 31.7101 26.0728 31.6001 25.8128C31.5501 25.6928 31.4501 25.5928 31.3601 25.4728C31.4001 25.4528 31.4401 25.4428 31.4701 25.4228C31.8701 25.2728 32.0001 24.8128 31.7601 24.4628C31.4001 23.9428 31.6001 23.4828 32.2301 23.2928C32.4901 23.2228 32.7601 23.1728 33.0101 23.0828C33.3801 22.9628 33.5801 22.6228 33.4601 22.2228C33.3201 21.9628 33.2001 21.6828 33.0501 21.4328C32.4401 20.4028 31.8401 19.3628 31.2101 18.3428C31.0401 18.0628 31.1501 17.8328 31.2401 17.5728C31.3501 17.2728 31.4801 16.9628 31.5301 16.6528C31.5701 16.4128 31.5101 16.1528 31.4801 15.9028C31.4201 15.3828 31.3701 14.8528 31.2801 14.3428C31.1901 13.7928 31.0801 13.2428 30.9301 12.7028C30.7701 12.1728 30.6101 11.6328 30.3501 11.1528C29.0301 8.73282 25.4101 6.02282 20.1701 6.15282C13.0901 6.32282 9.4401 11.9128 9.5701 16.5528C9.6901 21.1928 12.0701 23.0028 12.5201 23.8828C12.9601 24.7428 13.0901 25.6528 12.9901 26.6028C12.9201 27.2628 12.7001 28.7128 12.6101 29.3928Z" fill="url(#paint0_linear)"/>
<path d="M28.8999 14.2128C29.2399 12.4928 29.3899 11.2228 27.3799 10.4828C26.9199 8.82277 25.1899 8.18277 24.0499 8.65277C24.0599 8.68277 22.5999 8.88277 22.3699 10.3228C22.2999 10.7628 22.4299 11.3428 22.9999 11.5028C23.1299 11.5428 23.2099 11.6828 23.1699 11.8128C23.1399 11.9228 23.0399 11.9928 22.9299 11.9928C22.9099 11.9928 22.8799 11.9928 22.8599 11.9828C22.1499 11.7728 21.7599 11.0828 21.8799 10.2528C21.9999 9.43277 22.6199 8.57277 23.7099 8.50277C21.7099 6.99277 19.8299 7.32277 18.8199 8.61277C16.5599 7.99277 14.7999 8.98277 14.2799 10.3528C14.2899 10.3528 15.3299 10.0528 16.4599 10.3828C16.7499 10.4728 16.9999 10.5728 17.2199 10.7028C17.7899 11.0428 18.1899 11.6528 18.3299 12.3728C18.3899 12.7128 18.3899 13.0528 18.3199 13.3828C18.4999 13.2928 18.6799 13.2228 18.8699 13.1728C19.4599 13.0228 20.0899 13.0928 20.6499 13.3428C20.7799 13.4028 20.8299 13.5528 20.7699 13.6728C20.7099 13.8028 20.5599 13.8528 20.4399 13.7928C19.9899 13.5828 19.4699 13.5328 18.9899 13.6528C18.5899 13.7528 18.2199 13.9728 17.9399 14.2628C17.9299 14.2828 17.6499 14.5428 17.5799 14.5428C17.5299 14.5428 17.4699 14.5228 17.4299 14.4928C17.3199 14.4128 17.2999 14.2528 17.3899 14.1428C17.4399 14.0828 17.4999 14.0228 17.5499 13.9628C17.8399 13.5528 17.9499 13.0128 17.8399 12.4628C17.7299 11.8828 17.4099 11.4028 16.9599 11.1228C16.7799 11.0128 16.5699 10.9228 16.3199 10.8528C15.6599 10.6628 13.9699 10.4828 13.2899 10.8828C11.3999 11.9628 10.3799 15.0728 11.7499 17.0428C11.9799 16.5128 12.3699 16.0328 12.8899 15.7328C13.7899 15.2128 14.9999 15.2128 15.9799 15.7328C16.0799 15.7828 16.2199 15.9828 16.1099 16.1428C15.9999 16.3028 15.6499 16.1628 15.6399 16.1228C14.8299 15.7428 13.8499 15.7528 13.1399 16.1728C12.3399 16.6328 11.8699 17.3528 11.8399 18.7228C11.9899 20.1128 12.7299 21.1128 14.2799 21.5828C14.1199 22.2628 14.0599 23.1428 14.0399 23.9028C14.0299 24.5228 14.7899 24.8228 15.1999 24.3628L17.6399 21.6728C17.6399 21.6728 19.5199 22.2028 20.0799 20.9028C19.3199 20.7128 18.6099 19.7628 18.5299 19.1128C18.5099 18.9728 18.6099 18.8528 18.7499 18.8328C18.8999 18.8128 19.0099 18.9128 19.0299 19.0528C19.0899 19.5328 19.6699 20.2928 20.1999 20.4228C20.2399 20.4328 20.2699 20.4728 20.2999 20.5028C21.4799 20.9928 23.6499 20.7728 24.4299 19.4628C23.5299 19.0828 22.8499 18.1228 22.6899 16.9528C22.5999 16.3028 22.6699 15.7228 22.8899 15.2328C23.1599 14.6328 23.6699 14.2028 24.2499 14.0828C24.3899 14.0528 24.5199 14.1428 24.5499 14.2728C24.5799 14.4128 24.4899 14.5428 24.3599 14.5728C23.9399 14.6628 23.5599 14.9928 23.3499 15.4428C23.1699 15.8428 23.1099 16.3428 23.1899 16.8828C23.3099 17.7528 23.5999 18.6528 24.9299 19.3028C25.7299 19.3028 27.5999 19.2428 28.7299 18.1528C29.7599 17.1428 29.8799 15.3028 28.8999 14.2128Z" fill="url(#paint1_linear)"/>
</g>
</g>
<defs>
<linearGradient id="paint0_linear" x1="6.3375" y1="24.2339" x2="33.513" y2="24.2339" gradientUnits="userSpaceOnUse">
<stop stop-color="#0069C2"/>
<stop offset="0.3776" stop-color="#0384D2"/>
<stop offset="0.7502" stop-color="#0599DF"/>
<stop offset="1" stop-color="#06A0E3"/>
</linearGradient>
<linearGradient id="paint1_linear" x1="11.7356" y1="32.4031" x2="32.6176" y2="-9.18673" gradientUnits="userSpaceOnUse">
<stop stop-color="#00ACED"/>
<stop offset="0.0128" stop-color="#07AEED"/>
<stop offset="0.1411" stop-color="#48C3F2"/>
<stop offset="0.2676" stop-color="#80D5F6"/>
<stop offset="0.389" stop-color="#ADE4F9"/>
<stop offset="0.5045" stop-color="#D1F0FC"/>
<stop offset="0.6125" stop-color="#EAF8FE"/>
<stop offset="0.7101" stop-color="#FAFDFF"/>
<stop offset="0.7882" stop-color="white"/>
</linearGradient>
<clipPath id="clip0">
<rect width="40" height="40" rx="20" fill="white"/>
</clipPath>
<clipPath id="clip1">
<rect width="40" height="40" rx="20" fill="white"/>
</clipPath>
</defs>
</svg>
