<svg width="40" height="40" viewBox="0 0 40 40" fill="none" xmlns="http://www.w3.org/2000/svg">
<g clip-path="url(#clip0)">
<path d="M29.19 15.2C28.67 10 24.36 6.29004 19.75 6.29004C15.14 6.29004 10.99 10.06 12.14 14.55C12.63 16.46 12.96 16.9 13.23 18.01C13.47 18.97 11.87 20.21 11.88 22.36C11.9 26.66 11 26.66 11 29.8C11 32.94 12.73 35.36 16.26 35.61C18.21 35.75 21.14 35.0501 23.47 30.3501C27.05 27.3801 29.98 23.06 29.19 15.2Z" fill="url(#paint0_linear)"/>
<path d="M28.16 15.6301C27.88 10.7401 24.19 7.08009 19.52 7.12009V6.72009C19.55 6.72009 19.58 6.72009 19.61 6.72009C24.43 6.72009 28.27 10.5201 28.56 15.6101L28.16 15.6301Z" fill="white"/>
<path d="M18.5698 18.4C18.5698 18.4 15.5398 16.6401 15.2598 13.2201C14.9798 9.81005 17.8998 7.33005 21.6598 8.87005C24.8398 10.17 28.1698 15.56 26.7798 21.15C26.1398 23.72 23.6698 26.3401 20.7798 27.5701C17.0598 29.1501 13.3498 27.7401 13.5198 26.8301C13.7398 25.6201 14.6398 25.1301 15.1498 23.9101C15.6598 22.7001 14.6198 21.5001 15.2898 20.4501C15.9598 19.4001 18.3998 21.26 18.3998 21.26L20.6798 22.3501L21.4198 21.0501L18.5698 18.4Z" fill="url(#paint1_linear)"/>
<path d="M21.2402 20.83C22.3602 19.62 20.4002 17.29 20.0802 16.88C19.1102 15.64 18.6502 15 18.7702 13.57C18.6302 13.11 19.2102 11.86 19.0302 10.88C18.8902 10.11 18.2602 9.21001 17.4102 8.92001C15.9602 9.70001 15.1102 11.31 15.2602 13.23C15.5702 17.2 20.7802 19.99 21.2402 20.83Z" fill="url(#paint2_linear)"/>
<path d="M17.1503 28.3601C18.9803 26.1801 23.2803 24.4101 20.5303 22.1601C20.3303 22.0601 17.2903 20.5001 17.0703 20.4101C16.3003 20.0701 15.5003 19.8801 15.2003 20.3601C14.5303 21.4101 15.6603 22.7001 15.1503 23.9101C14.6403 25.1201 13.1403 25.8101 13.2903 27.1001C13.3903 27.9301 14.8103 28.5001 17.1503 28.3601Z" fill="url(#paint3_linear)"/>
<path d="M19.8696 4.10001C19.8596 4.10001 19.8596 4.10001 19.8696 4.10001C19.5896 4.10001 19.3696 3.87 19.3696 3.59L19.4396 -0.509995C19.4396 -0.789995 19.6796 -0.98 19.9496 -1C20.2296 -1 20.4496 -0.770005 20.4396 -0.490005L20.3696 3.61C20.3596 3.89 20.1396 4.10001 19.8696 4.10001Z" fill="#0047AC"/>
<path d="M27.99 7.46998C27.9 7.46998 27.8 7.43998 27.72 7.38998C27.49 7.23998 27.42 6.92997 27.57 6.69997L30.78 1.70998C30.93 1.47998 31.24 1.40998 31.47 1.55998C31.7 1.70998 31.77 2.01998 31.62 2.24998L28.41 7.23998C28.31 7.38998 28.15 7.46998 27.99 7.46998Z" fill="#0047AC"/>
<path d="M32.42 14.67C32.19 14.67 31.99 14.52 31.93 14.29C31.87 14.02 32.0301 13.75 32.3 13.69L38.41 12.24C38.67 12.17 38.95 12.34 39.01 12.61C39.07 12.88 38.91 13.15 38.64 13.21L32.53 14.66C32.5 14.66 32.46 14.67 32.42 14.67Z" fill="#0047AC"/>
<path d="M34.5897 24.6701C34.5497 24.6701 34.5097 24.6701 34.4797 24.6601L31.1197 23.8801C30.8497 23.8201 30.6797 23.5501 30.7497 23.2801C30.8197 23.0101 31.0797 22.8401 31.3497 22.9101L34.7097 23.6901C34.9797 23.7501 35.1497 24.0201 35.0797 24.2901C35.0197 24.5201 34.8197 24.6701 34.5897 24.6701Z" fill="#0047AC"/>
<path d="M15.9898 34.9701C14.8898 34.9701 13.8698 34.4601 13.0298 33.5001C11.9098 32.2101 11.3899 30.3601 11.5499 29.4001L11.9399 29.4601C11.7999 30.3401 12.3199 32.0701 13.3298 33.2401C13.8698 33.8601 14.7798 34.6101 16.0398 34.5701L16.0499 34.9701C16.0399 34.9701 16.0098 34.9701 15.9898 34.9701Z" fill="white"/>
</g>
<defs>
<linearGradient id="paint0_linear" x1="1.3271" y1="51.4076" x2="33.6327" y2="-6.28806" gradientUnits="userSpaceOnUse">
<stop offset="0.1812" stop-color="#00ACED"/>
<stop offset="0.6898" stop-color="#A3F3FF"/>
<stop offset="0.9808" stop-color="white"/>
</linearGradient>
<linearGradient id="paint1_linear" x1="9.35949" y1="13.848" x2="27.4419" y2="23.1236" gradientUnits="userSpaceOnUse">
<stop offset="0.1812" stop-color="#00ACED"/>
<stop offset="0.9964" stop-color="#A3F3FF"/>
</linearGradient>
<linearGradient id="paint2_linear" x1="12.5473" y1="28.5296" x2="18.4077" y2="15.9715" gradientUnits="userSpaceOnUse">
<stop offset="0.0524" stop-color="#0069C2"/>
<stop offset="1" stop-color="#06A0E3"/>
</linearGradient>
<linearGradient id="paint3_linear" x1="14.8341" y1="29.602" x2="20.7185" y2="16.9926" gradientUnits="userSpaceOnUse">
<stop offset="0.0524" stop-color="#0069C2"/>
<stop offset="1" stop-color="#06A0E3"/>
</linearGradient>
<clipPath id="clip0">
<rect width="40" height="40" rx="20" fill="white"/>
</clipPath>
</defs>
</svg>
