<svg width="40" height="40" viewBox="0 0 40 40" fill="none" xmlns="http://www.w3.org/2000/svg">
<path d="M31.9854 3.70186C27.3254 3.27186 15.5854 2.40185 14.1754 3.63185C12.0154 5.23185 12.4954 7.44185 11.8454 11.1019C11.3654 13.8319 9.43537 21.8618 9.43537 21.8618C9.43537 21.8618 7.80536 27.8919 7.40535 28.5219C6.99535 29.1419 5.61536 29.3819 5.61536 29.3819C5.61536 29.3819 5.13536 30.3019 6.47536 30.5619C7.81536 30.8219 8.61536 30.8919 9.44536 29.4019C10.2754 27.9119 11.3054 27.2619 12.6354 26.8819C13.6454 26.5919 14.1454 25.5019 14.1254 25.0519C14.0654 23.6719 12.6654 23.2118 12.7554 22.3618C12.7554 22.3518 15.9354 16.0819 16.7754 14.4819C18.0254 12.1119 17.6154 9.36185 17.6154 9.36185C17.6154 9.36185 18.8854 10.3819 22.5054 11.6219C26.7754 13.0919 34.7054 10.6718 37.5654 9.61185C36.1354 7.27185 34.2254 5.27186 31.9854 3.70186Z" fill="url(#paint0_linear)"/>
<path d="M31.9457 3.71179C27.1557 5.07179 14.9856 8.00179 14.1756 9.72179C12.8456 12.0618 14.1757 13.8918 15.0557 17.5018C15.7157 20.1918 17.1756 28.6718 17.1756 28.6718C17.1756 28.6718 18.1256 34.8518 18.0056 35.5818C17.8856 36.3118 16.7157 37.0918 16.7157 37.0918C16.7157 37.0918 16.6456 38.1218 17.9756 37.8318C19.3056 37.5318 20.0656 37.2718 20.2256 35.5718C20.3856 33.8718 21.0457 32.8418 22.1357 31.9718C23.1257 31.1818 23.0957 30.2218 22.8057 29.6918C22.1457 28.4818 20.8556 28.4718 20.5956 27.6618C20.5956 27.6518 21.4257 21.0218 21.5557 19.2118C21.7457 16.5418 19.1556 14.3118 19.1556 14.3118C19.1556 14.3118 18.7157 13.4818 23.3557 13.7518C28.4657 14.0518 35.2657 11.0618 37.7157 9.88179C36.2457 7.43179 34.2657 5.34179 31.9457 3.71179Z" fill="url(#paint1_linear)"/>
<path d="M12.8456 8.51181C12.7256 6.46181 13.4856 4.91181 14.2956 4.29181C15.1956 3.60181 17.5356 3.55181 19.4156 3.51181C19.7756 3.50181 20.1156 3.49181 20.4156 3.48181L20.4356 3.88181C20.1356 3.89181 19.7956 3.9018 19.4356 3.9118C17.7156 3.9518 15.3556 4.0018 14.5556 4.6118C13.8556 5.1518 13.1456 6.59181 13.2656 8.49181L12.8456 8.51181Z" fill="white"/>
<path d="M20.9552 20.8218L20.5652 20.7418C20.8252 19.5018 20.7853 18.2818 20.4353 17.4818C20.0753 16.6518 19.4052 15.9318 18.7652 15.2318L18.6353 15.0918L18.9252 14.8218L19.0553 14.9618C19.6953 15.6518 20.4253 16.4318 20.8053 17.3218C21.1753 18.1918 21.2352 19.5018 20.9552 20.8218Z" fill="white"/>
<defs>
<linearGradient id="paint0_linear" x1="5.27856" y1="47.1284" x2="43.8202" y2="-29.6336" gradientUnits="userSpaceOnUse">
<stop offset="0.0524" stop-color="#0069C2"/>
<stop offset="1" stop-color="#06A0E3"/>
</linearGradient>
<linearGradient id="paint1_linear" x1="43.6537" y1="41.3268" x2="-13.2764" y2="-20.9056" gradientUnits="userSpaceOnUse">
<stop offset="0.1396" stop-color="#00ACED"/>
<stop offset="0.1502" stop-color="#07AEED"/>
<stop offset="0.2558" stop-color="#48C3F2"/>
<stop offset="0.3598" stop-color="#80D5F6"/>
<stop offset="0.4597" stop-color="#ADE4F9"/>
<stop offset="0.5547" stop-color="#D1F0FC"/>
<stop offset="0.6436" stop-color="#EAF8FE"/>
<stop offset="0.7239" stop-color="#FAFDFF"/>
<stop offset="0.7882" stop-color="white"/>
</linearGradient>
</defs>
</svg>
