<svg width="40" height="40" viewBox="0 0 40 40" fill="none" xmlns="http://www.w3.org/2000/svg">
<path d="M34.02 27.24C33.09 27.07 31.89 26.76 30.59 26.25C32.24 25.05 33.48 23.3 34.04 21.33C34.12 21.06 33.96 20.79 33.7 20.71C33.43 20.63 33.16 20.79 33.08 21.05C32.53 22.99 31.22 24.71 29.5 25.77C28.37 25.23 27.21 24.51 26.13 23.58C26.13 23.57 26.13 23.57 26.14 23.56C25.77 23.26 25.43 22.93 25.1 22.6C25.03 22.53 24.97 22.47 24.9 22.39C24.64 22.11 24.4 21.82 24.17 21.52C23.94 21.22 23.71 20.9 23.5 20.57C21.94 18.21 20.99 15.38 20.17 12.42C20.17 12.41 20.16 12.4 20.16 12.4C22.84 9.17003 29.75 4.80003 34.29 4.04003C34.56 3.99003 34.75 3.74003 34.7 3.46003C34.68 3.36003 34.63 3.28003 34.56 3.21003C34.53 3.18003 34.49 3.15003 34.45 3.12003C34.35 3.06003 34.24 3.03002 34.12 3.05002C28.95 3.91002 21.89 8.21004 18.72 12.61C17.83 13.85 17.12 15.21 16.58 16.63L16.56 16.62C15.7 18.15 11.58 20.36 8.47 20C4.82 19.57 2.62 18.26 1.05 16.35C1.01 16.86 1.01 17.37 1 17.88C1.17 17.89 2.57 19.8 5.64 20.62C4.73 21.75 4.09 23.11 3.84 24.54C3.79 24.81 3.98 25.07 4.25 25.12C4.28 25.12 4.31 25.13 4.34 25.13C4.58 25.13 4.79 24.96 4.83 24.71C5.08 23.28 5.76 21.92 6.75 20.85C7.25 20.93 7.78 20.98 8.35 20.99C8.61 20.99 8.87 21.03 9.14 21.03C11.45 21.03 14.16 19.98 15.89 18.69C15.89 18.72 15.88 18.75 15.89 18.74C15.34 20.98 15.22 23.32 15.57 25.61C15.89 27.75 16.4 29.5 17.15 31.03C17.29 30.92 17.45 30.84 17.61 30.75C18 31.67 18.47 32.54 19.02 33.37C17.85 34.75 17.15 36.2 16.77 37.43C17.1 37.5 17.42 37.58 17.76 37.64C18.07 36.65 18.63 35.44 19.63 34.21C20.67 35.57 21.92 36.77 23.34 37.74C23.85 37.68 24.35 37.59 24.84 37.5C21.63 35.64 19.16 32.61 18.04 29.06L17.48 29.24C17.08 28.13 16.78 26.9 16.57 25.47C15.94 21.27 16.97 16.88 19.4 13.4C20.18 16.13 21.14 18.82 22.66 21.12L22.65 21.13C25.07 24.9 28.63 26.74 31.44 27.64C31.48 29.74 32.23 31.81 33.53 33.47C33.79 33.26 34.05 33.06 34.3 32.84C33.2 31.44 32.54 29.71 32.44 27.93C32.94 28.06 33.41 28.17 33.83 28.24C35.01 28.46 36.17 28.57 37.31 28.57C37.52 28.57 37.72 28.55 37.92 28.54C38.13 28.21 38.31 27.86 38.5 27.52C37.06 27.61 35.55 27.53 34.02 27.24Z" fill="url(#paint0_linear)"/>
<path d="M19.4804 28.7C20.2704 30.3 20.0104 32.03 18.9104 32.57C17.8104 33.11 16.2804 32.26 15.4904 30.67C14.7004 29.08 14.9604 27.34 16.0604 26.8C17.1604 26.26 18.6904 27.1 19.4804 28.7Z" fill="url(#paint1_linear)"/>
<path d="M26.77 21.46C27.72 22.88 27.7 24.56 26.72 25.22C25.74 25.88 24.18 25.26 23.22 23.84C22.27 22.42 22.29 20.74 23.27 20.08C24.25 19.43 25.82 20.05 26.77 21.46Z" fill="url(#paint2_linear)"/>
<path d="M10.3602 17.93C12.0602 17.73 13.5402 18.51 13.6902 19.68C13.8402 20.85 12.5702 21.97 10.8802 22.17C9.1902 22.37 7.7002 21.59 7.5502 20.42C7.4002 19.25 8.6602 18.14 10.3602 17.93Z" fill="url(#paint3_linear)"/>
<path d="M25.7402 21.53C25.4802 21.19 25.0802 20.96 24.6602 20.9C24.2402 20.83 23.7902 20.93 23.4402 21.17L23.2202 20.84C23.6602 20.54 24.2102 20.42 24.7302 20.5C25.2502 20.58 25.7402 20.87 26.0602 21.28L25.7402 21.53Z" fill="white"/>
<path d="M12.5402 19.62C12.3002 19.21 11.8002 18.92 11.2002 18.84C10.6302 18.76 10.0502 18.86 9.48016 18.96L9.41016 18.57C10.0102 18.47 10.6202 18.37 11.2502 18.45C11.9702 18.55 12.5802 18.91 12.8802 19.43L12.5402 19.62Z" fill="white"/>
<path d="M18.2701 28.49C18.0801 28.11 17.7201 27.82 17.3101 27.72C16.9001 27.62 16.4401 27.69 16.0901 27.93L15.8701 27.6C16.3201 27.3 16.8901 27.2 17.4101 27.34C17.9301 27.48 18.3901 27.84 18.6301 28.32L18.2701 28.49Z" fill="white"/>
<path d="M27.8103 10.15C25.5503 11.79 22.7603 11.79 21.5803 10.15C20.4003 8.52003 21.2803 5.87003 23.5403 4.23003C25.8003 2.59003 28.5903 2.59003 29.7703 4.23003C30.9503 5.87003 30.0703 8.52003 27.8103 10.15Z" fill="url(#paint4_linear)"/>
<path d="M24.4302 4.89999L24.2002 4.57998C26.0202 3.25998 28.2902 3.27999 29.2602 4.61999L28.9402 4.84998C28.0902 3.69998 26.0702 3.71999 24.4302 4.89999Z" fill="white"/>
<defs>
<linearGradient id="paint0_linear" x1="7.2214" y1="-3.34828" x2="40.8028" y2="45.2097" gradientUnits="userSpaceOnUse">
<stop offset="0.2511" stop-color="#0069C2"/>
<stop offset="0.7136" stop-color="#06A0E3"/>
</linearGradient>
<linearGradient id="paint1_linear" x1="15.4785" y1="30.6624" x2="19.4689" y2="28.6939" gradientUnits="userSpaceOnUse">
<stop offset="0.1877" stop-color="#FF0066"/>
<stop offset="0.997" stop-color="#FD77AD"/>
</linearGradient>
<linearGradient id="paint2_linear" x1="23.2265" y1="23.8443" x2="26.7722" y2="21.4637" gradientUnits="userSpaceOnUse">
<stop offset="0.1877" stop-color="#FF0066"/>
<stop offset="0.997" stop-color="#FD77AD"/>
</linearGradient>
<linearGradient id="paint3_linear" x1="10.8673" y1="22.164" x2="10.3569" y2="17.9237" gradientUnits="userSpaceOnUse">
<stop offset="0.1877" stop-color="#FF0066"/>
<stop offset="0.997" stop-color="#FD77AD"/>
</linearGradient>
<linearGradient id="paint4_linear" x1="23.5315" y1="4.24723" x2="27.8084" y2="10.1619" gradientUnits="userSpaceOnUse">
<stop offset="0.1877" stop-color="#FF0066"/>
<stop offset="0.997" stop-color="#FD77AD"/>
</linearGradient>
</defs>
</svg>
