<svg width="40" height="40" viewBox="0 0 40 40" fill="none" xmlns="http://www.w3.org/2000/svg">
<path d="M30.4014 12.1604C32.1114 10.6004 33.0214 8.67041 33.1014 6.75041C33.1014 6.75041 33.1314 6.02041 32.4114 6.00041C31.6914 5.98041 31.5514 6.69041 31.5514 6.69041C31.4914 8.27041 30.7014 9.8604 29.2314 11.1504C27.2814 9.9004 23.8314 9.38041 20.7414 9.25041C17.6814 9.12041 13.9114 9.6904 11.7714 11.1504C10.6114 9.8604 9.80138 8.34041 9.12138 6.86041C9.12138 6.86041 8.58138 6.07041 7.95138 6.44041C7.32138 6.81041 7.72138 7.50041 7.72138 7.50041C8.49138 9.18041 9.40138 10.8204 10.6414 12.2004C8.30138 17.6004 15.4014 23.0604 19.6914 23.6704V36.4404C19.6914 36.8704 20.0414 37.2104 20.4614 37.2104C20.8914 37.2104 21.2314 36.8604 21.2314 36.4404V23.6704C25.0614 23.3604 32.2614 17.4304 30.4014 12.1604Z" fill="url(#paint0_linear)"/>
<path d="M36.7914 14.7304C36.8214 13.0904 36.0014 11.6904 34.4614 10.8004C32.9614 9.93039 30.7714 10.2304 29.2714 10.6904C26.6114 11.2004 23.1414 12.0604 20.4114 12.1604H20.2614C17.6114 12.0604 14.2614 11.2604 11.6414 10.7404C10.1414 10.2604 7.86139 9.90039 6.32139 10.8004C4.79139 11.6904 3.96138 13.0904 4.00138 14.7404C4.02138 16.0404 4.60138 17.3104 5.50138 18.1704C5.50138 18.1704 5.50139 18.1804 5.49139 18.1804C6.35139 19.0804 7.47138 19.6604 8.55138 19.9004C10.7514 20.4004 13.0114 19.2104 12.3214 17.0104C11.6314 14.8104 8.42138 15.8804 7.42138 16.3204C7.30138 16.3704 6.56138 16.6604 6.26138 16.7704C5.81138 16.2004 5.52138 15.4504 5.50138 14.7104C5.49138 13.9504 5.75138 12.8804 7.08138 12.1004C8.05138 11.5304 9.70139 11.7304 10.9114 12.0804C10.9014 12.1104 10.9314 12.0704 10.9214 12.1004C12.4514 12.5204 13.7514 14.0004 15.5614 17.5704C18.0114 22.4104 17.3314 22.8204 17.0114 23.7904C16.6514 24.8804 15.7514 25.8704 16.1314 27.8804C17.0514 32.2504 19.5814 33.7004 20.2814 34.0204C20.3114 34.0304 20.3614 34.0504 20.4114 34.0204C21.1114 33.7004 23.6314 32.2504 24.5514 27.8804C24.9314 25.8704 24.0014 24.9204 23.6714 23.7904C23.3814 22.8104 22.6614 22.4104 25.1214 17.5704C26.9314 14.0004 28.2614 12.5104 29.8014 12.1004C29.7914 12.0804 29.7914 12.1304 29.7814 12.1104C31.0014 11.7504 32.7014 11.5304 33.7014 12.1104C35.0314 12.8904 35.3014 13.9604 35.2814 14.7204C35.2714 15.4504 34.9814 16.2004 34.5314 16.7804C34.2314 16.6704 33.4814 16.3804 33.3714 16.3304C32.3614 15.8904 29.1614 14.8204 28.4714 17.0204C27.7814 19.2204 30.0414 20.4204 32.2414 19.9104C33.3214 19.6604 34.4414 19.0804 35.3014 18.1904C35.3014 18.1904 35.3014 18.1804 35.2914 18.1804C36.1914 17.2904 36.7614 16.0304 36.7914 14.7304Z" fill="url(#paint1_linear)"/>
<path d="M21.6515 14.5004C21.0915 14.5004 20.6115 14.8404 20.4015 15.3204C20.1915 14.8404 19.7115 14.5004 19.1515 14.5004C18.3915 14.5004 17.7715 15.1204 17.7715 15.8804C17.7715 16.6404 18.3315 17.0204 18.8815 17.5304C19.3415 17.9604 20.3715 18.6804 20.3715 18.6804C20.3715 18.6804 21.3915 17.9104 21.8315 17.5804C22.4415 17.1304 23.0315 16.6404 23.0315 15.8804C23.0315 15.1204 22.4115 14.5004 21.6515 14.5004Z" fill="url(#paint2_linear)"/>
<path d="M21.8613 31.9103C21.8413 31.9103 21.8113 31.9003 21.7913 31.8903C21.7313 31.8503 21.7213 31.7703 21.7613 31.7203C23.3413 29.4203 23.9613 27.4203 23.5513 25.9603C23.5013 25.8003 23.3913 25.5503 23.2513 25.2603C22.8013 24.2903 22.1213 22.8403 22.5613 21.5803C22.5813 21.5103 22.6513 21.4803 22.7213 21.5003C22.7913 21.5203 22.8213 21.5903 22.8013 21.6603C22.4013 22.8203 23.0513 24.2203 23.4813 25.1503C23.6313 25.4603 23.7413 25.7103 23.7913 25.8903C24.2213 27.4303 23.5813 29.4903 21.9613 31.8603C21.9413 31.8903 21.9013 31.9103 21.8613 31.9103Z" fill="white"/>
<path d="M6.96138 17.1904C6.92138 17.1904 6.88138 17.1704 6.85138 17.1304C6.81138 17.0704 6.83137 16.9904 6.89137 16.9604C7.83137 16.3804 9.68138 15.9604 10.1814 16.0004C10.2514 16.0104 10.3014 16.0704 10.2914 16.1404C10.2814 16.2104 10.2214 16.2604 10.1514 16.2504C9.70137 16.2104 7.90138 16.6304 7.02138 17.1704C7.00138 17.1804 6.98138 17.1904 6.96138 17.1904Z" fill="white"/>
<path d="M28.9012 17.8504C28.8412 17.8504 28.7812 17.8004 28.7812 17.7404C28.7412 17.3104 28.8912 16.9204 29.2212 16.6104C29.6712 16.1904 30.4212 15.9704 31.0512 16.0704C31.1212 16.0804 31.1712 16.1404 31.1612 16.2104C31.1512 16.2804 31.0912 16.3304 31.0212 16.3104C30.4612 16.2204 29.7912 16.4204 29.4012 16.7904C29.1312 17.0404 29.0112 17.3604 29.0412 17.7104C29.0512 17.7804 29.0012 17.8404 28.9312 17.8504C28.9112 17.8504 28.9012 17.8504 28.9012 17.8504Z" fill="white"/>
<defs>
<linearGradient id="paint0_linear" x1="48.1512" y1="-16.6786" x2="-61.802" y2="108.623" gradientUnits="userSpaceOnUse">
<stop offset="0.2112" stop-color="#00ACED"/>
<stop offset="0.2206" stop-color="#07AEED"/>
<stop offset="0.3146" stop-color="#48C3F2"/>
<stop offset="0.4071" stop-color="#80D5F6"/>
<stop offset="0.496" stop-color="#ADE4F9"/>
<stop offset="0.5805" stop-color="#D1F0FC"/>
<stop offset="0.6596" stop-color="#EAF8FE"/>
<stop offset="0.731" stop-color="#FAFDFF"/>
<stop offset="0.7882" stop-color="white"/>
</linearGradient>
<linearGradient id="paint1_linear" x1="-5.55982" y1="39.9391" x2="30.1611" y2="7.00888" gradientUnits="userSpaceOnUse">
<stop offset="0.1877" stop-color="#FF0066"/>
<stop offset="0.9988" stop-color="#FDB2D1"/>
</linearGradient>
<linearGradient id="paint2_linear" x1="4.1049" y1="49.0387" x2="25.3142" y2="5.87606" gradientUnits="userSpaceOnUse">
<stop stop-color="#00ACED"/>
<stop offset="0.0111" stop-color="#07AEED"/>
<stop offset="0.1225" stop-color="#48C3F2"/>
<stop offset="0.2322" stop-color="#80D5F6"/>
<stop offset="0.3377" stop-color="#ADE4F9"/>
<stop offset="0.4378" stop-color="#D1F0FC"/>
<stop offset="0.5316" stop-color="#EAF8FE"/>
<stop offset="0.6163" stop-color="#FAFDFF"/>
<stop offset="0.6841" stop-color="white"/>
</linearGradient>
</defs>
</svg>
