<svg width="40" height="40" viewBox="0 0 40 40" fill="none" xmlns="http://www.w3.org/2000/svg">
<g clip-path="url(#clip0)">
<path d="M34.72 30.3528C34.36 27.2828 31.9 26.3428 29.73 25.7228C27.56 25.1128 24.45 22.8628 23.91 22.3628C23.67 22.1428 23.62 21.7428 23.63 21.3728C23.68 21.1328 23.72 20.9328 23.74 20.8428C23.8 20.6428 23.96 20.5128 24.18 20.5128C24.44 20.5228 24.71 20.5528 24.97 20.5928C25.58 20.6928 26.19 20.7728 26.81 20.7328C27.01 20.7228 27.21 20.6728 27.39 20.6028C27.83 20.4228 28.08 20.0828 27.92 19.4928C27.88 19.3228 27.78 19.1728 27.69 19.0228C27.62 18.8928 27.64 18.7828 27.74 18.6728C27.83 18.5728 27.94 18.4828 28.04 18.3928C28.16 18.2828 28.21 18.1428 28.15 17.9828C28.12 17.9128 28.06 17.8528 28.01 17.7728C28.04 17.7628 28.06 17.7528 28.08 17.7428C28.33 17.6528 28.41 17.3728 28.26 17.1528C28.04 16.8328 28.16 16.5528 28.55 16.4428C28.71 16.3928 28.87 16.3728 29.03 16.3128C29.26 16.2328 29.38 16.0328 29.31 15.7828C29.23 15.6228 28.32 14.0328 27.93 13.4128C27.83 13.2428 27.89 13.1028 27.95 12.9428C28.01 12.7528 28.1 12.5728 28.13 12.3828C28.15 12.2328 28.12 12.0728 28.1 11.9228C28.06 11.6028 28.03 11.2828 27.98 10.9728C27.92 10.6328 27.86 10.3028 27.76 9.97281C27.67 9.65281 27.53 9.33281 27.4 9.02281C27.16 8.41281 26.76 7.92281 26.26 7.50281C25.64 6.98281 24.94 6.61281 24.19 6.32281C23.67 6.12281 23.13 5.97281 22.58 5.89281C22.16 5.82281 21.72 5.80281 21.29 5.77281C20.76 5.74281 20.24 5.79281 19.72 5.89281C19.3 5.97281 18.89 6.09281 18.49 6.25281C18.02 6.44281 17.6 6.68281 17.2 6.99281C16.72 7.37281 16.32 7.83281 15.98 8.34281C15.71 8.75281 15.5 9.18281 15.33 9.64281C15.35 9.66281 15.14 10.3028 15.13 10.3328C14.95 11.1228 14.93 11.9228 15.01 12.7228C15.06 13.1928 15.14 13.6528 15.25 14.1128C15.37 14.6228 15.54 15.1328 15.69 15.6428C15.85 16.2228 16.13 16.7528 16.41 17.2928C16.68 17.8128 16.87 18.3628 16.84 18.9428C16.78 20.2928 16.63 21.4928 16.13 22.4228C15.49 22.9928 12.48 25.1428 10.36 25.7428C8.19 26.3528 5.73 27.3028 5.37 30.3728C5.08 32.8328 4.5 42.1928 4 44.0728C6.39 44.1828 9.03 44.0728 9.03 44.0728L10.22 40.5628L10.29 43.8528H19.86H20.23H29.81L29.88 40.5628L31.07 44.0728C31.07 44.0728 33.71 44.1828 36.1 44.0728C35.59 42.1828 35.01 32.8128 34.72 30.3528Z" fill="url(#paint0_linear)"/>
<path d="M13.75 40.3428C12.83 40.3428 12.51 39.6228 12.48 36.8828C12.45 33.8228 12.57 25.6928 16.6 25.1828C20.63 24.6728 20.1 33.2628 19.76 34.6928C19.18 37.0928 15.78 40.3428 13.75 40.3428Z" fill="url(#paint1_linear)"/>
<path d="M27.3302 40.3228C28.0302 40.3228 29.0502 39.9428 29.1102 36.8828C29.1702 33.8228 29.0202 25.6928 24.9902 25.1828C20.9602 24.6728 21.4502 33.2728 21.8302 34.6928C22.7302 37.9828 25.6802 40.3228 27.3302 40.3228Z" fill="url(#paint2_linear)"/>
<path d="M28.1099 31.7428C27.7899 29.3428 26.8299 26.4928 25.1899 26.3828L25.2099 26.1028C27.5499 26.2628 28.2699 30.7928 28.3899 31.7028L28.1099 31.7428Z" fill="white"/>
<path d="M18.8902 28.4928C18.8502 27.3728 18.2902 26.5828 17.8002 26.3128C17.6202 26.2128 17.3402 26.1328 17.0502 26.3028L16.9102 26.0628C17.2202 25.8728 17.5802 25.8728 17.9402 26.0628C18.6202 26.4328 19.1302 27.4228 19.1702 28.4828L18.8902 28.4928Z" fill="white"/>
<path d="M26.9299 17.0928C26.6999 17.0928 26.2599 17.0728 25.8299 17.0728C24.6499 17.0528 23.1799 17.0128 22.5899 17.0928C21.6699 17.2128 20.3199 18.0728 20.3199 19.5328V21.0728C20.3199 22.4728 20.3699 27.4228 20.3199 27.6528C20.2299 28.0728 19.8299 28.4628 19.4899 28.7228C19.1499 28.9828 18.6899 29.1028 18.2699 29.0728C17.9999 29.0428 17.7499 29.2528 17.7299 29.5328C17.7099 29.8128 17.9099 30.0528 18.1899 30.0728C18.2699 30.0828 18.3399 30.0828 18.4199 30.0828C19.0099 30.0828 19.6099 29.8928 20.0899 29.5328C20.3599 29.3328 20.5899 29.0828 20.7699 28.8028C20.9499 29.0828 21.1799 29.3328 21.4499 29.5328C21.9299 29.8828 22.5299 30.0828 23.1199 30.0828C23.1999 30.0828 23.2699 30.0828 23.3499 30.0728C23.6299 30.0528 23.8299 29.8028 23.8099 29.5328C23.7899 29.2528 23.5299 29.0428 23.2699 29.0728C22.8499 29.1028 22.3899 28.9828 22.0499 28.7228C21.6999 28.4628 21.2999 28.0828 21.2899 27.6528C21.2799 27.0228 21.2799 23.0528 21.2899 21.0828L21.3399 19.5428C21.3399 18.5828 22.3699 18.1028 22.7499 18.0528C23.2699 17.9828 24.8199 18.0128 25.8399 18.0428C26.2799 18.0528 26.7299 18.0628 26.9599 18.0628C27.2399 18.0628 27.4799 17.8628 27.4799 17.5928C27.4799 17.3228 27.2099 17.0928 26.9299 17.0928Z" fill="url(#paint3_linear)"/>
<path d="M30.4103 18.4128C30.7362 18.4128 31.0003 18.1486 31.0003 17.8228C31.0003 17.4969 30.7362 17.2328 30.4103 17.2328C30.0845 17.2328 29.8203 17.4969 29.8203 17.8228C29.8203 18.1486 30.0845 18.4128 30.4103 18.4128Z" fill="url(#paint4_linear)"/>
<path d="M32.7097 18.8128C33.2565 18.8128 33.6997 18.3695 33.6997 17.8228C33.6997 17.276 33.2565 16.8328 32.7097 16.8328C32.163 16.8328 31.7197 17.276 31.7197 17.8228C31.7197 18.3695 32.163 18.8128 32.7097 18.8128Z" fill="url(#paint5_linear)"/>
<path d="M25.8397 29.6028H24.4897C24.3497 29.6028 24.2397 29.4928 24.2397 29.3528C24.2397 29.2128 24.3497 29.1028 24.4897 29.1028H25.8397C25.9797 29.1028 26.0897 29.2128 26.0897 29.3528C26.0897 29.4928 25.9797 29.6028 25.8397 29.6028Z" fill="#0047AC"/>
<path d="M23.7898 28.6328C23.7598 28.6328 23.7398 28.6328 23.7098 28.6228C23.5798 28.5828 23.5098 28.4328 23.5498 28.3028L23.8298 27.4628C23.8698 27.3328 24.0198 27.2628 24.1498 27.3028C24.2798 27.3428 24.3498 27.4928 24.3098 27.6228L24.0298 28.4628C23.9898 28.5628 23.8998 28.6328 23.7898 28.6328Z" fill="#0047AC"/>
<path d="M25.4199 33.3728C25.3199 33.3728 25.2299 33.3128 25.1899 33.2228L24.0699 30.6628C24.0199 30.5328 24.0699 30.3928 24.1999 30.3328C24.3299 30.2728 24.4699 30.3328 24.5299 30.4628L25.6499 33.0228C25.6999 33.1528 25.6499 33.2928 25.5199 33.3528C25.4899 33.3628 25.4499 33.3728 25.4199 33.3728Z" fill="#0047AC"/>
<path d="M17.0102 29.6028H15.6602C15.5202 29.6028 15.4102 29.4928 15.4102 29.3528C15.4102 29.2128 15.5202 29.1028 15.6602 29.1028H17.0102C17.1502 29.1028 17.2602 29.2128 17.2602 29.3528C17.2602 29.4928 17.1502 29.6028 17.0102 29.6028Z" fill="#0047AC"/>
<path d="M17.7104 28.6328C17.6104 28.6328 17.5104 28.5628 17.4704 28.4628L17.1904 27.6228C17.1504 27.4928 17.2204 27.3528 17.3504 27.3028C17.4804 27.2628 17.6204 27.3328 17.6704 27.4628L17.9504 28.3028C17.9904 28.4328 17.9204 28.5728 17.7904 28.6228C17.7604 28.6228 17.7404 28.6328 17.7104 28.6328Z" fill="#0047AC"/>
<path d="M16.0801 33.3728C16.0501 33.3728 16.0101 33.3628 15.9801 33.3528C15.8501 33.2928 15.8001 33.1528 15.8501 33.0228L16.9701 30.4628C17.0201 30.3328 17.1701 30.2728 17.3001 30.3328C17.4301 30.3928 17.4801 30.5328 17.4301 30.6628L16.3101 33.2228C16.2701 33.3128 16.1801 33.3728 16.0801 33.3728Z" fill="#0047AC"/>
</g>
<defs>
<linearGradient id="paint0_linear" x1="3.9931" y1="24.9399" x2="36.0942" y2="24.9399" gradientUnits="userSpaceOnUse">
<stop stop-color="#0069C2"/>
<stop offset="0.3776" stop-color="#0384D2"/>
<stop offset="0.7502" stop-color="#0599DF"/>
<stop offset="1" stop-color="#06A0E3"/>
</linearGradient>
<linearGradient id="paint1_linear" x1="16.1207" y1="43.2607" x2="16.3378" y2="23.9373" gradientUnits="userSpaceOnUse">
<stop stop-color="#00ACED"/>
<stop offset="0.0128" stop-color="#07AEED"/>
<stop offset="0.1411" stop-color="#48C3F2"/>
<stop offset="0.2676" stop-color="#80D5F6"/>
<stop offset="0.389" stop-color="#ADE4F9"/>
<stop offset="0.5045" stop-color="#D1F0FC"/>
<stop offset="0.6125" stop-color="#EAF8FE"/>
<stop offset="0.7101" stop-color="#FAFDFF"/>
<stop offset="0.7882" stop-color="white"/>
</linearGradient>
<linearGradient id="paint2_linear" x1="25.2465" y1="43.3622" x2="25.4636" y2="24.0402" gradientUnits="userSpaceOnUse">
<stop stop-color="#00ACED"/>
<stop offset="0.0128" stop-color="#07AEED"/>
<stop offset="0.1411" stop-color="#48C3F2"/>
<stop offset="0.2676" stop-color="#80D5F6"/>
<stop offset="0.389" stop-color="#ADE4F9"/>
<stop offset="0.5045" stop-color="#D1F0FC"/>
<stop offset="0.6125" stop-color="#EAF8FE"/>
<stop offset="0.7101" stop-color="#FAFDFF"/>
<stop offset="0.7882" stop-color="white"/>
</linearGradient>
<linearGradient id="paint3_linear" x1="20.8539" y1="34.2164" x2="26.9491" y2="-3.33233" gradientUnits="userSpaceOnUse">
<stop stop-color="#00ACED"/>
<stop offset="0.0128" stop-color="#07AEED"/>
<stop offset="0.1411" stop-color="#48C3F2"/>
<stop offset="0.2676" stop-color="#80D5F6"/>
<stop offset="0.389" stop-color="#ADE4F9"/>
<stop offset="0.5045" stop-color="#D1F0FC"/>
<stop offset="0.6125" stop-color="#EAF8FE"/>
<stop offset="0.7101" stop-color="#FAFDFF"/>
<stop offset="0.7882" stop-color="white"/>
</linearGradient>
<linearGradient id="paint4_linear" x1="27.5441" y1="19.8521" x2="35.7068" y2="14.0614" gradientUnits="userSpaceOnUse">
<stop stop-color="#0069C2"/>
<stop offset="0.3776" stop-color="#0384D2"/>
<stop offset="0.7502" stop-color="#0599DF"/>
<stop offset="1" stop-color="#06A0E3"/>
</linearGradient>
<linearGradient id="paint5_linear" x1="28.3142" y1="20.9386" x2="36.477" y2="15.1479" gradientUnits="userSpaceOnUse">
<stop stop-color="#0069C2"/>
<stop offset="0.3776" stop-color="#0384D2"/>
<stop offset="0.7502" stop-color="#0599DF"/>
<stop offset="1" stop-color="#06A0E3"/>
</linearGradient>
<clipPath id="clip0">
<rect width="40" height="40" rx="20" fill="white"/>
</clipPath>
</defs>
</svg>
