<svg width="40" height="40" viewBox="0 0 40 40" fill="none" xmlns="http://www.w3.org/2000/svg">
<g clip-path="url(#clip0)">
<path d="M31.4602 19.2726C31.1502 18.0026 30.8402 16.7326 30.5102 15.4726C29.9602 13.3426 29.2202 11.2126 28.8202 9.06257C28.8002 8.93257 28.7702 8.81257 28.7402 8.70257C28.6602 8.15257 28.5202 7.61257 28.2802 7.17257C28.0802 6.80257 27.8102 6.46257 27.5502 6.13257C27.4102 5.95257 27.2602 5.77257 27.0702 5.64257C26.8902 5.51257 26.6802 5.42257 26.4702 5.34257C24.6802 4.62257 22.8902 3.90257 21.0902 3.18257C20.8502 3.08257 20.6002 2.98257 20.3402 3.00257C20.0602 3.02257 19.8002 3.17257 19.5602 3.32257C18.7702 3.81257 18.0202 4.34257 17.2902 4.91257C17.1602 5.01257 17.0202 5.13257 16.9402 5.28257C16.8502 5.45257 16.8502 5.64258 16.8402 5.83258C16.8302 6.35258 16.8102 6.86257 16.8002 7.38257C16.7902 7.60257 16.7902 7.82257 16.8802 8.02257C16.9502 8.19257 17.0902 8.32258 17.2202 8.44258C17.5802 8.79258 17.9402 9.13257 18.3002 9.48257C18.4002 9.58257 18.5102 9.68258 18.6402 9.69258C18.9702 9.72258 19.1102 9.28257 19.0902 8.95257C19.5502 9.20257 20.0402 9.41257 20.5502 9.56257C20.9102 9.67257 21.4102 9.70258 21.5802 9.36258C21.7502 9.61258 22.0602 9.74257 22.3602 9.71257C22.6602 9.67257 22.9302 9.46257 23.0302 9.18258C23.3402 9.52257 24.5702 10.0426 24.7402 10.0826C24.7902 16.2326 22.9002 19.0526 23.4602 23.5226C23.4702 23.6426 22.7502 23.6126 22.7702 23.7326C22.4902 23.5026 22.2102 23.2826 21.9402 23.0526C21.0502 22.2926 20.1702 21.4926 19.1502 20.9126C18.1302 20.3326 16.9202 19.9926 15.7702 20.2126C15.3202 20.3026 14.8902 20.4726 14.4702 20.6826C14.0202 20.1626 11.4102 18.5526 8.57016 18.4326C4.95016 18.2826 3.28016 19.5226 2.56016 19.6626C1.64016 19.8326 -0.0698372 19.0726 -0.959837 18.2926C-0.969837 18.5526 -0.999838 18.8026 -0.999838 19.0626C-1.02984 26.6026 3.11016 33.1726 9.26016 36.6126C9.97016 35.0126 11.3902 31.8426 11.6302 31.3526C13.6502 31.7326 15.1102 33.5026 19.4102 33.4126C25.2602 33.2926 30.9102 29.3126 30.9702 29.2726C31.0402 29.2226 31.0802 29.1426 31.1202 29.0626C31.2902 28.6526 31.3602 28.2026 31.4202 27.7626C31.6002 26.4226 31.7502 25.0826 31.8502 23.7326C31.9102 22.9826 31.9502 22.2226 31.8802 21.4726C31.8102 20.7226 31.6402 19.9926 31.4602 19.2726Z" fill="url(#paint0_linear)"/>
<path d="M8.36019 28.9026C8.30019 29.5926 8.4902 29.8326 8.2002 30.4326C11.9502 31.2726 15.1202 33.4826 19.4202 33.3926C25.2702 33.2726 31.1802 29.0426 31.2402 29.0126C31.2602 29.0026 31.2602 28.9726 31.2802 28.9526C24.2302 27.5426 15.4202 25.4326 8.36019 28.9026Z" fill="url(#paint1_linear)"/>
<path d="M14.58 20.7126C13.65 19.8426 10.99 18.5126 8.57 18.4126C4.95 18.2626 3.28 19.5026 2.56 19.6426C2.55 19.6426 1.46 19.6226 -0.959999 18.2926C-0.969999 18.5426 -1 18.7926 -1 19.0426C-1 19.4826 -0.970002 19.9026 -0.940002 20.3326C-0.840002 21.2926 -0.72 22.2926 -0.68 22.6126V22.6226C-0.67 22.6826 -0.669996 22.7226 -0.659996 22.7326C-0.659996 22.7326 -0.660002 22.7326 -0.650002 22.7326C0.209998 27.4426 2.69 31.5826 6.23 34.5126C7.83 32.9326 8.44 30.8926 8.56 30.5126C9.06 28.8826 9.35 27.2026 9.77 25.5526C10.48 22.7726 11.99 21.8026 12.91 21.2226C12.92 21.2326 12.93 21.2426 12.94 21.2526C12.98 21.1426 14.2 20.8326 14.58 20.7126Z" fill="url(#paint2_linear)"/>
<path d="M23.4901 23.7126C22.4401 22.1326 17.8602 18.5326 13.8302 20.3826C12.4502 21.0226 10.4802 21.9426 9.66016 25.6726C11.7202 24.6426 13.1702 26.9126 15.6202 26.4726C16.8302 26.2526 18.0102 25.8826 19.1902 25.5326C20.0002 25.2926 20.8402 25.0826 21.6902 25.0126C22.1902 24.9726 23.6502 24.8926 23.6502 24.8926C23.6502 24.8926 24.5401 25.2826 23.4901 23.7126Z" fill="url(#paint3_linear)"/>
<path d="M2.54028 21.1426L2.28027 20.8326C3.52027 19.7926 5.10028 19.1926 6.72028 19.1326L6.73028 19.5326C5.20028 19.5826 3.71028 20.1626 2.54028 21.1426Z" fill="white"/>
<path d="M11.6503 23.4126L11.3403 23.1626C13.0603 21.0626 16.0703 20.1326 18.6803 20.8926L18.5703 21.2726C16.1203 20.5526 13.2703 21.4326 11.6503 23.4126Z" fill="white"/>
<path d="M31.92 21.6426C31.63 19.0626 30.13 13.9126 29.15 10.5026C29.03 10.0226 28.92 9.54257 28.83 9.06257C28.81 8.93257 28.78 8.81257 28.75 8.70257C28.67 8.15257 28.53 7.61257 28.29 7.17257C28.09 6.80257 27.82 6.46257 27.56 6.13257C27.42 5.95257 27.27 5.77257 27.08 5.64257C26.9 5.51257 26.69 5.42257 26.48 5.34257C24.69 4.62257 22.9 3.90257 21.1 3.18257C20.86 3.08257 20.61 2.98257 20.35 3.00257C20.07 3.02257 19.81 3.17257 19.57 3.32257C18.78 3.81257 18.03 4.34257 17.3 4.91257C17.17 5.01257 17.03 5.13257 16.95 5.28257C16.86 5.45257 16.86 5.64258 16.85 5.83258C16.84 6.35258 16.82 6.86257 16.81 7.38257C16.8 7.60257 16.8 7.82257 16.89 8.02257C16.96 8.19257 17.1 8.32258 17.23 8.44258C17.59 8.79258 17.95 9.13257 18.31 9.48257C18.41 9.58257 18.52 9.68258 18.65 9.69258C18.98 9.72258 19.12 9.28257 19.1 8.95257C19.56 9.20257 20.11 9.63257 20.61 9.78257C20.97 9.89257 21.41 9.71257 21.58 9.36257C21.75 9.61257 22.06 9.74257 22.36 9.71257C22.66 9.67257 22.93 9.46257 23.03 9.18257C23.34 9.52257 24.54 10.0326 24.73 10.0726C24.66 14.3226 23.5 17.5226 23.27 21.0826C23.06 23.5926 23.49 24.8926 24.89 26.5026C26.11 27.9126 29.2 30.1026 31.08 29.0826C31.76 28.7226 32.32 25.1826 31.92 21.6426Z" fill="url(#paint4_linear)"/>
<path d="M30.6003 19.8526C30.0803 17.4126 29.5603 15.6126 29.0103 13.7226C28.6403 12.4326 28.2503 11.0926 27.8403 9.46258L28.2303 9.36258C28.6403 10.9826 29.0203 12.3126 29.4003 13.6026C29.9503 15.5026 30.4703 17.3026 30.9903 19.7626L30.6003 19.8526Z" fill="white"/>
</g>
<defs>
<linearGradient id="paint0_linear" x1="-15.5363" y1="1.46877" x2="23.2544" y2="24.0734" gradientUnits="userSpaceOnUse">
<stop stop-color="white"/>
<stop offset="0.9865" stop-color="#FDB2D1"/>
</linearGradient>
<linearGradient id="paint1_linear" x1="40.975" y1="49.1009" x2="5.82617" y2="16.9845" gradientUnits="userSpaceOnUse">
<stop offset="0.1877" stop-color="#FF0066"/>
<stop offset="0.9988" stop-color="#FDB2D1"/>
</linearGradient>
<linearGradient id="paint2_linear" x1="-4.6277" y1="29.9409" x2="17.2279" y2="19.3205" gradientUnits="userSpaceOnUse">
<stop offset="0.1877" stop-color="#FF0066"/>
<stop offset="0.9988" stop-color="#FDB2D1"/>
</linearGradient>
<linearGradient id="paint3_linear" x1="7.55256" y1="32.084" x2="24.0974" y2="17.9382" gradientUnits="userSpaceOnUse">
<stop offset="0.1877" stop-color="#FF0066"/>
<stop offset="0.9988" stop-color="#FDB2D1"/>
</linearGradient>
<linearGradient id="paint4_linear" x1="11.8744" y1="28.6457" x2="33.7813" y2="7.92478" gradientUnits="userSpaceOnUse">
<stop offset="0.1877" stop-color="#FF0066"/>
<stop offset="0.9988" stop-color="#FDB2D1"/>
</linearGradient>
<clipPath id="clip0">
<rect width="40" height="40" rx="20" fill="white"/>
</clipPath>
</defs>
</svg>
