<svg width="40" height="40" viewBox="0 0 40 40" fill="none" xmlns="http://www.w3.org/2000/svg">
<g clip-path="url(#clip0)">
<path d="M27.4403 4.58283C23.9903 3.00283 22.7003 5.26283 21.1303 4.49283C19.2603 3.57283 19.8803 -0.387174 19.8803 -0.387174C19.8803 -0.387174 19.7203 -0.947174 18.7003 -0.997174C17.6803 -1.04717 17.4103 -0.417174 17.4103 -0.417174C17.4103 -0.417174 16.2403 2.01283 18.7403 6.48283C21.6903 11.7528 19.8603 15.6328 17.6203 16.7428C15.5003 17.8028 14.2003 16.1528 11.4103 17.8128C10.4003 18.4128 9.57028 19.9428 9.69028 21.4028C9.72028 21.7528 10.1503 23.0528 10.8503 23.1528C11.6803 23.2728 11.5603 21.5728 11.7303 21.4928C11.7103 20.6428 11.9203 20.0628 12.8503 19.8828C14.9403 19.4628 14.8703 22.4428 20.3803 23.0428C27.1403 23.7828 31.4603 18.4328 31.7703 12.8628C31.9603 9.27283 30.2303 5.87283 27.4403 4.58283Z" fill="url(#paint0_linear)"/>
<path d="M16.75 41.0828L14.25 40.5228V36.6528C14.25 34.8628 15.76 33.4128 17.62 33.4128H24.65C24.81 33.4128 24.93 33.3128 24.93 33.2228C24.93 33.1528 24.81 33.0628 24.65 33.0628H8.76C7.24 33.0628 6 31.8628 6 30.3928C6 28.9228 7.24 27.7228 8.76 27.7228H30.25C30.41 27.7228 30.5 27.6228 30.5 27.5628C30.48 27.4028 30.41 27.4028 30.25 27.4028H12.75C11.06 27.4028 9.68 26.0728 9.68 24.4428V21.1028L11.72 21.4828L11.75 24.4328C11.75 24.6828 12.01 24.8928 12.32 24.8928H30.25C32.19 24.8928 32.96 26.4528 33 27.5028C33 29.0228 31.77 30.2128 30.25 30.2128H8.76C8.6 30.2128 8.5 30.3128 8.5 30.3828C8.5 30.4528 8.6 30.5528 8.76 30.5528H24.64C26.17 30.5528 27.42 31.7428 27.42 33.2128C27.42 34.6928 26.17 35.9028 24.64 35.9028H17.61C17.13 35.9028 16.74 36.2328 16.74 36.6428V41.0828H16.75Z" fill="url(#paint1_linear)"/>
<path d="M30.2403 9.69281C29.7903 8.10281 28.2503 5.37281 25.2603 5.21281L25.2803 4.81281C28.4903 4.98281 30.1503 7.89281 30.6203 9.58281L30.2403 9.69281Z" fill="white"/>
<path d="M21.7203 12.6928C21.7203 12.6928 21.2303 15.4628 19.6603 16.8028C18.4703 17.9628 16.6103 18.0828 15.7203 18.0628C15.6603 18.0628 15.5603 18.0528 15.5503 18.0528C15.1503 18.0528 14.8203 18.3828 14.8203 18.7828C14.8203 18.9228 14.8403 19.1228 14.9803 19.2628C15.7003 19.9428 17.8203 21.5528 20.7103 21.8628C26.1403 22.4628 30.6603 17.5228 30.6603 12.6828C30.6603 12.6828 21.7203 12.6928 21.7203 12.6928Z" fill="url(#paint2_linear)"/>
</g>
<defs>
<linearGradient id="paint0_linear" x1="13.6496" y1="33.965" x2="33.8321" y2="-15.6767" gradientUnits="userSpaceOnUse">
<stop offset="0.2511" stop-color="#0069C2"/>
<stop offset="0.7136" stop-color="#06A0E3"/>
</linearGradient>
<linearGradient id="paint1_linear" x1="6.001" y1="31.0917" x2="33.0049" y2="31.0917" gradientUnits="userSpaceOnUse">
<stop offset="0.2511" stop-color="#0069C2"/>
<stop offset="0.7136" stop-color="#06A0E3"/>
</linearGradient>
<linearGradient id="paint2_linear" x1="17.2499" y1="29.9766" x2="32.4825" y2="-7.49021" gradientUnits="userSpaceOnUse">
<stop stop-color="#00ACED"/>
<stop offset="0.0128" stop-color="#07AEED"/>
<stop offset="0.1411" stop-color="#48C3F2"/>
<stop offset="0.2676" stop-color="#80D5F6"/>
<stop offset="0.389" stop-color="#ADE4F9"/>
<stop offset="0.5045" stop-color="#D1F0FC"/>
<stop offset="0.6125" stop-color="#EAF8FE"/>
<stop offset="0.7101" stop-color="#FAFDFF"/>
<stop offset="0.7882" stop-color="white"/>
</linearGradient>
<clipPath id="clip0">
<rect width="40" height="40" rx="20" fill="white"/>
</clipPath>
</defs>
</svg>
