<svg xmlns="http://www.w3.org/2000/svg" width="313" height="264" fill="none"><g clip-path="url(#clip0)"><path fill="url(#paint0_linear)" d="M131.684 237.622c59.336 0 107.437-48.115 107.437-107.469 0-59.353-48.101-107.469-107.437-107.469-59.335 0-107.436 48.116-107.436 107.469 0 59.354 48.1 107.469 107.436 107.469z"/><path fill="#00C2F6" d="M191.654 261.134c14.364 4.065 28.026 1.676 38.707-6.835 12.779-10.178 20.229-28.621 18.543-45.891-.562-5.781-2.428-11.547-4.405-17.655-4.901-15.156-9.527-29.469 3.813-45.323 11.931-14.173 26.049-10.038 31.563-7.604 10.812 4.773 18.062 15.172 16.868 24.18-.562 4.261 2.428 8.171 6.687 8.733a7.774 7.774 0 008.73-6.69c1.079-8.145-1.184-16.782-6.366-24.325-4.742-6.901-11.715-12.627-19.643-16.13-17.896-7.905-36.956-3.378-49.744 11.813-18.9 22.449-11.856 44.23-6.718 60.129 1.711 5.284 3.321 10.278 3.723 14.383 1.174 12.045-4.069 25.289-12.754 32.205-7.265 5.786-16.235 6.94-26.671 3.452-4.079-1.355-8.479.834-9.844 4.904a7.78 7.78 0 004.902 9.846 53.34 53.34 0 002.609.808z"/><path fill="#60E6FF" d="M248.312 145.43c-.19.226-.361.452-.547.677-3.236-1.144-6.386-2.705-8.428-5.304-1.465-1.862-2.017-4.075-2.077-6.364 12.773-14.403 31.387-18.574 48.891-10.84 7.927 3.498 14.901 9.229 19.642 16.13 5.183 7.543 7.446 16.185 6.367 24.325a7.773 7.773 0 01-8.73 6.69 7.772 7.772 0 01-6.687-8.732c1.194-9.014-6.061-19.408-16.868-24.18-5.514-2.434-19.632-6.575-31.563 7.598zM86.736 178.106c.657-9.033 4.164-37.093 22.472-43.712h49.042c16.918 5.756 20.982 27.562 22.487 39.672 20.936 6.961 32.275 41.168 31.342 89.859 0 0-124.7-.422-124.7 0 .004 0-.773-84.047-.643-85.819z"/><path fill="#60E6FF" d="M187.595 3.854l-35.406 30.358s-11.469-2.083-20.455-2.008c-8.985.076-20.861 2.008-20.861 2.008L75.463 3.854C70.128-.718 61.9 3.122 61.985 10.148c.171 14.368.974 35.416.572 55.983-.145 7.497-4.77 24.465.206 41.263 14.876 46.703 60.883 50.618 68.765 51.129 7.882.512 0 0 0 0s53.733-2.007 68.764-51.129c4.661-15.257.256-32.446.211-41.921-.1-20.36.396-41.118.567-55.33.085-7.016-8.148-10.856-13.476-6.289z"/><path fill="#A3F3FF" d="M202.421 90.973c-.041-9.987-1.887-19.362-1.917-25.495-.1-20.36.396-41.118.567-55.33.085-7.021-8.148-10.86-13.476-6.294l-35.406 30.358s-11.469-2.083-20.455-2.002c-8.418.07-19.361 1.766-20.715 1.982-2.574 1.234-5.288 2.007-8.018 2.815 40.855-7.161 96.816 7.092 99.42 53.966z"/><path fill="#00C2F6" d="M72.588 9.852c-1.536-3.132-4.962-6.309-8.745-4.989a8.017 8.017 0 00-1.857 5.285c.17 14.368.974 35.416.572 55.983-.005.135-.015.296-.02.431.673-1.119 1.751-2.73 2.133-3.297 5.694-8.447 14.91-16.01 24.127-20.35L72.588 9.851zM190.41 9.852c1.535-3.132 4.962-6.309 8.745-4.989a8.016 8.016 0 011.856 5.285c-.171 14.368-.973 35.416-.572 55.983.005.135.015.296.02.431-.672-1.119-1.751-2.73-2.132-3.297-5.695-8.447-14.911-16.01-24.128-20.35L190.41 9.851z"/><path fill="#FF3C89" d="M181.64 138.429c-18.754 22.262-42.229 22.93-50.011 23.035-8.479.116-30.795-.366-50.246-23.035h-.126c6.513 19.843 25.728 34.367 50.372 34.367 40.815 0 50.011-34.367 50.011-34.367z"/><path fill="#B30057" d="M131.444 161.464c-8.61.106-30.745-.527-50.061-23.035h-.126c6.513 19.843 25.728 34.367 50.372 34.367.356 0 .688-.02 1.039-.025-.828-3.719-1.134-7.452-1.224-11.307z" opacity=".59"/><path fill="#B30057" d="M97.628 152.476c-5.403-3.322-10.932-7.849-16.245-14.047h-.126c2.61 7.954 7.29 15.026 13.511 20.677a24.463 24.463 0 012.86-6.63z" opacity=".59"/><path fill="#FCEDF5" d="M131.448 175.381a8.129 8.129 0 008.128-8.13c0-4.49-3.639-8.13-8.128-8.13a8.129 8.129 0 00-8.127 8.13c0 4.49 3.639 8.13 8.127 8.13z"/><path fill="#A3F3FF" d="M179.683 191.019v56.956s14.6 4.141 13.642 15.95c-.166.165-41.768 0-41.768 0v-48.254c-.005 0 .321-21.666 28.126-24.652z"/><path fill="#fff" d="M96.96 119.273c10.444 0 18.91-8.469 18.91-18.915 0-10.447-8.466-18.916-18.91-18.916-10.443 0-18.909 8.469-18.909 18.916 0 10.446 8.466 18.915 18.91 18.915z"/><path fill="url(#paint1_linear)" d="M96.96 113.005c6.984 0 12.644-5.663 12.644-12.647 0-6.985-5.66-12.647-12.643-12.647-6.983 0-12.643 5.662-12.643 12.647 0 6.984 5.66 12.647 12.643 12.647z"/><path fill="#fff" d="M166.162 119.273c10.443 0 18.909-8.469 18.909-18.915 0-10.447-8.466-18.916-18.909-18.916s-18.91 8.469-18.91 18.916c0 10.446 8.467 18.915 18.91 18.915z"/><path fill="url(#paint2_linear)" d="M166.162 113.005c6.983 0 12.643-5.663 12.643-12.647 0-6.985-5.66-12.647-12.643-12.647-6.983 0-12.643 5.662-12.643 12.647 0 6.984 5.66 12.647 12.643 12.647z"/><path fill="#fff" d="M172.754 92.549c1.892 1.786 2.905 4.115 1.872 5.515-2.273 1.325-3.753-.552-5.665-2.349-1.735-1.63-2.754-3.513-1.71-4.637 1.043-1.124 3.346-.562 5.503 1.47zM103.478 92.845c1.756 1.917 2.905 3.819 1.871 5.219-2.272 1.325-3.752-.552-5.664-2.349-1.736-1.63-2.754-3.513-1.71-4.637 1.043-1.124 3.321-.612 5.503 1.767z"/><path fill="#FDB2D1" d="M133.746 126.821c-1.149-1.154-1.836-3.212-2.528-4.632h-.989c-.888 2.313-3.105 5.455-5.107 6.991 0 3.844 2.815 8.045 5.599 8.045 2.79 0 5.925-4.136 5.79-8.116-.667-.511-2.097-1.771-2.765-2.288z"/><path fill="#FD77AD" d="M130.646 133.36l-1.079-9.977 1.104-1.566 1.325 1.566-1.35 9.977z"/><path fill="#002596" d="M122.453 130.725c-4.099 0-6.357-2.067-7.546-3.859a1.002 1.002 0 111.671-1.109c1.405 2.123 3.597 3.106 6.507 2.941 5.91-.346 6.648-8.948 6.653-9.034.04-.522.476-.928.998-.928.527 0 .998.406 1.039.928.005.086.742 8.688 6.652 9.034 2.629.15 4.676-.643 6.086-2.374a.998.998 0 011.41-.141c.426.352.492.984.14 1.411-1.269 1.55-3.637 3.352-7.761 3.106-4.074-.241-6.387-3.377-7.556-6.514-1.169 3.137-3.477 6.273-7.556 6.514-.241.015-.491.025-.737.025z"/><path fill="#002596" d="M130.756 121.943l-4.6-6.454a.869.869 0 01.707-1.375h7.787c.707 0 1.118.798.707 1.375l-4.601 6.454z"/><path fill="url(#paint3_linear)" d="M208.517 98.32c0 41.85-34.664 75.781-77.42 75.781S53.678 140.175 53.678 98.32c0-41.855 34.663-74.778 77.419-74.778s77.42 32.928 77.42 74.778z"/><path fill="url(#paint4_linear)" d="M193.611 153.299c-12.633 3.006-47.808 12.21-62.484 12.21-14.479 0-44.07-6.534-56.568-9.465-9.241.407-7.7 10.012-2.754 12.803 13.15 7.427 34.021 11.342 59.644 11.342 19.923 0 51.781-5.36 65.513-14.288 2.448-2.279 4.721-9.847-3.351-12.602z"/><path fill="url(#paint5_linear)" d="M131.092 26.83c19.607 0 38.03 7.462 51.872 21.013 13.787 13.495 21.383 31.421 21.383 50.477 0 19.056-7.591 36.982-21.383 50.477-13.842 13.551-32.265 21.013-51.872 21.013s-38.03-7.462-51.872-21.013c-13.787-13.495-21.378-31.421-21.378-50.477 0-19.056 7.591-36.982 21.378-50.477 13.847-13.55 32.27-21.013 51.872-21.013zm0-4.291c-42.756 0-77.419 33.926-77.419 75.781 0 41.855 34.663 68.424 77.419 68.424s77.419-26.569 77.419-68.424c0-41.855-34.658-75.781-77.419-75.781z" opacity=".32"/><path fill="url(#paint6_linear)" d="M185.393 80.624c-13.817-11.563-32.647-17.796-52.229-17.796a79.054 79.054 0 00-23.419 3.523c-9.172 3.117-6.442 11.664.14 10.44a68.663 68.663 0 0123.279-4.04c18.338 0 36.074 6.262 49.033 17.233a964.942 964.942 0 003.196-9.36z"/><path fill="url(#paint7_linear)" d="M189.456 84.328c-1.078 3.122-2.177 6.238-3.231 9.375 5.399 5.44 9.724 11.809 12.563 18.98 2.986-1.721 3.116-1.415 5.865-3.478-3.025-9.72-8.318-18.062-15.197-24.877z"/><path fill="url(#paint8_linear)" d="M132.146 59.601c40.809 0 72.221 22.99 75.187 53.499.14-1.872 1.184-13.711 1.184-15.623 0-41.85-34.664-74.276-77.42-74.276s-77.419 32.42-77.419 74.276c0 1.912.206 11.212 1.325 14.639 2.965-30.508 36.334-52.515 77.143-52.515z"/><path fill="#A3F3FF" d="M131.092 48.59c40.81 0 74.239 24.055 77.204 54.568.14-1.872.215-3.77.215-5.676 0-41.85-34.663-75.782-77.419-75.782S53.673 55.626 53.673 97.482c0 1.912.075 3.804.216 5.676 2.965-30.513 36.399-54.568 77.203-54.568z"/><path fill="url(#paint9_linear)" d="M203.424 71.38a74.98 74.98 0 015.208 27.532 75.038 75.038 0 01-5.373 27.959c10.265-.592 18.463-12.788 18.463-27.748 0-14.88-8.108-27.026-18.298-27.743z"/><path fill="url(#paint10_linear)" d="M53.623 98.912a75.102 75.102 0 015.213-27.552c-.1 0-.2-.01-.296-.01-10.626 0-19.246 12.436-19.246 27.778 0 15.342 8.615 27.778 19.246 27.778.155 0 .306-.01.461-.015a75.088 75.088 0 01-5.378-27.979z"/><path fill="#fff" d="M131.127 141.821c-29.224 0-55.333-8.672-74.705-22.117 6.417 24.908 40.65 48.4 74.705 48.4 34.057 0 64.867-20.411 74.525-48.013-19.366 13.44-45.3 21.73-74.525 21.73z"/><path fill="#A3F3FF" d="M131.127 148.913c-28.025 0-53.432-8.291-72.005-21.731 1.334 16.451 11.163 30.99 11.419 31.161 13.01 8.737 44.431 12.23 60.908 12.23 18.297 0 49.749-4.316 63.005-14.755 0 0 7.139-14.288 8.679-28.636-18.578 13.44-43.98 21.731-72.006 21.731z"/><path fill="url(#paint11_linear)" d="M15.658 60.424l10.175 2.74-10.175 2.74-2.744 10.178-2.74-10.177L0 63.165l10.175-2.74 2.74-10.183 2.743 10.182z"/><path fill="url(#paint12_linear)" d="M37.563 15.683l15.679 4.22-15.679 4.227-4.224 15.683-4.22-15.683-15.678-4.226 15.678-4.22L33.34 0l4.224 15.683z"/><path fill="#A3F3FF" d="M86.555 191.019v56.956s-14.6 4.141-13.641 15.95c.165.165 41.767 0 41.767 0v-48.254s-.326-21.666-28.126-24.652z"/></g><defs><linearGradient id="paint1_linear" x1="96.961" x2="96.961" y1="86.643" y2="119.813" gradientUnits="userSpaceOnUse"><stop stop-color="#002596"/><stop offset=".59" stop-color="#0047AC"/><stop offset="1" stop-color="#008AD7"/></linearGradient><linearGradient id="paint2_linear" x1="166.162" x2="166.162" y1="86.643" y2="119.813" gradientUnits="userSpaceOnUse"><stop stop-color="#002596"/><stop offset=".59" stop-color="#0047AC"/><stop offset="1" stop-color="#008AD7"/></linearGradient><linearGradient id="paint3_linear" x1="132.665" x2="129.303" y1="55.115" y2="147.551" gradientUnits="userSpaceOnUse"><stop offset=".135" stop-color="#DF88E0"/><stop offset="1" stop-color="#0069C2"/></linearGradient><linearGradient id="paint4_linear" x1="90.727" x2="274.451" y1="186.962" y2="78.329" gradientUnits="userSpaceOnUse"><stop offset=".415" stop-color="#0069C2"/><stop offset=".528" stop-color="#0384D2"/><stop offset=".639" stop-color="#0599DF"/><stop offset=".714" stop-color="#06A0E3"/></linearGradient><linearGradient id="paint5_linear" x1="137.372" x2="120.219" y1="156.683" y2="-2.821" gradientUnits="userSpaceOnUse"><stop offset=".251" stop-color="#0069C2"/><stop offset=".714" stop-color="#06A0E3"/></linearGradient><linearGradient id="paint6_linear" x1="124.635" x2="220.831" y1="62.579" y2="134.775" gradientUnits="userSpaceOnUse"><stop stop-color="#fff"/><stop offset="1" stop-color="#00C2F6" stop-opacity="0"/></linearGradient><linearGradient id="paint7_linear" x1="132.439" x2="228.635" y1="52.18" y2="124.377" gradientUnits="userSpaceOnUse"><stop stop-color="#fff"/><stop offset="1" stop-color="#00C2F6" stop-opacity="0"/></linearGradient><linearGradient id="paint8_linear" x1="53.674" x2="208.516" y1="68.154" y2="68.154" gradientUnits="userSpaceOnUse"><stop offset=".415" stop-color="#0069C2"/><stop offset=".528" stop-color="#0384D2"/><stop offset=".639" stop-color="#0599DF"/><stop offset=".714" stop-color="#06A0E3"/></linearGradient><linearGradient id="paint9_linear" x1="210.512" x2="216.116" y1="179.064" y2="-75.275" gradientUnits="userSpaceOnUse"><stop offset=".415" stop-color="#0069C2"/><stop offset=".528" stop-color="#0384D2"/><stop offset=".639" stop-color="#0599DF"/><stop offset=".714" stop-color="#06A0E3"/></linearGradient><linearGradient id="paint10_linear" x1="47.766" x2="53.37" y1="175.478" y2="-78.861" gradientUnits="userSpaceOnUse"><stop offset=".415" stop-color="#0069C2"/><stop offset=".528" stop-color="#0384D2"/><stop offset=".639" stop-color="#0599DF"/><stop offset=".714" stop-color="#06A0E3"/></linearGradient><linearGradient id="paint11_linear" x1="-21.902" x2="41.13" y1="10.688" y2="105.627" gradientUnits="userSpaceOnUse"><stop offset=".415" stop-color="#0069C2"/><stop offset=".528" stop-color="#0384D2"/><stop offset=".639" stop-color="#0599DF"/><stop offset=".714" stop-color="#06A0E3"/></linearGradient><linearGradient id="paint12_linear" x1="12.201" x2="75.233" y1="-11.954" y2="82.986" gradientUnits="userSpaceOnUse"><stop offset=".415" stop-color="#0069C2"/><stop offset=".528" stop-color="#0384D2"/><stop offset=".639" stop-color="#0599DF"/><stop offset=".714" stop-color="#06A0E3"/></linearGradient><clipPath id="clip0"><path fill="#fff" d="M0 0h312.426v264H0z"/></clipPath></defs></svg>