<svg width="76" height="76" viewBox="0 0 76 76" fill="none" xmlns="http://www.w3.org/2000/svg">
<g clip-path="url(#clip0)">
<rect width="76" height="76" rx="38" fill="url(#paint0_linear)"/>
<path d="M28.3906 65.341C24.9326 64.372 22.4816 61.123 21.4936 57.665C20.5056 54.207 20.7336 50.54 21.0566 46.968C21.2466 44.688 21.6266 42.142 23.4696 40.812C24.9326 39.748 26.9656 39.824 28.6946 40.375C30.4236 40.926 31.9626 41.933 33.6156 42.674C37.2636 44.289 41.4626 44.574 45.3386 43.567C46.6686 43.225 48.0366 42.731 49.3666 43.016C51.5896 43.51 52.7866 45.923 53.4326 48.108C54.4016 51.357 54.8956 54.929 53.6606 58.102C52.4446 61.275 49.0816 63.802 45.7566 63.118C44.9206 62.947 44.1416 62.605 43.3056 62.453C41.0446 62.035 39.2016 63.479 37.1876 64.239C34.4326 65.265 31.2976 66.158 28.3906 65.341Z" fill="url(#paint1_linear)"/>
<path d="M45.0919 3.79999C44.2559 5.50999 43.4579 8.30299 43.6669 12.559C44.1609 22.42 38.3279 25.308 34.2239 25.308C30.3479 25.308 29.9869 23.408 24.7049 23.807C22.7859 23.94 21.2849 24.947 20.1069 26.296C19.8979 26.828 19.9929 28.006 20.9429 28.652C22.0829 29.431 22.5769 29.089 22.8999 29.089C23.5839 28.443 24.3819 28.044 25.2939 28.139C28.7519 28.5 25.3319 32.737 34.0149 37.962C43.5339 43.7 53.5849 39.254 58.0879 31.331C60.9759 26.22 60.9189 20.007 57.7649 16.093C53.8699 11.267 50.3359 13.642 48.6069 11.381C47.2579 9.61397 48.3979 6.72597 49.3669 4.93997C47.9799 4.48397 46.5549 4.08499 45.0919 3.79999Z" fill="url(#paint2_linear)"/>
<path d="M36.7126 8.72098C30.5376 7.37198 24.6096 5.31997 19.2516 9.95597C12.1266 16.093 15.4326 32.984 21.2276 33.668C28.9416 34.599 29.9106 26.391 34.3756 25.783C38.9736 25.137 45.6236 23.218 50.0126 20.102C54.3446 17.043 56.4726 11.267 54.9716 9.55699C52.9006 7.18199 47.5426 11.077 36.7126 8.72098Z" fill="url(#paint3_linear)"/>
<path d="M43.5906 11.5902C42.3746 11.5902 41.2156 11.5332 40.0946 11.4192C36.6366 11.0772 32.6466 10.2792 28.1816 9.02523L28.3906 8.30322C32.7986 9.53822 36.7696 10.3362 40.1706 10.6782C43.6096 11.0202 47.5046 10.8302 51.7416 10.1082L51.8746 10.8492C48.9486 11.3432 46.1746 11.5902 43.5906 11.5902Z" fill="white"/>
<path d="M53.2999 32.414C52.5209 31.825 51.5329 31.407 50.5639 31.502C46.5739 31.882 46.5359 36.651 37.8719 37.126C35.1929 37.183 32.2099 34.77 30.1389 32.984C25.6739 29.108 22.2919 30.894 20.1069 33.079C15.4899 37.677 14.3119 61.047 22.6719 67.203C24.3249 68.419 28.1059 68.153 29.3029 66.215C30.6329 64.068 30.2339 61.427 28.2199 59.888C26.8899 58.881 25.6359 51.015 26.5859 42.389C30.8609 47.31 46.0419 46.892 48.9299 42.94C49.9939 47.899 50.4689 56.031 49.2339 58.957C48.8159 59.926 48.6639 59.926 48.1129 59.926C47.4289 59.926 46.3649 59.736 44.6739 59.28C43.4389 58.957 41.7669 58.52 40.0569 58.52C36.1809 58.52 34.4519 60.781 33.6729 62.662C33.1409 63.973 33.1409 65.227 33.4449 72.39L33.4639 72.637C33.5209 73.891 33.5779 75.107 33.5969 76.152C33.6349 77.197 34.0149 78.128 34.6229 78.869C35.5349 78.945 36.4469 79.021 37.3969 79.021C38.8979 79.021 40.3609 78.926 41.8239 78.755C42.4699 77.919 42.8119 76.9119 42.7739 75.8479C42.7359 74.7649 42.6789 73.53 42.6409 72.238L42.6219 71.9909C42.5649 70.8509 42.5079 69.426 42.4699 68.172C43.9519 68.552 45.9659 69.065 48.1319 69.065C52.5589 69.065 55.8649 66.804 57.6889 62.529C60.1589 56.62 59.3609 36.955 53.2999 32.414Z" fill="url(#paint4_linear)"/>
<path d="M49.918 43.681C54.212 42.009 58.734 37.81 54.535 32.851C53.414 31.521 51.457 31.1791 50.222 31.4451C46.308 32.2811 46.517 36.651 37.834 37.126C35.155 37.183 32.172 34.7701 30.101 32.9841C25.636 29.1081 22.159 30.8181 20.069 33.0791C18.758 34.4851 20.316 38.551 23.793 41.648C27.27 44.745 32.666 45.942 36.808 46.151C41.615 46.398 45.624 45.372 49.918 43.681Z" fill="url(#paint5_linear)"/>
<path d="M58.8475 26.1061L58.1065 25.9351C58.9425 22.2681 57.6315 18.0501 54.9905 15.8841L55.4655 15.2951C58.3155 17.6321 59.7405 22.1731 58.8475 26.1061Z" fill="white"/>
<path d="M36.8458 38.8551C33.8058 38.6461 31.5258 36.7081 29.5308 34.9791C28.2008 33.8581 26.9658 32.7941 25.7498 32.4901C24.6288 32.2241 23.0708 32.4521 22.3298 33.5921L21.6838 33.1741C22.4818 31.9201 24.2298 31.3501 25.9208 31.7491C27.2888 32.0721 28.6188 33.2121 30.0058 34.3901C31.9248 36.0241 34.1098 37.8861 36.8838 38.0761L36.8458 38.8551Z" fill="white"/>
<path d="M34.7178 65.7781H33.9578C33.9768 63.6691 35.0978 61.5791 36.8078 60.4581C38.2138 59.5271 40.0568 59.166 42.4318 59.356L42.3748 60.116C40.1898 59.964 38.4988 60.2681 37.2258 61.1041C35.7248 62.0731 34.7368 63.9161 34.7178 65.7781Z" fill="white"/>
</g>
<defs>
<linearGradient id="paint0_linear" x1="7.46428" y1="76" x2="76" y2="1.53189e-06" gradientUnits="userSpaceOnUse">
<stop stop-color="#FDEEF6"/>
<stop offset="1" stop-color="#EEF3FF"/>
</linearGradient>
<linearGradient id="paint1_linear" x1="13.6829" y1="110.749" x2="45.8943" y2="30.1538" gradientUnits="userSpaceOnUse">
<stop offset="0.1877" stop-color="#FF0066"/>
<stop offset="0.9988" stop-color="#FDB2D1"/>
</linearGradient>
<linearGradient id="paint2_linear" x1="46.4166" y1="46.5496" x2="29.6191" y2="-12.5723" gradientUnits="userSpaceOnUse">
<stop stop-color="#0069C2"/>
<stop offset="0.3776" stop-color="#0384D2"/>
<stop offset="0.7502" stop-color="#0599DF"/>
<stop offset="1" stop-color="#06A0E3"/>
</linearGradient>
<linearGradient id="paint3_linear" x1="18.9526" y1="-4.2262" x2="90.5338" y2="96.5177" gradientUnits="userSpaceOnUse">
<stop stop-color="#00ACED"/>
<stop offset="0.0128" stop-color="#07AEED"/>
<stop offset="0.1411" stop-color="#48C3F2"/>
<stop offset="0.2676" stop-color="#80D5F6"/>
<stop offset="0.389" stop-color="#ADE4F9"/>
<stop offset="0.5045" stop-color="#D1F0FC"/>
<stop offset="0.6125" stop-color="#EAF8FE"/>
<stop offset="0.7101" stop-color="#FAFDFF"/>
<stop offset="0.7882" stop-color="white"/>
</linearGradient>
<linearGradient id="paint4_linear" x1="49.3149" y1="82.6502" x2="28.8361" y2="24.5472" gradientUnits="userSpaceOnUse">
<stop offset="0.1877" stop-color="#FF0066"/>
<stop offset="0.9988" stop-color="#FDB2D1"/>
</linearGradient>
<linearGradient id="paint5_linear" x1="51.612" y1="68.9426" x2="28.8752" y2="13.6478" gradientUnits="userSpaceOnUse">
<stop offset="0.1877" stop-color="#FF0066"/>
<stop offset="0.9988" stop-color="#FDB2D1"/>
</linearGradient>
<clipPath id="clip0">
<rect width="76" height="76" rx="38" fill="white"/>
</clipPath>
</defs>
</svg>
