<svg width="76" height="76" viewBox="0 0 76 76" fill="none" xmlns="http://www.w3.org/2000/svg">
<rect width="76" height="76" rx="38" fill="url(#paint0_linear)"/>
<path d="M50.7889 17.5304C44.5205 17.4185 39.2222 22.3982 38.0282 29.0565C37.0208 22.3609 31.8717 17.2133 25.5846 17.1014C18.514 16.9895 12.6747 23.3121 12.5814 31.2573C12.4881 39.2025 18.5513 47.241 23.6817 52.7056C29.2972 58.6925 37.3193 65.5933 37.3193 65.5933C37.3193 65.5933 46.9458 58.7485 52.3747 53.1906C57.617 47.8378 63.2885 40.0604 63.4004 32.1152C63.5123 24.17 57.8596 17.6423 50.7889 17.5304Z" fill="url(#paint1_linear)"/>
<path d="M38.196 54.0484C37.8042 54.0484 37.4684 53.8246 37.3378 53.4516L30.9201 37.1882L29.2971 41.8695C29.1665 42.2425 28.812 42.5036 28.4202 42.5036H8.5329C8.01053 42.5036 7.6001 42.0933 7.6001 41.5711C7.6001 41.0489 8.01053 40.6386 8.5329 40.6386H27.7486L29.9687 34.2041C30.0993 33.8311 30.4351 33.5886 30.8269 33.5699C31.1813 33.5326 31.5731 33.7938 31.7224 34.1668L38.1214 50.3742L45.1733 29.1311C45.3039 28.7581 45.6397 28.5156 46.0315 28.4969C46.4606 28.5342 46.7778 28.7208 46.927 29.0752L50.9754 38.8108H67.4673C67.9897 38.8108 68.4001 39.2212 68.4001 39.7434C68.4001 40.2656 67.9897 40.6759 67.4673 40.6759H50.3411C49.9679 40.6759 49.6321 40.452 49.4829 40.0977L46.1434 32.0966L39.0728 53.4143C38.9422 53.7873 38.6064 54.0484 38.2146 54.0484H38.196Z" fill="#002596"/>
<path d="M33.0469 26.4641C32.1701 23.3494 29.4463 20.7943 26.2561 20.1415L26.4427 19.2277C29.95 19.955 32.9723 22.7526 33.9424 26.203L33.0469 26.4641Z" fill="white"/>
<path d="M60.546 36.2558L59.6505 36.0133C60.9005 31.2201 59.6505 26.5201 56.2924 23.4427C53.7552 21.13 50.5837 20.2721 47.9905 21.186L47.6733 20.3094C50.5837 19.265 54.1283 20.1975 56.9267 22.7526C60.5273 26.0725 61.8892 31.1268 60.546 36.2558Z" fill="white"/>
<defs>
<linearGradient id="paint0_linear" x1="69.0594" y1="7.54933" x2="4.2205" y2="70.8172" gradientUnits="userSpaceOnUse">
<stop stop-color="#EEF3FF"/>
<stop offset="1" stop-color="#D7F7FC"/>
</linearGradient>
<linearGradient id="paint1_linear" x1="15.9156" y1="68.5808" x2="51.5785" y2="10.0686" gradientUnits="userSpaceOnUse">
<stop offset="0.1877" stop-color="#FF0066"/>
<stop offset="0.997" stop-color="#FD77AD"/>
</linearGradient>
</defs>
</svg>
