<svg width="76" height="76" viewBox="0 0 76 76" fill="none" xmlns="http://www.w3.org/2000/svg">
<rect width="76" height="76" rx="38" fill="url(#paint0_linear)"/>
<path d="M53.1749 12.7722C54.3561 10.8041 46.9147 6.71048 43.6271 7.77325C42.1506 10.8041 40.556 16.2754 38.8236 16.5706C38.8039 16.5706 38.8038 16.5706 38.7841 16.5903C38.7645 16.5903 38.7645 16.5903 38.7448 16.5706C36.9927 16.2754 35.4178 10.8041 33.9413 7.77325C30.6733 6.71048 23.2122 10.8041 24.3933 12.7722C30.7914 23.3802 29.374 30.977 29.8859 40.601C30.2206 47.135 29.8268 66.9733 29.8859 67.0324C32.642 69.0005 45.4185 68.7053 47.7021 67.0324C47.7809 66.993 47.3674 47.135 47.7021 40.601C48.1746 30.977 46.7768 23.3802 53.1749 12.7722Z" fill="url(#paint1_linear)"/>
<path d="M45.2609 26.0567C45.005 26.0567 44.7491 25.9583 44.5522 25.7615C42.1702 23.2818 35.9689 23.144 32.8978 25.486C32.4647 25.8205 31.8544 25.7418 31.5198 25.3089C31.1851 24.8759 31.2639 24.2658 31.697 23.9312C35.5555 20.9792 42.8789 21.2153 45.9499 24.3839C46.324 24.7775 46.324 25.4073 45.9302 25.7812C45.7531 25.978 45.4971 26.0567 45.2609 26.0567Z" fill="#0047AC"/>
<path d="M44.0797 32.4924C43.8238 32.4924 43.5482 32.394 43.3711 32.1775C41.4418 30.1307 36.4808 30.4063 34.0397 32.1185C33.5869 32.4334 32.9766 32.3153 32.6616 31.8823C32.3466 31.4296 32.4647 30.8196 32.8978 30.5047C36.0477 28.3004 42.0521 27.9658 44.7885 30.8392C45.1625 31.2328 45.1428 31.8627 44.7491 32.2366C44.5719 32.394 44.316 32.4924 44.0797 32.4924Z" fill="#0047AC"/>
<path d="M43.9616 56.0898C43.8632 56.0898 43.7648 56.0701 43.6663 56.0504C41.5993 55.4206 36.4217 55.3813 33.7838 55.9717C33.2522 56.0898 32.7207 55.7552 32.6026 55.2238C32.4845 54.6925 32.8191 54.1611 33.3507 54.043C36.3036 53.3738 41.8946 53.4328 44.2373 54.1414C44.7491 54.2988 45.0444 54.8499 44.8869 55.3616C44.7885 55.8143 44.3947 56.0898 43.9616 56.0898Z" fill="#0047AC"/>
<path d="M44.5128 62.6829C44.3553 62.6829 44.1781 62.6435 44.0206 62.5451C41.8551 61.3052 36.1854 61.2462 33.3899 62.427C32.8978 62.6238 32.3072 62.4073 32.1103 61.8956C31.8938 61.4036 32.13 60.8132 32.6418 60.5967C36.0476 59.16 42.2685 59.2781 45.0049 60.8329C45.4774 61.1084 45.6349 61.6988 45.379 62.1712C45.2018 62.5057 44.8671 62.6829 44.5128 62.6829Z" fill="#0047AC"/>
<path d="M61.896 44.1435C61.4039 43.6514 61.3645 42.9036 61.7779 42.3525C63.2544 40.345 62.9985 37.0583 61.4629 35.2083C61.0692 34.736 60.9511 34.0865 61.207 33.5354C62.4669 30.7211 60.6164 29.0482 59.4943 28.3397C59.1202 28.1036 59.0218 27.6115 59.258 27.2376C59.7305 26.47 60.2817 25.0333 59.8486 22.9865C59.4352 20.9397 58.254 19.7982 57.1122 19.3455C56.4625 19.0897 56.0097 18.4403 56.1475 17.7711C56.3444 16.8461 56.3838 15.9014 56.1278 15.0158C55.7538 13.6578 54.612 12.4769 53.2143 12.3589C51.915 12.2605 50.6944 13.1264 49.9857 14.2089C49.277 15.311 49.0013 16.6099 48.7454 17.8892C47.4855 24.3248 46.7571 30.8392 46.0287 37.3339C43.312 33.0631 33.764 33.5552 30.7914 37.3339C30.063 30.8195 29.3346 24.3051 28.0746 17.8892C27.8187 16.6099 27.5431 15.311 26.8344 14.2089C26.1257 13.1067 24.9051 12.2605 23.6058 12.3589C22.2081 12.4573 21.0662 13.6578 20.6922 15.0158C20.4363 15.9211 20.4757 16.8658 20.6725 17.7711C20.83 18.4599 20.3772 19.0897 19.7079 19.3455C18.5661 19.7982 17.4046 20.92 16.9715 22.9865C16.5581 25.0333 17.1093 26.4504 17.5621 27.2376C17.7983 27.6115 17.6999 28.1036 17.3258 28.3397C16.2037 29.0482 14.3532 30.7211 15.6131 33.5354C15.869 34.0865 15.7509 34.736 15.3572 35.2083C13.8216 37.0583 13.5657 40.345 15.0422 42.3525C15.4556 42.9232 15.4359 43.6514 14.9241 44.1435C13.9791 45.0881 13.0342 46.702 13.3689 49.0637C13.8414 52.2913 17.3849 52.8621 17.4636 53.3148C17.4833 53.4722 17.6802 57.6642 22.6412 58.1956C26.1454 58.5696 28.5471 54.6137 28.685 52.2717C31.7757 52.8227 36.087 52.1142 38.3707 48.6897C40.6543 52.1142 44.9853 52.8227 48.0564 52.2717C48.1942 54.6137 50.5763 58.5696 54.1001 58.1956C59.0611 57.6642 59.258 53.4919 59.2777 53.3148C59.3367 52.8621 62.9 52.2913 63.3725 49.0637C63.7859 46.702 62.841 45.0685 61.896 44.1435Z" fill="url(#paint2_linear)"/>
<path d="M31.7168 39.8727C31.6184 39.8727 31.5003 39.8334 31.4215 39.7743C31.205 39.6169 31.1656 39.302 31.3231 39.0855C32.5437 37.4717 35.2013 36.4483 38.2724 36.3695C41.56 36.2515 44.3948 37.2946 45.8713 39.0659C46.0485 39.2823 46.0091 39.5775 45.8122 39.7546C45.6154 39.9318 45.3004 39.9121 45.1232 39.6956C43.8633 38.1802 41.2647 37.2945 38.3117 37.3536C35.536 37.4126 33.1736 38.318 32.1302 39.676C32.0121 39.8137 31.8546 39.8727 31.7168 39.8727Z" fill="white"/>
<path d="M54.6907 18.6174C54.671 18.6174 54.6316 18.6174 54.6119 18.6174C54.3363 18.5781 54.1592 18.3222 54.1986 18.0467C54.3167 17.2398 54.3364 16.1179 53.7064 15.3307C53.4111 14.9765 52.9386 14.7207 52.4662 14.701C52.2102 14.6813 51.8559 14.7206 51.5803 14.9962C51.3834 15.193 51.0685 15.193 50.8913 14.9962C50.6944 14.7994 50.6944 14.4845 50.8913 14.3073C51.3047 13.894 51.8756 13.7169 52.5252 13.7366C53.293 13.7759 54.0213 14.1499 54.4741 14.7403C55.3206 15.8031 55.3206 17.2201 55.1632 18.2238C55.1238 18.4403 54.9269 18.6174 54.6907 18.6174Z" fill="white"/>
<path d="M25.9289 18.8142C25.9092 18.8142 25.8699 18.8142 25.8502 18.8142C25.5746 18.7748 25.3973 18.519 25.4367 18.2434C25.5548 17.4365 25.5745 16.3147 24.9445 15.5275C24.6492 15.1732 24.1768 14.9174 23.7043 14.8978C23.4287 14.8781 23.094 14.9174 22.8184 15.193C22.6215 15.3898 22.3065 15.3898 22.1293 15.193C21.9325 14.9961 21.9325 14.6812 22.1293 14.5041C22.5428 14.0908 23.1137 13.8743 23.7634 13.9334C24.5312 13.9727 25.2596 14.3467 25.7124 14.9371C26.5589 15.9999 26.5589 17.4168 26.4014 18.4206C26.3817 18.6371 26.1651 18.8142 25.9289 18.8142Z" fill="white"/>
<defs>
<linearGradient id="paint0_linear" x1="76" y1="-2.26498e-06" x2="-6.79493e-06" y2="76" gradientUnits="userSpaceOnUse">
<stop stop-color="#D5F5E2"/>
<stop offset="1" stop-color="#D7F7FC"/>
</linearGradient>
<linearGradient id="paint1_linear" x1="113.959" y1="95.6625" x2="4.10541" y2="9.95204" gradientUnits="userSpaceOnUse">
<stop offset="0.1812" stop-color="#00ACED"/>
<stop offset="0.9964" stop-color="#A3F3FF"/>
</linearGradient>
<linearGradient id="paint2_linear" x1="60.6402" y1="7.12158" x2="-18.3001" y2="114.05" gradientUnits="userSpaceOnUse">
<stop stop-color="#FF3C8A"/>
<stop offset="0.9988" stop-color="#FDB2D1"/>
</linearGradient>
</defs>
</svg>
