<svg width="76" height="76" viewBox="0 0 76 76" fill="none" xmlns="http://www.w3.org/2000/svg">
<rect width="76" height="76" rx="38" fill="url(#paint0_linear)"/>
<path d="M43.586 44.3838C43.586 36.0238 36.7841 29.2218 28.4431 29.2218C20.0831 29.2218 13.3 36.0238 13.3 44.3838C13.3 51.6798 18.487 57.7788 25.365 59.2228V63.0038H21.4511V69.1788H25.365V73.4728H31.54V69.1788H35.4351V63.0038H31.54V59.2228C38.399 57.7978 43.586 51.6798 43.586 44.3838ZM19.456 44.3838C19.456 39.4438 23.484 35.4158 28.424 35.4158C33.364 35.4158 37.392 39.4438 37.392 44.3838C37.392 49.3238 33.364 53.3518 28.424 53.3518C23.484 53.3518 19.456 49.3428 19.456 44.3838Z" fill="url(#paint1_linear)"/>
<path d="M34.6756 66.8798H33.9156V64.6948H31.7686V63.9158H34.6756V66.8798Z" fill="white"/>
<path d="M47.994 9.53801V15.713H52.592L48.241 20.064C46.056 18.829 43.529 18.107 40.831 18.107C32.471 18.107 25.688 24.909 25.688 33.25C25.688 41.61 32.49 48.412 40.831 48.412C49.172 48.412 55.974 41.61 55.974 33.25C55.974 29.83 54.815 26.676 52.896 24.13L57.247 19.779V24.263H63.422V9.5H47.994V9.53801ZM40.812 42.237C35.872 42.237 31.844 38.209 31.844 33.269C31.844 28.329 35.872 24.301 40.812 24.301C45.752 24.301 49.78 28.329 49.78 33.269C49.78 38.228 45.752 42.237 40.812 42.237Z" fill="url(#paint2_linear)"/>
<path d="M61.9213 13.946H61.1423V11.97H51.6233V11.191H61.9213V13.946Z" fill="white"/>
<path d="M28.937 27.1509C29.222 27.1699 29.507 27.1699 29.773 27.2079C31.92 23.3129 36.062 20.6719 40.793 20.6719V19.8929C35.644 19.9119 31.16 22.8569 28.937 27.1509Z" fill="white"/>
<path d="M22.1162 36.4228C22.3252 36.8028 22.4772 37.2018 22.5912 37.6198C24.1682 36.2708 26.1822 35.4158 28.4242 35.4158C31.0272 35.4158 33.3642 36.5558 34.9982 38.3228C35.1122 38.0568 35.2452 37.7908 35.3972 37.5438C35.8912 36.8978 36.3852 36.2708 36.8792 35.6248C37.6012 34.9028 38.4372 34.3328 39.3112 33.8768C36.5562 31.0268 32.6992 29.2408 28.4242 29.2408C24.9092 29.2408 21.6602 30.4568 19.0952 32.4898C19.4562 32.7558 19.8362 33.0408 20.1592 33.3828C21.0712 34.2378 21.7362 35.2448 22.1162 36.4228Z" fill="url(#paint3_linear)"/>
<path d="M15.2002 44.3839H14.4402C14.4402 37.0119 20.4252 31.0269 27.7972 31.0269V31.8059C20.8432 31.8059 15.2002 37.4489 15.2002 44.3839Z" fill="white"/>
<defs>
<linearGradient id="paint0_linear" x1="69.0594" y1="7.54933" x2="4.2205" y2="70.8172" gradientUnits="userSpaceOnUse">
<stop stop-color="#EEF3FF"/>
<stop offset="1" stop-color="#D7F7FC"/>
</linearGradient>
<linearGradient id="paint1_linear" x1="13.2729" y1="51.3629" x2="43.5777" y2="51.3629" gradientUnits="userSpaceOnUse">
<stop stop-color="#FF3C8A"/>
<stop offset="0.9988" stop-color="#FDB2D1"/>
</linearGradient>
<linearGradient id="paint2_linear" x1="25.6526" y1="28.978" x2="63.4022" y2="28.978" gradientUnits="userSpaceOnUse">
<stop offset="0.0524" stop-color="#0069C2"/>
<stop offset="1" stop-color="#06A0E3"/>
</linearGradient>
<linearGradient id="paint3_linear" x1="13.273" y1="33.7837" x2="43.5779" y2="33.7837" gradientUnits="userSpaceOnUse">
<stop stop-color="#FF3C8A"/>
<stop offset="0.9988" stop-color="#FDB2D1"/>
</linearGradient>
</defs>
</svg>
