<svg width="76" height="76" viewBox="0 0 76 76" fill="none" xmlns="http://www.w3.org/2000/svg">
<g clip-path="url(#clip0)">
<rect width="76" height="76" rx="38" fill="url(#paint0_linear)"/>
<path d="M52.1359 8.70735C45.5809 5.70535 43.1299 9.99934 40.1469 8.53634C36.5939 6.78834 37.7719 -0.735655 37.7719 -0.735655C37.7719 -0.735655 37.4679 -1.79965 35.5299 -1.89465C33.5919 -1.98965 33.0789 -0.792655 33.0789 -0.792655C33.0789 -0.792655 30.8559 3.82435 35.6059 12.3173C41.2109 22.3303 37.7339 29.7023 33.4779 31.8113C29.4499 33.8253 26.9799 30.6903 21.6789 33.8443C19.7599 34.9843 18.1829 37.8913 18.4109 40.6653C18.4679 41.3303 19.2849 43.8003 20.6149 43.9903C22.1919 44.2183 21.9639 40.9883 22.2869 40.8363C22.2489 39.2213 22.6479 38.1193 24.4149 37.7773C28.3859 36.9793 28.2529 42.6413 38.7219 43.7813C51.5659 45.1873 59.7739 35.0223 60.3629 24.4393C60.7239 17.6183 57.4369 11.1583 52.1359 8.70735Z" fill="url(#paint1_linear)"/>
<path d="M31.8249 78.0574L27.0749 76.9934V69.6404C27.0749 66.2394 29.9439 63.4844 33.4779 63.4844H46.8349C47.1389 63.4844 47.3669 63.2944 47.3669 63.1234C47.3669 62.9904 47.1389 62.8194 46.8349 62.8194H16.6439C13.7559 62.8194 11.3999 60.5394 11.3999 57.7464C11.3999 54.9534 13.7559 52.6734 16.6439 52.6734H57.4749C57.7789 52.6734 57.9499 52.4834 57.9499 52.3694C57.9119 52.0654 57.7789 52.0654 57.4749 52.0654H24.2249C21.0139 52.0654 18.3919 49.5384 18.3919 46.4414V40.0954L22.2679 40.8174L22.3249 46.4224C22.3249 46.8974 22.8189 47.2964 23.4079 47.2964H57.4749C61.1609 47.2964 62.6239 50.2604 62.6999 52.2554C62.6999 55.1434 60.3629 57.4044 57.4749 57.4044H16.6439C16.3399 57.4044 16.1499 57.5944 16.1499 57.7274C16.1499 57.8604 16.3399 58.0504 16.6439 58.0504H46.8159C49.7229 58.0504 52.0979 60.3114 52.0979 63.1044C52.0979 65.9164 49.7229 68.2154 46.8159 68.2154H33.4589C32.5469 68.2154 31.8059 68.8424 31.8059 69.6214V78.0574H31.8249Z" fill="url(#paint2_linear)"/>
<path d="M57.4559 18.4163C56.6009 15.3953 53.6749 10.2083 47.9939 9.90429L48.0319 9.14429C54.1309 9.46729 57.2849 14.9963 58.1779 18.2073L57.4559 18.4163Z" fill="white"/>
<path d="M41.268 24.1163C41.268 24.1163 40.337 29.3793 37.354 31.9253C35.093 34.1293 31.559 34.3573 29.868 34.3193C29.754 34.3193 29.564 34.3003 29.545 34.3003C28.785 34.3003 28.158 34.9273 28.158 35.6873C28.158 35.9533 28.196 36.3333 28.462 36.5993C29.83 37.8913 33.858 40.9503 39.349 41.5393C49.666 42.6793 58.254 33.2933 58.254 24.0973C58.254 24.0973 41.268 24.1163 41.268 24.1163Z" fill="url(#paint3_linear)"/>
</g>
<defs>
<linearGradient id="paint0_linear" x1="7.46428" y1="76" x2="76" y2="1.53189e-06" gradientUnits="userSpaceOnUse">
<stop stop-color="#FDEEF6"/>
<stop offset="1" stop-color="#EEF3FF"/>
</linearGradient>
<linearGradient id="paint1_linear" x1="25.9336" y1="64.5335" x2="64.2803" y2="-29.7858" gradientUnits="userSpaceOnUse">
<stop offset="0.2511" stop-color="#0069C2"/>
<stop offset="0.7136" stop-color="#06A0E3"/>
</linearGradient>
<linearGradient id="paint2_linear" x1="11.4018" y1="59.0743" x2="62.7092" y2="59.0743" gradientUnits="userSpaceOnUse">
<stop offset="0.2511" stop-color="#0069C2"/>
<stop offset="0.7136" stop-color="#06A0E3"/>
</linearGradient>
<linearGradient id="paint3_linear" x1="32.7742" y1="56.9555" x2="61.7161" y2="-14.2314" gradientUnits="userSpaceOnUse">
<stop stop-color="#00ACED"/>
<stop offset="0.0128" stop-color="#07AEED"/>
<stop offset="0.1411" stop-color="#48C3F2"/>
<stop offset="0.2676" stop-color="#80D5F6"/>
<stop offset="0.389" stop-color="#ADE4F9"/>
<stop offset="0.5045" stop-color="#D1F0FC"/>
<stop offset="0.6125" stop-color="#EAF8FE"/>
<stop offset="0.7101" stop-color="#FAFDFF"/>
<stop offset="0.7882" stop-color="white"/>
</linearGradient>
<clipPath id="clip0">
<rect width="76" height="76" rx="38" fill="white"/>
</clipPath>
</defs>
</svg>
