<svg width="76" height="76" viewBox="0 0 76 76" fill="none" xmlns="http://www.w3.org/2000/svg">
<g clip-path="url(#clip0)">
<rect width="76" height="76" rx="38" fill="url(#paint0_linear)"/>
<path d="M23.9592 55.8463C23.8452 56.6253 23.1992 60.1973 22.6862 62.7623C21.3752 63.9213 16.8722 67.2273 12.0652 69.8683C18.8292 76.3663 27.9682 80.3943 38.0762 80.4323C47.1392 80.4703 55.4802 77.3163 62.0162 72.0153C55.6892 69.3363 48.3362 63.9783 46.8732 62.6293C46.1322 61.9263 45.9612 60.7103 45.9992 59.5513C46.1512 58.7913 46.2842 58.1833 46.3602 57.9173C46.5312 57.2903 47.0442 56.8913 47.7472 56.9103C48.5642 56.9293 49.3812 57.0433 50.1982 57.1573C52.0982 57.4613 53.9792 57.7273 55.9172 57.5943C56.5252 57.5563 57.1522 57.4233 57.7222 57.1953C59.0712 56.6443 59.8692 55.5613 59.3752 53.7373C59.2042 53.2053 58.9002 52.7303 58.6342 52.2553C58.4062 51.8373 58.4822 51.4953 58.7862 51.1913C59.0712 50.8873 59.3942 50.6023 59.6982 50.3173C60.0782 49.9563 60.2492 49.5383 60.0402 49.0443C59.9452 48.8163 59.7552 48.6263 59.5842 48.3983C59.6602 48.3603 59.7362 48.3413 59.7932 48.3033C60.5532 48.0183 60.8002 47.1443 60.3442 46.4793C59.6602 45.4913 60.0402 44.6173 61.2372 44.2563C61.7312 44.1233 62.2442 44.0283 62.7192 43.8573C63.4222 43.6293 63.8022 42.9833 63.5742 42.2233C63.3082 41.7293 63.0802 41.1973 62.7952 40.7223C61.6362 38.7653 60.4962 36.7893 59.2992 34.8513C58.9762 34.3193 59.1852 33.8823 59.3562 33.3883C59.5652 32.8183 59.8122 32.2293 59.9072 31.6403C59.9832 31.1843 59.8692 30.6903 59.8122 30.2153C59.6982 29.2273 59.6032 28.2203 59.4322 27.2513C59.2612 26.2063 59.0522 25.1613 58.7672 24.1353C58.4632 23.1283 58.1592 22.1023 57.6652 21.1903C55.1572 16.5923 48.2792 11.4433 38.3232 11.6903C24.8712 12.0133 17.9362 22.6343 18.1832 31.4503C18.4112 40.2663 22.9332 43.7053 23.7882 45.3773C24.6242 47.0113 24.8712 48.7403 24.6812 50.5453C24.5482 51.7993 24.1302 54.5543 23.9592 55.8463Z" fill="url(#paint1_linear)"/>
<path d="M54.91 27.0043C55.556 23.7363 55.841 21.3233 52.022 19.9173C51.148 16.7633 47.861 15.5473 45.695 16.4403C45.714 16.4973 42.94 16.8773 42.503 19.6133C42.37 20.4493 42.617 21.5513 43.7 21.8553C43.947 21.9313 44.099 22.1973 44.023 22.4443C43.966 22.6533 43.776 22.7863 43.567 22.7863C43.529 22.7863 43.472 22.7863 43.434 22.7673C42.085 22.3683 41.344 21.0573 41.572 19.4803C41.8 17.9223 42.978 16.2883 45.049 16.1553C41.249 13.2863 37.677 13.9133 35.758 16.3643C31.464 15.1863 28.12 17.0673 27.132 19.6703C27.151 19.6703 29.127 19.1003 31.274 19.7273C31.825 19.8983 32.3 20.0883 32.718 20.3353C33.801 20.9813 34.561 22.1403 34.827 23.5083C34.941 24.1543 34.941 24.8003 34.808 25.4273C35.15 25.2563 35.492 25.1233 35.853 25.0283C36.974 24.7433 38.171 24.8763 39.235 25.3513C39.482 25.4653 39.577 25.7503 39.463 25.9783C39.349 26.2253 39.064 26.3203 38.836 26.2063C37.981 25.8073 36.993 25.7123 36.081 25.9403C35.321 26.1303 34.618 26.5483 34.086 27.0993C34.067 27.1373 33.535 27.6313 33.402 27.6313C33.307 27.6313 33.193 27.5933 33.117 27.5363C32.908 27.3843 32.87 27.0803 33.041 26.8713C33.136 26.7573 33.25 26.6433 33.345 26.5293C33.896 25.7503 34.105 24.7243 33.896 23.6793C33.687 22.5773 33.079 21.6653 32.224 21.1333C31.882 20.9243 31.483 20.7533 31.008 20.6203C29.754 20.2593 26.543 19.9173 25.251 20.6773C21.66 22.7293 19.722 28.6383 22.325 32.3813C22.762 31.3743 23.503 30.4623 24.491 29.8923C26.201 28.9043 28.5 28.9043 30.362 29.8923C30.552 29.9873 30.818 30.3673 30.609 30.6713C30.4 30.9753 29.735 30.7093 29.716 30.6333C28.177 29.9113 26.315 29.9303 24.966 30.7283C23.446 31.6023 22.553 32.9703 22.496 35.5733C22.781 38.2143 24.187 40.1143 27.132 41.0073C26.828 42.2993 26.714 43.9713 26.676 45.4153C26.657 46.5933 28.101 47.1633 28.88 46.2893L33.516 41.1783C33.516 41.1783 37.088 42.1853 38.152 39.7153C36.708 39.3543 35.359 37.5493 35.207 36.3143C35.169 36.0483 35.359 35.8203 35.625 35.7823C35.91 35.7443 36.119 35.9343 36.157 36.2003C36.271 37.1123 37.373 38.5563 38.38 38.8033C38.456 38.8223 38.513 38.8983 38.57 38.9553C40.812 39.8863 44.935 39.4683 46.417 36.9793C44.707 36.2573 43.415 34.4333 43.111 32.2103C42.94 30.9753 43.073 29.8733 43.491 28.9423C44.004 27.8023 44.973 26.9853 46.075 26.7573C46.341 26.7003 46.588 26.8713 46.645 27.1183C46.702 27.3843 46.531 27.6313 46.284 27.6883C45.486 27.8593 44.764 28.4863 44.365 29.3413C44.023 30.1013 43.909 31.0513 44.061 32.0773C44.289 33.7303 44.84 35.4403 47.367 36.6753C48.887 36.6753 52.44 36.5613 54.587 34.4903C56.544 32.5713 56.772 29.0753 54.91 27.0043Z" fill="url(#paint2_linear)"/>
</g>
<defs>
<linearGradient id="paint0_linear" x1="7.46428" y1="76" x2="76" y2="1.53189e-06" gradientUnits="userSpaceOnUse">
<stop stop-color="#FDEEF6"/>
<stop offset="1" stop-color="#EEF3FF"/>
</linearGradient>
<linearGradient id="paint1_linear" x1="12.0412" y1="46.0444" x2="63.6747" y2="46.0444" gradientUnits="userSpaceOnUse">
<stop stop-color="#0069C2"/>
<stop offset="0.3776" stop-color="#0384D2"/>
<stop offset="0.7502" stop-color="#0599DF"/>
<stop offset="1" stop-color="#06A0E3"/>
</linearGradient>
<linearGradient id="paint2_linear" x1="22.2978" y1="61.5659" x2="61.9734" y2="-17.4548" gradientUnits="userSpaceOnUse">
<stop stop-color="#00ACED"/>
<stop offset="0.0128" stop-color="#07AEED"/>
<stop offset="0.1411" stop-color="#48C3F2"/>
<stop offset="0.2676" stop-color="#80D5F6"/>
<stop offset="0.389" stop-color="#ADE4F9"/>
<stop offset="0.5045" stop-color="#D1F0FC"/>
<stop offset="0.6125" stop-color="#EAF8FE"/>
<stop offset="0.7101" stop-color="#FAFDFF"/>
<stop offset="0.7882" stop-color="white"/>
</linearGradient>
<clipPath id="clip0">
<rect width="76" height="76" rx="38" fill="white"/>
</clipPath>
</defs>
</svg>
