<svg width="76" height="76" viewBox="0 0 76 76" fill="none" xmlns="http://www.w3.org/2000/svg">
<g clip-path="url(#clip0)">
<rect width="76" height="76" rx="38" fill="url(#paint0_linear)"/>
<path d="M55.4609 28.88C54.4729 19 46.2839 11.951 37.5249 11.951C28.7659 11.951 20.8809 19.114 23.0659 27.645C23.9969 31.274 24.6239 32.11 25.1369 34.219C25.5929 36.043 22.5529 38.399 22.5719 42.484C22.6099 50.654 20.8999 50.654 20.8999 56.62C20.8999 62.586 24.1869 67.184 30.8939 67.659C34.5989 67.925 40.1659 66.595 44.5929 57.665C51.3949 52.022 56.9619 43.814 55.4609 28.88Z" fill="url(#paint1_linear)"/>
<path d="M53.5039 29.697C52.9719 20.406 45.9609 13.452 37.0879 13.528V12.768C37.1449 12.768 37.2019 12.768 37.2589 12.768C46.4169 12.768 53.7129 19.988 54.2639 29.659L53.5039 29.697Z" fill="white"/>
<path d="M35.2829 34.96C35.2829 34.96 29.5259 31.616 28.9939 25.118C28.4619 18.639 34.0099 13.927 41.1539 16.853C47.1959 19.323 53.5229 29.564 50.8819 40.185C49.6659 45.068 44.9729 50.046 39.4819 52.383C32.4139 55.385 25.3649 52.706 25.6879 50.977C26.1059 48.678 27.8159 47.747 28.7849 45.429C29.7539 43.13 27.7779 40.85 29.0509 38.855C30.3239 36.86 34.9599 40.394 34.9599 40.394L39.2919 42.465L40.6979 39.995L35.2829 34.96Z" fill="url(#paint2_linear)"/>
<path d="M40.3558 39.577C42.4838 37.278 38.7598 32.851 38.1518 32.072C36.3088 29.716 35.4348 28.5 35.6628 25.783C35.3968 24.909 36.4988 22.534 36.1568 20.672C35.8908 19.209 34.6938 17.499 33.0788 16.948C30.3238 18.43 28.7088 21.489 28.9938 25.137C29.5828 32.68 39.4818 37.981 40.3558 39.577Z" fill="url(#paint3_linear)"/>
<path d="M32.5849 53.884C36.0619 49.742 44.2319 46.379 39.0069 42.104C38.6269 41.914 32.8509 38.95 32.4329 38.779C30.9699 38.133 29.4499 37.772 28.8799 38.684C27.6069 40.679 29.7539 43.13 28.7849 45.429C27.8159 47.728 24.9659 49.039 25.2509 51.49C25.4409 53.067 28.1389 54.15 32.5849 53.884Z" fill="url(#paint4_linear)"/>
<path d="M37.7527 7.78999C37.7337 7.78999 37.7337 7.78999 37.7527 7.78999C37.2207 7.78999 36.8027 7.35297 36.8027 6.82097L36.9357 -0.969014C36.9357 -1.50101 37.3917 -1.86202 37.9047 -1.90002C38.4367 -1.90002 38.8547 -1.46303 38.8357 -0.931035L38.7027 6.85898C38.6837 7.39098 38.2657 7.78999 37.7527 7.78999Z" fill="#0047AC"/>
<path d="M53.1808 14.193C53.0098 14.193 52.8198 14.136 52.6678 14.041C52.2308 13.756 52.0978 13.167 52.3828 12.73L58.4818 3.24897C58.7668 2.81197 59.3558 2.67895 59.7928 2.96395C60.2298 3.24895 60.3628 3.83796 60.0778 4.27496L53.9788 13.756C53.7888 14.041 53.4848 14.193 53.1808 14.193Z" fill="#0047AC"/>
<path d="M61.5979 27.873C61.1609 27.873 60.7809 27.588 60.6669 27.151C60.5529 26.638 60.8569 26.125 61.3699 26.011L72.9789 23.256C73.4729 23.123 74.0049 23.446 74.1189 23.959C74.2329 24.472 73.9289 24.985 73.4159 25.099L61.8069 27.854C61.7499 27.854 61.6739 27.873 61.5979 27.873Z" fill="#0047AC"/>
<path d="M65.7207 46.873C65.6447 46.873 65.5687 46.873 65.5117 46.854L59.1278 45.372C58.6148 45.258 58.2918 44.745 58.4248 44.232C58.5578 43.719 59.0517 43.396 59.5647 43.529L65.9487 45.011C66.4617 45.125 66.7847 45.638 66.6517 46.151C66.5377 46.588 66.1577 46.873 65.7207 46.873Z" fill="#0047AC"/>
<path d="M30.3805 66.4431C28.2905 66.4431 26.3525 65.4741 24.7565 63.6501C22.6285 61.1991 21.6405 57.684 21.9445 55.86L22.6855 55.9741C22.4195 57.6461 23.4075 60.9331 25.3265 63.1561C26.3525 64.3341 28.0815 65.7591 30.4755 65.6831L30.4945 66.4431C30.4755 66.4431 30.4185 66.4431 30.3805 66.4431Z" fill="white"/>
</g>
<defs>
<linearGradient id="paint0_linear" x1="76" y1="-2.26498e-06" x2="-6.79493e-06" y2="76" gradientUnits="userSpaceOnUse">
<stop stop-color="#D5F5E2"/>
<stop offset="1" stop-color="#D7F7FC"/>
</linearGradient>
<linearGradient id="paint1_linear" x1="2.52139" y1="97.6743" x2="63.9021" y2="-11.9474" gradientUnits="userSpaceOnUse">
<stop offset="0.1812" stop-color="#00ACED"/>
<stop offset="0.6898" stop-color="#A3F3FF"/>
<stop offset="0.9808" stop-color="white"/>
</linearGradient>
<linearGradient id="paint2_linear" x1="17.7834" y1="26.311" x2="52.1399" y2="43.9348" gradientUnits="userSpaceOnUse">
<stop offset="0.1812" stop-color="#00ACED"/>
<stop offset="0.9964" stop-color="#A3F3FF"/>
</linearGradient>
<linearGradient id="paint3_linear" x1="23.8393" y1="54.2062" x2="34.9741" y2="30.3459" gradientUnits="userSpaceOnUse">
<stop offset="0.0524" stop-color="#0069C2"/>
<stop offset="1" stop-color="#06A0E3"/>
</linearGradient>
<linearGradient id="paint4_linear" x1="28.1841" y1="56.2436" x2="39.3644" y2="32.2858" gradientUnits="userSpaceOnUse">
<stop offset="0.0524" stop-color="#0069C2"/>
<stop offset="1" stop-color="#06A0E3"/>
</linearGradient>
<clipPath id="clip0">
<rect width="76" height="76" rx="38" fill="white"/>
</clipPath>
</defs>
</svg>
