<svg width="76" height="76" viewBox="0 0 76 76" fill="none" xmlns="http://www.w3.org/2000/svg">
<rect width="76" height="76" rx="38" fill="url(#paint0_linear)"/>
<path d="M54.1234 44.3822C55.9858 40.0314 57.8483 32.2607 52.565 23.5781C49.2772 17.3463 43.2717 7.52371 38.6155 0.076006C37.4373 9.01708e-06 36.24 -0.0190024 35.0238 0.0189961C24.0011 0.41798 14.2707 5.50978 7.6001 13.2805C13.4155 19.2082 25.0843 31.0448 33.9214 35.6806C31.2418 44.3822 29.7784 43.0333 29.3793 54.5088C29.1133 61.9565 31.9639 74.781 32.23 75.845C33.7504 75.978 36.24 76.035 37.7984 75.978C42.0554 75.826 46.0844 74.952 49.8664 73.5271C50.5125 67.1433 52.565 47.9921 54.1234 44.3822Z" fill="url(#paint1_linear)"/>
<path d="M38.0832 14.5535C33.7122 10.1267 29.6261 5.83288 25.4451 1.61505C23.5826 2.18503 21.7773 2.888 20.0479 3.72397C27.7257 12.7106 37.7792 24.3951 38.3683 27.245C38.7294 28.9929 38.3873 31.0639 36.8669 31.9758C37.0189 34.1987 39.2614 37.5996 44.4307 37.5426C48.4597 37.5046 50.2652 34.8067 50.3032 31.5388C50.3602 26.0861 40.1737 16.6814 38.0832 14.5535Z" fill="url(#paint2_linear)"/>
<path d="M48.7829 39.2714C47.4716 38.0175 45.8372 39.9364 41.4851 38.8724C40.1357 38.5495 38.9765 37.5235 37.6462 37.9035C36.734 38.1505 36.0498 39.1004 36.1068 40.0504C36.1638 41.0004 36.943 41.8553 37.8743 42.0073C37.2661 42.2163 37.1521 43.6413 37.1521 43.6413C37.1521 43.6413 37.8932 69.5562 38.2543 75.959C38.9194 75.921 39.5656 75.864 40.2118 75.807C40.2308 75.807 39.8317 50.158 39.8317 50.158C39.8317 50.158 39.9267 48.809 40.82 48.809C41.9602 48.809 42.0173 50.177 42.0173 50.177C42.0173 50.177 42.1883 66.5164 42.3213 75.522C44.0507 75.237 45.7232 74.876 47.3576 74.363C47.9087 68.1123 49.201 43.8122 49.201 43.8122C49.201 43.8122 49.6381 40.0694 48.7829 39.2714Z" fill="url(#paint3_linear)"/>
<path d="M50.2085 36.8015C50.3605 37.2005 52.2799 34.4076 51.5768 30.6078C52.8121 31.8807 54.0474 33.6097 54.0094 36.4025C53.9714 40.3734 50.7217 42.3683 50.8357 42.0643C52.014 38.6635 50.2085 36.8015 50.2085 36.8015Z" fill="url(#paint4_linear)"/>
<defs>
<linearGradient id="paint0_linear" x1="7.46428" y1="76" x2="76" y2="1.53189e-06" gradientUnits="userSpaceOnUse">
<stop stop-color="#FDEEF6"/>
<stop offset="1" stop-color="#EEF3FF"/>
</linearGradient>
<linearGradient id="paint1_linear" x1="7.6039" y1="37.9905" x2="56.0261" y2="37.9905" gradientUnits="userSpaceOnUse">
<stop stop-color="#0069C2"/>
<stop offset="0.3776" stop-color="#0384D2"/>
<stop offset="0.7502" stop-color="#0599DF"/>
<stop offset="1" stop-color="#06A0E3"/>
</linearGradient>
<linearGradient id="paint2_linear" x1="21.3981" y1="-0.575369" x2="56.4248" y2="49.477" gradientUnits="userSpaceOnUse">
<stop stop-color="#00ACED"/>
<stop offset="0.0128" stop-color="#07AEED"/>
<stop offset="0.1411" stop-color="#48C3F2"/>
<stop offset="0.2676" stop-color="#80D5F6"/>
<stop offset="0.389" stop-color="#ADE4F9"/>
<stop offset="0.5045" stop-color="#D1F0FC"/>
<stop offset="0.6125" stop-color="#EAF8FE"/>
<stop offset="0.7101" stop-color="#FAFDFF"/>
<stop offset="0.7882" stop-color="white"/>
</linearGradient>
<linearGradient id="paint3_linear" x1="40.2354" y1="80.3142" x2="44.4103" y2="17.4106" gradientUnits="userSpaceOnUse">
<stop stop-color="#00ACED"/>
<stop offset="0.0128" stop-color="#07AEED"/>
<stop offset="0.1411" stop-color="#48C3F2"/>
<stop offset="0.2676" stop-color="#80D5F6"/>
<stop offset="0.389" stop-color="#ADE4F9"/>
<stop offset="0.5045" stop-color="#D1F0FC"/>
<stop offset="0.6125" stop-color="#EAF8FE"/>
<stop offset="0.7101" stop-color="#FAFDFF"/>
<stop offset="0.7882" stop-color="white"/>
</linearGradient>
<linearGradient id="paint4_linear" x1="50.2049" y1="36.3495" x2="54.0064" y2="36.3495" gradientUnits="userSpaceOnUse">
<stop stop-color="#00ACED"/>
<stop offset="0.0128" stop-color="#07AEED"/>
<stop offset="0.1411" stop-color="#48C3F2"/>
<stop offset="0.2676" stop-color="#80D5F6"/>
<stop offset="0.389" stop-color="#ADE4F9"/>
<stop offset="0.5045" stop-color="#D1F0FC"/>
<stop offset="0.6125" stop-color="#EAF8FE"/>
<stop offset="0.7101" stop-color="#FAFDFF"/>
<stop offset="0.7882" stop-color="white"/>
</linearGradient>
</defs>
</svg>
