<svg width="76" height="76" viewBox="0 0 76 76" fill="none" xmlns="http://www.w3.org/2000/svg">
<rect width="76" height="76" rx="38" fill="url(#paint0_linear)"/>
<path d="M60.7721 7.03355C51.9181 6.21655 29.6121 4.56353 26.9331 6.90053C22.8291 9.94053 23.7411 14.1395 22.5061 21.0935C21.5941 26.2805 17.9272 41.5375 17.9272 41.5375C17.9272 41.5375 14.8301 52.9945 14.0701 54.1915C13.2911 55.3695 10.6691 55.8255 10.6691 55.8255C10.6691 55.8255 9.75714 57.5735 12.3031 58.0675C14.8491 58.5615 16.3691 58.6945 17.9461 55.8635C19.5231 53.0325 21.4801 51.7975 24.0071 51.0755C25.9261 50.5245 26.8761 48.4535 26.8381 47.5985C26.7241 44.9765 24.0641 44.1025 24.2351 42.4875C24.2351 42.4685 30.2771 30.5555 31.8731 27.5155C34.2481 23.0125 33.4691 17.7875 33.4691 17.7875C33.4691 17.7875 35.8821 19.7255 42.7601 22.0815C50.8731 24.8745 65.9401 20.2765 71.3741 18.2625C68.6571 13.8165 65.0281 10.0165 60.7721 7.03355Z" fill="url(#paint1_linear)"/>
<path d="M60.6962 7.05243C51.5952 9.63643 28.4722 15.2034 26.9332 18.4714C24.4062 22.9174 26.9332 26.3944 28.6052 33.2534C29.8592 38.3644 32.6332 54.4764 32.6332 54.4764C32.6332 54.4764 34.4382 66.2184 34.2102 67.6054C33.9822 68.9924 31.7592 70.4744 31.7592 70.4744C31.7592 70.4744 31.6262 72.4314 34.1532 71.8804C36.6802 71.3104 38.1242 70.8164 38.4282 67.5864C38.7322 64.3564 39.9862 62.3994 42.0572 60.7464C43.9382 59.2454 43.8812 57.4214 43.3302 56.4144C42.0762 54.1154 39.6252 54.0964 39.1312 52.5574C39.1312 52.5384 40.7082 39.9414 40.9552 36.5024C41.3162 31.4294 36.3952 27.1924 36.3952 27.1924C36.3952 27.1924 35.5592 25.6154 44.3752 26.1284C54.0842 26.6984 67.0042 21.0174 71.6592 18.7754C68.8662 14.1204 65.1042 10.1494 60.6962 7.05243Z" fill="url(#paint2_linear)"/>
<path d="M24.4059 16.1725C24.1779 12.2775 25.6219 9.33247 27.1609 8.15447C28.8709 6.84347 33.3169 6.74848 36.8889 6.67248C37.5729 6.65348 38.2189 6.63448 38.7889 6.61548L38.8269 7.37547C38.2569 7.39447 37.6109 7.41346 36.9269 7.43246C33.6589 7.50846 29.1749 7.60346 27.6549 8.76246C26.3249 9.78846 24.9759 12.5245 25.2039 16.1345L24.4059 16.1725Z" fill="white"/>
<path d="M39.8152 39.5615L39.0742 39.4095C39.5682 37.0535 39.4922 34.7355 38.8272 33.2155C38.1432 31.6385 36.8702 30.2705 35.6542 28.9405L35.4072 28.6745L35.9582 28.1615L36.2052 28.4275C37.4212 29.7385 38.8082 31.2205 39.5302 32.9115C40.2332 34.5645 40.3472 37.0535 39.8152 39.5615Z" fill="white"/>
<defs>
<linearGradient id="paint0_linear" x1="7.46428" y1="76" x2="76" y2="1.53189e-06" gradientUnits="userSpaceOnUse">
<stop stop-color="#FDEEF6"/>
<stop offset="1" stop-color="#EEF3FF"/>
</linearGradient>
<linearGradient id="paint1_linear" x1="10.0292" y1="89.5439" x2="83.2583" y2="-56.3039" gradientUnits="userSpaceOnUse">
<stop offset="0.0524" stop-color="#0069C2"/>
<stop offset="1" stop-color="#06A0E3"/>
</linearGradient>
<linearGradient id="paint2_linear" x1="82.9414" y1="78.5209" x2="-25.2258" y2="-39.7207" gradientUnits="userSpaceOnUse">
<stop offset="0.1396" stop-color="#00ACED"/>
<stop offset="0.1502" stop-color="#07AEED"/>
<stop offset="0.2558" stop-color="#48C3F2"/>
<stop offset="0.3598" stop-color="#80D5F6"/>
<stop offset="0.4597" stop-color="#ADE4F9"/>
<stop offset="0.5547" stop-color="#D1F0FC"/>
<stop offset="0.6436" stop-color="#EAF8FE"/>
<stop offset="0.7239" stop-color="#FAFDFF"/>
<stop offset="0.7882" stop-color="white"/>
</linearGradient>
</defs>
</svg>
