<svg width="76" height="76" viewBox="0 0 76 76" fill="none" xmlns="http://www.w3.org/2000/svg">
<rect width="76" height="76" rx="38" fill="url(#paint0_linear)"/>
<path d="M64.6379 51.756C62.8709 51.433 60.5909 50.844 58.1209 49.875C61.2559 47.595 63.6119 44.27 64.6759 40.527C64.8279 40.014 64.5239 39.501 64.0299 39.349C63.5169 39.197 63.0039 39.501 62.8519 39.995C61.8069 43.681 59.3179 46.949 56.0499 48.963C53.9029 47.937 51.6989 46.569 49.6469 44.802C49.6469 44.783 49.6469 44.783 49.6659 44.764C48.9629 44.194 48.3169 43.567 47.6899 42.94C47.5569 42.807 47.4429 42.693 47.3099 42.541C46.8159 42.009 46.3599 41.458 45.9229 40.888C45.4859 40.318 45.0489 39.71 44.6499 39.083C41.6859 34.599 39.8809 29.222 38.3229 23.598C38.3229 23.579 38.3039 23.56 38.3039 23.56C43.3959 17.423 56.5249 9.12 65.1509 7.676C65.6639 7.581 66.0249 7.10599 65.9299 6.57399C65.8919 6.38399 65.7969 6.23199 65.6639 6.09899C65.6069 6.04199 65.5309 5.985 65.4549 5.928C65.2649 5.814 65.0559 5.75699 64.8279 5.79499C55.0049 7.42899 41.5909 15.599 35.5679 23.959C33.8769 26.315 32.5279 28.899 31.5019 31.597L31.4639 31.578C29.8299 34.485 22.0019 38.684 16.0929 38C9.1579 37.183 4.9779 34.694 1.9949 31.065C1.9189 32.034 1.9189 33.003 1.8999 33.972C2.2229 33.991 4.8829 37.62 10.7159 39.178C8.9869 41.325 7.7709 43.909 7.2959 46.626C7.2009 47.139 7.5619 47.633 8.0749 47.728C8.1319 47.728 8.1889 47.747 8.2459 47.747C8.7019 47.747 9.1009 47.424 9.1769 46.949C9.6519 44.232 10.9439 41.648 12.8249 39.615C13.7749 39.767 14.7819 39.862 15.8649 39.881C16.3589 39.881 16.8529 39.957 17.3659 39.957C21.7549 39.957 26.9039 37.962 30.1909 35.511C30.1909 35.568 30.1719 35.625 30.1909 35.606C29.1459 39.862 28.9179 44.308 29.5829 48.659C30.1909 52.725 31.1599 56.05 32.5849 58.957C32.8509 58.748 33.1549 58.596 33.4589 58.425C34.1999 60.173 35.0929 61.826 36.1379 63.403C33.9149 66.025 32.5849 68.78 31.8629 71.117C32.4899 71.25 33.0979 71.402 33.7439 71.516C34.3329 69.635 35.3969 67.336 37.2969 64.999C39.2729 67.583 41.6479 69.863 44.3459 71.706C45.3149 71.592 46.2649 71.421 47.1959 71.25C41.0969 67.716 36.4039 61.959 34.2759 55.214L33.2119 55.556C32.4519 53.447 31.8819 51.11 31.4829 48.393C30.2859 40.413 32.2429 32.072 36.8599 25.46C38.3419 30.647 40.1659 35.758 43.0539 40.128L43.0349 40.147C47.6329 47.31 54.3969 50.806 59.7359 52.516C59.8119 56.506 61.2369 60.439 63.7069 63.593C64.2009 63.194 64.6949 62.814 65.1699 62.396C63.0799 59.736 61.8259 56.449 61.6359 53.067C62.5859 53.314 63.4789 53.523 64.2769 53.656C66.5189 54.074 68.7229 54.283 70.8889 54.283C71.2879 54.283 71.6679 54.245 72.0479 54.226C72.4469 53.599 72.7889 52.934 73.1499 52.288C70.4139 52.459 67.5449 52.307 64.6379 51.756Z" fill="url(#paint1_linear)"/>
<path d="M37.0121 54.53C38.5131 57.57 38.0191 60.857 35.9291 61.883C33.8391 62.909 30.9321 61.294 29.4311 58.273C27.9301 55.252 28.4241 51.9459 30.5141 50.9199C32.6041 49.8939 35.5111 51.49 37.0121 54.53Z" fill="url(#paint2_linear)"/>
<path d="M50.8629 40.774C52.6679 43.472 52.6299 46.664 50.7679 47.918C48.9059 49.172 45.9419 47.994 44.1179 45.296C42.3129 42.598 42.3509 39.406 44.2129 38.152C46.0749 36.917 49.0579 38.095 50.8629 40.774Z" fill="url(#paint3_linear)"/>
<path d="M19.6843 34.067C22.9143 33.687 25.7263 35.169 26.0113 37.392C26.2963 39.615 23.8833 41.743 20.6723 42.123C17.4613 42.503 14.6303 41.021 14.3453 38.798C14.0603 36.575 16.4543 34.466 19.6843 34.067Z" fill="url(#paint4_linear)"/>
<path d="M48.9064 40.907C48.4124 40.261 47.6524 39.824 46.8544 39.71C46.0564 39.577 45.2014 39.767 44.5364 40.223L44.1184 39.596C44.9544 39.026 45.9994 38.798 46.9874 38.95C47.9754 39.102 48.9064 39.653 49.5144 40.432L48.9064 40.907Z" fill="white"/>
<path d="M23.8261 37.2779C23.3701 36.4989 22.4201 35.9479 21.2802 35.7959C20.1972 35.6439 19.0951 35.8339 18.0121 36.0239L17.8792 35.2829C19.0191 35.0929 20.1781 34.9029 21.3751 35.0549C22.7431 35.2449 23.9021 35.9289 24.4721 36.9169L23.8261 37.2779Z" fill="white"/>
<path d="M34.7131 54.131C34.3521 53.409 33.6681 52.858 32.8891 52.668C32.1101 52.478 31.2361 52.611 30.5711 53.067L30.1531 52.44C31.0081 51.87 32.0911 51.68 33.0791 51.946C34.0671 52.212 34.9411 52.896 35.3971 53.808L34.7131 54.131Z" fill="white"/>
<path d="M52.839 19.285C48.545 22.401 43.244 22.401 41.002 19.285C38.76 16.188 40.432 11.153 44.726 8.03701C49.02 4.92101 54.321 4.92101 56.563 8.03701C58.805 11.153 57.133 16.188 52.839 19.285Z" fill="url(#paint5_linear)"/>
<path d="M46.4172 9.30992L45.9802 8.7019C49.4382 6.1939 53.7512 6.23192 55.5942 8.77792L54.9862 9.21491C53.3712 7.02991 49.5332 7.06792 46.4172 9.30992Z" fill="white"/>
<defs>
<linearGradient id="paint0_linear" x1="76" y1="-2.26498e-06" x2="-6.79493e-06" y2="76" gradientUnits="userSpaceOnUse">
<stop stop-color="#D5F5E2"/>
<stop offset="1" stop-color="#D7F7FC"/>
</linearGradient>
<linearGradient id="paint1_linear" x1="13.7206" y1="-6.36178" x2="77.5252" y2="85.8984" gradientUnits="userSpaceOnUse">
<stop offset="0.2511" stop-color="#0069C2"/>
<stop offset="0.7136" stop-color="#06A0E3"/>
</linearGradient>
<linearGradient id="paint2_linear" x1="29.4085" y1="58.2587" x2="36.9904" y2="54.5185" gradientUnits="userSpaceOnUse">
<stop offset="0.1877" stop-color="#FF0066"/>
<stop offset="0.997" stop-color="#FD77AD"/>
</linearGradient>
<linearGradient id="paint3_linear" x1="44.1302" y1="45.3042" x2="50.8671" y2="40.7811" gradientUnits="userSpaceOnUse">
<stop offset="0.1877" stop-color="#FF0066"/>
<stop offset="0.997" stop-color="#FD77AD"/>
</linearGradient>
<linearGradient id="paint4_linear" x1="20.6477" y1="42.1117" x2="19.6779" y2="34.0551" gradientUnits="userSpaceOnUse">
<stop offset="0.1877" stop-color="#FF0066"/>
<stop offset="0.997" stop-color="#FD77AD"/>
</linearGradient>
<linearGradient id="paint5_linear" x1="44.7093" y1="8.06969" x2="52.8354" y2="19.3076" gradientUnits="userSpaceOnUse">
<stop offset="0.1877" stop-color="#FF0066"/>
<stop offset="0.997" stop-color="#FD77AD"/>
</linearGradient>
</defs>
</svg>
