<svg width="76" height="76" viewBox="0 0 76 76" fill="none" xmlns="http://www.w3.org/2000/svg">
<rect width="76" height="76" rx="38" fill="url(#paint0_linear)"/>
<path d="M57.7627 23.1048C61.0117 20.1408 62.7407 16.4738 62.8927 12.8258C62.8927 12.8258 62.9497 11.4388 61.5817 11.4008C60.2137 11.3628 59.9477 12.7118 59.9477 12.7118C59.8337 15.7138 58.3327 18.7348 55.5397 21.1858C51.8347 18.8108 45.2797 17.8228 39.4087 17.5758C33.5947 17.3288 26.4317 18.4118 22.3657 21.1858C20.1617 18.7348 18.6227 15.8468 17.3307 13.0348C17.3307 13.0348 16.3047 11.5338 15.1077 12.2368C13.9107 12.9398 14.6707 14.2508 14.6707 14.2508C16.1337 17.4428 17.8627 20.5588 20.2187 23.1808C15.7727 33.4408 29.2627 43.8148 37.4137 44.9738V69.2368C37.4137 70.0538 38.0787 70.6998 38.8767 70.6998C39.6937 70.6998 40.3397 70.0348 40.3397 69.2368V44.9738C47.6167 44.3848 61.2967 33.1178 57.7627 23.1048Z" fill="url(#paint1_linear)"/>
<path d="M69.9037 27.9877C69.9607 24.8717 68.4027 22.2117 65.4767 20.5207C62.6267 18.8677 58.4657 19.4377 55.6157 20.3117C50.5617 21.2807 43.9687 22.9147 38.7817 23.1047H38.4967C33.4617 22.9147 27.0967 21.3947 22.1187 20.4067C19.2687 19.4947 14.9367 18.8107 12.0107 20.5207C9.10374 22.2117 7.52672 24.8717 7.60272 28.0067C7.64072 30.4767 8.74272 32.8897 10.4527 34.5237C10.4527 34.5237 10.4527 34.5427 10.4337 34.5427C12.0677 36.2527 14.1957 37.3547 16.2477 37.8107C20.4277 38.7607 24.7217 36.4997 23.4107 32.3197C22.0997 28.1397 16.0007 30.1727 14.1007 31.0087C13.8727 31.1037 12.4667 31.6547 11.8967 31.8637C11.0417 30.7807 10.4907 29.3557 10.4527 27.9497C10.4337 26.5057 10.9277 24.4727 13.4547 22.9907C15.2977 21.9077 18.4327 22.2877 20.7317 22.9527C20.7127 23.0097 20.7697 22.9337 20.7507 22.9907C23.6577 23.7887 26.1277 26.6007 29.5667 33.3837C34.2217 42.5797 32.9297 43.3587 32.3217 45.2017C31.6377 47.2727 29.9277 49.1537 30.6497 52.9727C32.3977 61.2757 37.2047 64.0307 38.5347 64.6387C38.5917 64.6577 38.6867 64.6957 38.7817 64.6387C40.1117 64.0307 44.8997 61.2757 46.6477 52.9727C47.3697 49.1537 45.6027 47.3487 44.9757 45.2017C44.4247 43.3397 43.0567 42.5797 47.7307 33.3837C51.1697 26.6007 53.6967 23.7697 56.6227 22.9907C56.6037 22.9527 56.6037 23.0477 56.5847 23.0097C58.9027 22.3257 62.1327 21.9077 64.0327 23.0097C66.5597 24.4917 67.0727 26.5247 67.0347 27.9687C67.0157 29.3557 66.4647 30.7807 65.6097 31.8827C65.0397 31.6737 63.6147 31.1227 63.4057 31.0277C61.4867 30.1917 55.4067 28.1587 54.0957 32.3387C52.7847 36.5187 57.0787 38.7987 61.2587 37.8297C63.3107 37.3547 65.4387 36.2527 67.0727 34.5617C67.0727 34.5617 67.0727 34.5427 67.0537 34.5427C68.7637 32.8517 69.8467 30.4577 69.9037 27.9877Z" fill="url(#paint2_linear)"/>
<path d="M41.1378 27.5507C40.0738 27.5507 39.1618 28.1967 38.7628 29.1087C38.3638 28.1967 37.4518 27.5507 36.3878 27.5507C34.9438 27.5507 33.7659 28.7287 33.7659 30.1727C33.7659 31.6167 34.8299 32.3387 35.8749 33.3077C36.7489 34.1247 38.7059 35.4927 38.7059 35.4927C38.7059 35.4927 40.6439 34.0297 41.4799 33.4027C42.6389 32.5477 43.7599 31.6167 43.7599 30.1727C43.7599 28.7287 42.5818 27.5507 41.1378 27.5507Z" fill="url(#paint3_linear)"/>
<path d="M41.5366 60.6297C41.4986 60.6297 41.4416 60.6106 41.4036 60.5916C41.2896 60.5156 41.2706 60.3637 41.3466 60.2687C44.3486 55.8987 45.5266 52.0987 44.7476 49.3247C44.6526 49.0207 44.4436 48.5457 44.1776 47.9947C43.3226 46.1517 42.0306 43.3967 42.8666 41.0027C42.9046 40.8697 43.0376 40.8127 43.1706 40.8507C43.3036 40.8887 43.3606 41.0217 43.3226 41.1547C42.5626 43.3587 43.7976 46.0187 44.6146 47.7857C44.8996 48.3747 45.1086 48.8497 45.2036 49.1917C46.0206 52.1177 44.8047 56.0316 41.7266 60.5346C41.6886 60.5916 41.6126 60.6297 41.5366 60.6297Z" fill="white"/>
<path d="M13.2268 32.6619C13.1508 32.6619 13.0748 32.6239 13.0178 32.5479C12.9418 32.4339 12.9798 32.2819 13.0938 32.2249C14.8798 31.1229 18.3948 30.3249 19.3448 30.4009C19.4778 30.4199 19.5728 30.5339 19.5538 30.6669C19.5348 30.7999 19.4208 30.8949 19.2878 30.8759C18.4328 30.7999 15.0128 31.5979 13.3408 32.6239C13.3028 32.6429 13.2648 32.6619 13.2268 32.6619Z" fill="white"/>
<path d="M54.9126 33.9158C54.7986 33.9158 54.6846 33.8208 54.6846 33.7068C54.6086 32.8898 54.8936 32.1489 55.5206 31.5599C56.3756 30.7619 57.8006 30.3438 58.9976 30.5338C59.1306 30.5528 59.2256 30.6668 59.2066 30.7998C59.1876 30.9328 59.0736 31.0279 58.9406 30.9899C57.8766 30.8189 56.6036 31.1988 55.8626 31.9018C55.3496 32.3768 55.1216 32.9848 55.1786 33.6498C55.1976 33.7828 55.1026 33.8968 54.9696 33.9158C54.9316 33.9158 54.9126 33.9158 54.9126 33.9158Z" fill="white"/>
<defs>
<linearGradient id="paint0_linear" x1="7.46428" y1="76" x2="76" y2="1.53189e-06" gradientUnits="userSpaceOnUse">
<stop stop-color="#FDEEF6"/>
<stop offset="1" stop-color="#EEF3FF"/>
</linearGradient>
<linearGradient id="paint1_linear" x1="91.4874" y1="-31.6893" x2="-117.424" y2="206.385" gradientUnits="userSpaceOnUse">
<stop offset="0.2112" stop-color="#00ACED"/>
<stop offset="0.2206" stop-color="#07AEED"/>
<stop offset="0.3146" stop-color="#48C3F2"/>
<stop offset="0.4071" stop-color="#80D5F6"/>
<stop offset="0.496" stop-color="#ADE4F9"/>
<stop offset="0.5805" stop-color="#D1F0FC"/>
<stop offset="0.6596" stop-color="#EAF8FE"/>
<stop offset="0.731" stop-color="#FAFDFF"/>
<stop offset="0.7882" stop-color="white"/>
</linearGradient>
<linearGradient id="paint2_linear" x1="-10.5636" y1="75.8842" x2="57.3061" y2="13.3169" gradientUnits="userSpaceOnUse">
<stop offset="0.1877" stop-color="#FF0066"/>
<stop offset="0.9988" stop-color="#FDB2D1"/>
</linearGradient>
<linearGradient id="paint3_linear" x1="7.79936" y1="93.1736" x2="48.097" y2="11.1646" gradientUnits="userSpaceOnUse">
<stop stop-color="#00ACED"/>
<stop offset="0.0111" stop-color="#07AEED"/>
<stop offset="0.1225" stop-color="#48C3F2"/>
<stop offset="0.2322" stop-color="#80D5F6"/>
<stop offset="0.3377" stop-color="#ADE4F9"/>
<stop offset="0.4378" stop-color="#D1F0FC"/>
<stop offset="0.5316" stop-color="#EAF8FE"/>
<stop offset="0.6163" stop-color="#FAFDFF"/>
<stop offset="0.6841" stop-color="white"/>
</linearGradient>
</defs>
</svg>
