<svg width="76" height="76" viewBox="0 0 76 76" fill="none" xmlns="http://www.w3.org/2000/svg">
<g clip-path="url(#clip0)">
<rect width="76" height="76" rx="38" fill="url(#paint0_linear)"/>
<path d="M65.9681 57.6703C65.2841 51.8373 60.6101 50.0513 56.4871 48.8733C52.3641 47.7143 46.4551 43.4393 45.4291 42.4893C44.9731 42.0713 44.8781 41.3113 44.8971 40.6083C44.9921 40.1523 45.0681 39.7723 45.1061 39.6013C45.2201 39.2213 45.5241 38.9743 45.9421 38.9743C46.4361 38.9933 46.9491 39.0503 47.4431 39.1263C48.6021 39.3163 49.7611 39.4683 50.9391 39.3923C51.3191 39.3733 51.6991 39.2783 52.0411 39.1453C52.8771 38.8033 53.3521 38.1573 53.0481 37.0363C52.9721 36.7133 52.7821 36.4283 52.6111 36.1433C52.4781 35.8963 52.5161 35.6873 52.7061 35.4783C52.8771 35.2883 53.0861 35.1173 53.2761 34.9463C53.5041 34.7373 53.5991 34.4713 53.4851 34.1673C53.4281 34.0343 53.3141 33.9203 53.2191 33.7683C53.2761 33.7493 53.3141 33.7303 53.3521 33.7113C53.8271 33.5403 53.9791 33.0083 53.6941 32.5903C53.2761 31.9823 53.5041 31.4503 54.2451 31.2413C54.5491 31.1463 54.8531 31.1083 55.1571 30.9943C55.5941 30.8423 55.8221 30.4623 55.6891 29.9873C55.5371 29.6833 53.8081 26.6623 53.0671 25.4843C52.8771 25.1613 52.9911 24.8953 53.1051 24.5913C53.2191 24.2303 53.3901 23.8883 53.4471 23.5273C53.4851 23.2423 53.4281 22.9383 53.3901 22.6533C53.3141 22.0453 53.2571 21.4373 53.1621 20.8483C53.0481 20.2023 52.9341 19.5753 52.7441 18.9483C52.5731 18.3403 52.3071 17.7323 52.0601 17.1433C51.6041 15.9843 50.8441 15.0533 49.8941 14.2553C48.7161 13.2673 47.3861 12.5643 45.9611 12.0133C44.9731 11.6333 43.9471 11.3483 42.9021 11.1963C42.1041 11.0633 41.2681 11.0253 40.4511 10.9683C39.4441 10.9113 38.4561 11.0063 37.4681 11.1963C36.6701 11.3483 35.8911 11.5763 35.1311 11.8803C34.2381 12.2413 33.4401 12.6973 32.6801 13.2863C31.7681 14.0083 31.0081 14.8823 30.3621 15.8513C29.8491 16.6303 29.4501 17.4473 29.1271 18.3213C29.1651 18.3593 28.7661 19.5753 28.7471 19.6323C28.4051 21.1333 28.3671 22.6533 28.5191 24.1733C28.6141 25.0663 28.7661 25.9403 28.9751 26.8143C29.2031 27.7833 29.5261 28.7523 29.8111 29.7213C30.1151 30.8233 30.6471 31.8303 31.1791 32.8563C31.6921 33.8443 32.0531 34.8893 31.9961 35.9913C31.8821 38.5563 31.5971 40.8363 30.6471 42.6033C29.4311 43.6863 23.7121 47.7713 19.6841 48.9113C15.5611 50.0703 10.8871 51.8753 10.2031 57.7083C9.6521 62.3823 8.5501 80.1663 7.6001 83.7383C12.1411 83.9473 17.1571 83.7383 17.1571 83.7383L19.4181 77.0693L19.5511 83.3203H37.7341H38.4371H56.6391L56.7721 77.0693L59.0331 83.7383C59.0331 83.7383 64.0491 83.9473 68.5901 83.7383C67.6211 80.1473 66.5191 62.3443 65.9681 57.6703Z" fill="url(#paint1_linear)"/>
<path d="M26.1252 76.6513C24.3772 76.6513 23.7692 75.2833 23.7122 70.0773C23.6552 64.2633 23.8832 48.8163 31.5402 47.8473C39.1972 46.8783 38.1902 63.1994 37.5442 65.9164C36.4422 70.4764 29.9822 76.6513 26.1252 76.6513Z" fill="url(#paint2_linear)"/>
<path d="M51.9275 76.6133C53.2575 76.6133 55.1955 75.8913 55.3095 70.0773C55.4235 64.2633 55.1385 48.8163 47.4815 47.8473C39.8245 46.8783 40.7555 63.2183 41.4775 65.9163C43.1875 72.1673 48.7925 76.6133 51.9275 76.6133Z" fill="url(#paint3_linear)"/>
<path d="M53.4096 60.3113C52.8016 55.7513 50.9776 50.3363 47.8616 50.1273L47.8996 49.5953C52.3456 49.8993 53.7136 58.5063 53.9416 60.2353L53.4096 60.3113Z" fill="white"/>
<path d="M35.8914 54.1363C35.8154 52.0083 34.7514 50.5073 33.8204 49.9943C33.4784 49.8043 32.9464 49.6523 32.3954 49.9753L32.1294 49.5193C32.7184 49.1583 33.4024 49.1583 34.0864 49.5193C35.3784 50.2223 36.3474 52.1033 36.4234 54.1173L35.8914 54.1363Z" fill="white"/>
<path d="M51.1674 32.4763C50.7304 32.4763 49.8944 32.4383 49.0774 32.4383C46.8354 32.4003 44.0424 32.3243 42.9214 32.4763C41.1734 32.7043 38.6084 34.3383 38.6084 37.1123V40.0383C38.6084 42.6983 38.7034 52.1033 38.6084 52.5403C38.4374 53.3383 37.6774 54.0793 37.0314 54.5733C36.3854 55.0673 35.5114 55.2953 34.7134 55.2383C34.2004 55.1813 33.7254 55.5803 33.6874 56.1123C33.6494 56.6443 34.0294 57.1003 34.5614 57.1383C34.7134 57.1573 34.8464 57.1573 34.9984 57.1573C36.1194 57.1573 37.2594 56.7963 38.1714 56.1123C38.6844 55.7323 39.1214 55.2573 39.4634 54.7253C39.8054 55.2573 40.2424 55.7323 40.7554 56.1123C41.6674 56.7773 42.8074 57.1573 43.9284 57.1573C44.0804 57.1573 44.2134 57.1573 44.3654 57.1383C44.8974 57.1003 45.2774 56.6253 45.2394 56.1123C45.2014 55.5803 44.7074 55.1813 44.2134 55.2383C43.4154 55.2953 42.5414 55.0673 41.8954 54.5733C41.2304 54.0793 40.4704 53.3573 40.4514 52.5403C40.4324 51.3433 40.4324 43.8003 40.4514 40.0573L40.5464 37.1313C40.5464 35.3073 42.5034 34.3953 43.2254 34.3003C44.2134 34.1673 47.1584 34.2243 49.0964 34.2813C49.9324 34.3003 50.7874 34.3193 51.2244 34.3193C51.7564 34.3193 52.2124 33.9393 52.2124 33.4263C52.2124 32.9133 51.6994 32.4763 51.1674 32.4763Z" fill="url(#paint4_linear)"/>
<path d="M57.7792 34.9843C58.3983 34.9843 58.9002 34.4824 58.9002 33.8633C58.9002 33.2442 58.3983 32.7423 57.7792 32.7423C57.1601 32.7423 56.6582 33.2442 56.6582 33.8633C56.6582 34.4824 57.1601 34.9843 57.7792 34.9843Z" fill="url(#paint5_linear)"/>
<path d="M62.1491 35.7442C63.1879 35.7442 64.0301 34.9021 64.0301 33.8632C64.0301 32.8244 63.1879 31.9822 62.1491 31.9822C61.1102 31.9822 60.2681 32.8244 60.2681 33.8632C60.2681 34.9021 61.1102 35.7442 62.1491 35.7442Z" fill="url(#paint6_linear)"/>
<path d="M49.0962 56.2453H46.5312C46.2652 56.2453 46.0562 56.0363 46.0562 55.7703C46.0562 55.5043 46.2652 55.2953 46.5312 55.2953H49.0962C49.3622 55.2953 49.5712 55.5043 49.5712 55.7703C49.5712 56.0363 49.3622 56.2453 49.0962 56.2453Z" fill="#0047AC"/>
<path d="M45.2012 54.4023C45.1442 54.4023 45.1062 54.4023 45.0492 54.3833C44.8022 54.3073 44.6692 54.0223 44.7452 53.7753L45.2772 52.1793C45.3532 51.9323 45.6382 51.7993 45.8852 51.8753C46.1322 51.9513 46.2652 52.2363 46.1892 52.4833L45.6572 54.0793C45.5812 54.2693 45.4102 54.4023 45.2012 54.4023Z" fill="#0047AC"/>
<path d="M48.2983 63.4083C48.1083 63.4083 47.9373 63.2943 47.8613 63.1233L45.7333 58.2593C45.6383 58.0123 45.7333 57.7463 45.9803 57.6323C46.2273 57.5183 46.4933 57.6323 46.6073 57.8793L48.7353 62.7433C48.8303 62.9903 48.7353 63.2563 48.4883 63.3703C48.4313 63.3893 48.3553 63.4083 48.2983 63.4083Z" fill="#0047AC"/>
<path d="M32.3193 56.2453H29.7543C29.4883 56.2453 29.2793 56.0363 29.2793 55.7703C29.2793 55.5043 29.4883 55.2953 29.7543 55.2953H32.3193C32.5853 55.2953 32.7943 55.5043 32.7943 55.7703C32.7943 56.0363 32.5853 56.2453 32.3193 56.2453Z" fill="#0047AC"/>
<path d="M33.6492 54.4023C33.4592 54.4023 33.2692 54.2693 33.1932 54.0793L32.6612 52.4833C32.5852 52.2363 32.7182 51.9703 32.9652 51.8753C33.2122 51.7993 33.4782 51.9323 33.5732 52.1793L34.1052 53.7753C34.1812 54.0223 34.0482 54.2883 33.8012 54.3833C33.7442 54.3833 33.7062 54.4023 33.6492 54.4023Z" fill="#0047AC"/>
<path d="M30.5523 63.4083C30.4953 63.4083 30.4193 63.3893 30.3623 63.3703C30.1153 63.2563 30.0203 62.9903 30.1153 62.7433L32.2433 57.8793C32.3383 57.6323 32.6233 57.5183 32.8703 57.6323C33.1173 57.7463 33.2123 58.0123 33.1173 58.2593L30.9893 63.1233C30.9133 63.2943 30.7423 63.4083 30.5523 63.4083Z" fill="#0047AC"/>
</g>
<defs>
<linearGradient id="paint0_linear" x1="76" y1="-2.26498e-06" x2="-6.79493e-06" y2="76" gradientUnits="userSpaceOnUse">
<stop stop-color="#D5F5E2"/>
<stop offset="1" stop-color="#D7F7FC"/>
</linearGradient>
<linearGradient id="paint1_linear" x1="7.58699" y1="47.3858" x2="68.5791" y2="47.3858" gradientUnits="userSpaceOnUse">
<stop stop-color="#0069C2"/>
<stop offset="0.3776" stop-color="#0384D2"/>
<stop offset="0.7502" stop-color="#0599DF"/>
<stop offset="1" stop-color="#06A0E3"/>
</linearGradient>
<linearGradient id="paint2_linear" x1="30.6295" y1="82.1953" x2="31.042" y2="45.4809" gradientUnits="userSpaceOnUse">
<stop stop-color="#00ACED"/>
<stop offset="0.0128" stop-color="#07AEED"/>
<stop offset="0.1411" stop-color="#48C3F2"/>
<stop offset="0.2676" stop-color="#80D5F6"/>
<stop offset="0.389" stop-color="#ADE4F9"/>
<stop offset="0.5045" stop-color="#D1F0FC"/>
<stop offset="0.6125" stop-color="#EAF8FE"/>
<stop offset="0.7101" stop-color="#FAFDFF"/>
<stop offset="0.7882" stop-color="white"/>
</linearGradient>
<linearGradient id="paint3_linear" x1="47.9684" y1="82.3882" x2="48.3809" y2="45.6764" gradientUnits="userSpaceOnUse">
<stop stop-color="#00ACED"/>
<stop offset="0.0128" stop-color="#07AEED"/>
<stop offset="0.1411" stop-color="#48C3F2"/>
<stop offset="0.2676" stop-color="#80D5F6"/>
<stop offset="0.389" stop-color="#ADE4F9"/>
<stop offset="0.5045" stop-color="#D1F0FC"/>
<stop offset="0.6125" stop-color="#EAF8FE"/>
<stop offset="0.7101" stop-color="#FAFDFF"/>
<stop offset="0.7882" stop-color="white"/>
</linearGradient>
<linearGradient id="paint4_linear" x1="39.623" y1="65.0111" x2="51.2039" y2="-6.33138" gradientUnits="userSpaceOnUse">
<stop stop-color="#00ACED"/>
<stop offset="0.0128" stop-color="#07AEED"/>
<stop offset="0.1411" stop-color="#48C3F2"/>
<stop offset="0.2676" stop-color="#80D5F6"/>
<stop offset="0.389" stop-color="#ADE4F9"/>
<stop offset="0.5045" stop-color="#D1F0FC"/>
<stop offset="0.6125" stop-color="#EAF8FE"/>
<stop offset="0.7101" stop-color="#FAFDFF"/>
<stop offset="0.7882" stop-color="white"/>
</linearGradient>
<linearGradient id="paint5_linear" x1="52.3334" y1="37.719" x2="67.8426" y2="26.7166" gradientUnits="userSpaceOnUse">
<stop stop-color="#0069C2"/>
<stop offset="0.3776" stop-color="#0384D2"/>
<stop offset="0.7502" stop-color="#0599DF"/>
<stop offset="1" stop-color="#06A0E3"/>
</linearGradient>
<linearGradient id="paint6_linear" x1="53.7976" y1="39.7832" x2="69.3069" y2="28.7809" gradientUnits="userSpaceOnUse">
<stop stop-color="#0069C2"/>
<stop offset="0.3776" stop-color="#0384D2"/>
<stop offset="0.7502" stop-color="#0599DF"/>
<stop offset="1" stop-color="#06A0E3"/>
</linearGradient>
<clipPath id="clip0">
<rect width="76" height="76" rx="38" fill="white"/>
</clipPath>
</defs>
</svg>
