<svg width="76" height="76" viewBox="0 0 76 76" fill="none" xmlns="http://www.w3.org/2000/svg">
<g clip-path="url(#clip0)">
<rect width="76" height="76" rx="38" fill="url(#paint0_linear)"/>
<path d="M59.7744 36.6179C59.1854 34.2049 58.5964 31.7919 57.9694 29.3979C56.9244 25.3509 55.5184 21.3039 54.7584 17.2189C54.7204 16.9719 54.6634 16.7439 54.6064 16.5349C54.4544 15.4899 54.1884 14.4639 53.7324 13.6279C53.3524 12.9249 52.8394 12.2789 52.3454 11.6519C52.0794 11.3099 51.7944 10.9679 51.4334 10.7209C51.0914 10.4739 50.6924 10.3029 50.2934 10.1509C46.8924 8.7829 43.4914 7.4149 40.0714 6.0469C39.6154 5.8569 39.1404 5.6669 38.6464 5.7049C38.1144 5.7429 37.6204 6.0279 37.1644 6.3129C35.6634 7.2439 34.2384 8.2509 32.8514 9.3339C32.6044 9.5239 32.3384 9.7519 32.1864 10.0369C32.0154 10.3599 32.0154 10.7209 31.9964 11.0819C31.9774 12.0699 31.9394 13.0389 31.9204 14.0269C31.9014 14.4449 31.9014 14.8629 32.0724 15.2429C32.2054 15.5659 32.4714 15.8129 32.7184 16.0409C33.4024 16.7059 34.0864 17.3519 34.7704 18.0169C34.9604 18.2069 35.1694 18.3969 35.4164 18.4159C36.0434 18.4729 36.3094 17.6369 36.2714 17.0099C37.1454 17.4849 38.0764 17.8839 39.0454 18.1689C39.7294 18.3779 40.6794 18.4349 41.0024 17.7889C41.3254 18.2639 41.9144 18.5109 42.4844 18.4539C43.0544 18.3779 43.5674 17.9789 43.7574 17.4469C44.3464 18.0929 46.6834 19.0809 47.0064 19.1569C47.1014 30.8419 43.5104 36.1999 44.5744 44.6929C44.5934 44.9209 43.2254 44.8639 43.2634 45.0919C42.7314 44.6549 42.1994 44.2369 41.6864 43.7999C39.9954 42.3559 38.3234 40.8359 36.3854 39.7339C34.4474 38.6319 32.1484 37.9859 29.9634 38.4039C29.1084 38.5749 28.2914 38.8979 27.4934 39.2969C26.6384 38.3089 21.6794 35.2499 16.2834 35.0219C9.40541 34.7369 6.2324 37.0929 4.8644 37.3589C3.1164 37.6819 -0.132593 36.2379 -1.82359 34.7559C-1.84259 35.2499 -1.89959 35.7249 -1.89959 36.2189C-1.95659 50.5449 5.90941 63.0279 17.5944 69.5639C18.9434 66.5239 21.6414 60.5009 22.0974 59.5699C25.9354 60.2919 28.7094 63.6549 36.8794 63.4839C47.9944 63.2559 58.7294 55.6939 58.8434 55.6179C58.9764 55.5229 59.0524 55.3709 59.1284 55.2189C59.4514 54.4399 59.5844 53.5849 59.6984 52.7489C60.0404 50.2029 60.3254 47.6569 60.5154 45.0919C60.6294 43.6669 60.7054 42.2229 60.5724 40.7979C60.4394 39.3729 60.1164 37.9859 59.7744 36.6179Z" fill="url(#paint1_linear)"/>
<path d="M15.8846 54.9149C15.7706 56.2259 16.1316 56.6819 15.5806 57.8219C22.7056 59.4179 28.7286 63.6169 36.8986 63.4459C48.0135 63.2179 59.2425 55.1809 59.3566 55.1239C59.3946 55.1049 59.3946 55.0479 59.4326 55.0099C46.0376 52.3309 29.2986 48.3219 15.8846 54.9149Z" fill="url(#paint2_linear)"/>
<path d="M27.7026 39.3539C25.9356 37.7009 20.8816 35.1739 16.2836 34.9839C9.40559 34.6989 6.23258 37.0549 4.86458 37.3209C4.84558 37.3209 2.77459 37.283 -1.82341 34.756C-1.84241 35.231 -1.89941 35.706 -1.89941 36.181C-1.89941 37.017 -1.84242 37.815 -1.78542 38.632C-1.59542 40.456 -1.36741 42.3559 -1.29141 42.964V42.983C-1.27241 43.097 -1.27241 43.1729 -1.25341 43.1919C-1.25341 43.1919 -1.25342 43.1919 -1.23442 43.1919C0.399583 52.1409 5.11159 60.007 11.8376 65.574C14.8776 62.572 16.0366 58.696 16.2646 57.974C17.2146 54.877 17.7656 51.6849 18.5636 48.5499C19.9126 43.2679 22.7816 41.425 24.5296 40.323C24.5486 40.342 24.5676 40.3609 24.5866 40.3799C24.6626 40.1709 26.9806 39.5819 27.7026 39.3539Z" fill="url(#paint3_linear)"/>
<path d="M44.6315 45.054C42.6365 42.052 33.9345 35.212 26.2775 38.727C23.6555 39.943 19.9125 41.691 18.3545 48.778C22.2685 46.821 25.0235 51.134 29.6785 50.298C31.9775 49.88 34.2195 49.177 36.4615 48.512C38.0005 48.056 39.5965 47.657 41.2115 47.524C42.1615 47.448 44.9355 47.296 44.9355 47.296C44.9355 47.296 46.6265 48.037 44.6315 45.054Z" fill="url(#paint4_linear)"/>
<path d="M4.82652 40.1709L4.33252 39.5819C6.68852 37.6059 9.69052 36.4659 12.7685 36.3519L12.7875 37.1119C9.88053 37.2069 7.04952 38.3089 4.82652 40.1709Z" fill="white"/>
<path d="M22.1356 44.4839L21.5466 44.0089C24.8146 40.0189 30.5336 38.2519 35.4926 39.6959L35.2836 40.4179C30.6286 39.0499 25.2136 40.7219 22.1356 44.4839Z" fill="white"/>
<path d="M60.6487 41.1209C60.0977 36.2189 57.2477 26.4339 55.3857 19.9549C55.1577 19.0429 54.9487 18.1309 54.7777 17.2189C54.7397 16.9719 54.6827 16.7439 54.6257 16.5349C54.4737 15.4899 54.2077 14.4639 53.7517 13.6279C53.3717 12.9249 52.8587 12.2789 52.3647 11.6519C52.0987 11.3099 51.8137 10.9679 51.4527 10.7209C51.1107 10.4739 50.7117 10.3029 50.3127 10.1509C46.9117 8.7829 43.5107 7.4149 40.0907 6.0469C39.6347 5.8569 39.1597 5.6669 38.6657 5.7049C38.1337 5.7429 37.6397 6.0279 37.1837 6.3129C35.6827 7.2439 34.2577 8.2509 32.8707 9.3339C32.6237 9.5239 32.3577 9.7519 32.2057 10.0369C32.0347 10.3599 32.0347 10.7209 32.0157 11.0819C31.9967 12.0699 31.9587 13.0389 31.9397 14.0269C31.9207 14.4449 31.9207 14.8629 32.0917 15.2429C32.2247 15.5659 32.4907 15.8129 32.7377 16.0409C33.4217 16.7059 34.1057 17.3519 34.7897 18.0169C34.9797 18.2069 35.1887 18.3969 35.4357 18.4159C36.0627 18.4729 36.3287 17.6369 36.2907 17.0099C37.1647 17.4849 38.2097 18.3019 39.1597 18.5869C39.8437 18.7959 40.6797 18.4539 41.0027 17.7889C41.3257 18.2639 41.9147 18.5109 42.4847 18.4539C43.0547 18.3779 43.5677 17.9789 43.7577 17.4469C44.3467 18.0929 46.6267 19.0619 46.9877 19.1379C46.8547 27.2129 44.6507 33.2929 44.2137 40.0569C43.8147 44.8259 44.6317 47.2959 47.2917 50.3549C49.6097 53.0339 55.4807 57.1949 59.0527 55.2569C60.3447 54.5729 61.4087 47.8469 60.6487 41.1209Z" fill="url(#paint5_linear)"/>
<path d="M58.1407 37.7199C57.1527 33.0839 56.1647 29.6639 55.1197 26.0729C54.4167 23.6219 53.6757 21.0759 52.8967 17.9789L53.6377 17.7889C54.4167 20.8669 55.1387 23.3939 55.8607 25.8449C56.9057 29.4549 57.8937 32.8749 58.8817 37.5489L58.1407 37.7199Z" fill="white"/>
</g>
<defs>
<linearGradient id="paint0_linear" x1="69.0594" y1="7.54933" x2="4.2205" y2="70.8172" gradientUnits="userSpaceOnUse">
<stop stop-color="#EEF3FF"/>
<stop offset="1" stop-color="#D7F7FC"/>
</linearGradient>
<linearGradient id="paint1_linear" x1="-29.5189" y1="2.79068" x2="44.1834" y2="45.7394" gradientUnits="userSpaceOnUse">
<stop stop-color="white"/>
<stop offset="0.9865" stop-color="#FDB2D1"/>
</linearGradient>
<linearGradient id="paint2_linear" x1="77.8527" y1="93.2917" x2="11.0699" y2="32.2705" gradientUnits="userSpaceOnUse">
<stop offset="0.1877" stop-color="#FF0066"/>
<stop offset="0.9988" stop-color="#FDB2D1"/>
</linearGradient>
<linearGradient id="paint3_linear" x1="-8.79204" y1="56.8877" x2="32.7336" y2="36.709" gradientUnits="userSpaceOnUse">
<stop offset="0.1877" stop-color="#FF0066"/>
<stop offset="0.9988" stop-color="#FDB2D1"/>
</linearGradient>
<linearGradient id="paint4_linear" x1="14.3501" y1="60.9596" x2="45.7852" y2="34.0826" gradientUnits="userSpaceOnUse">
<stop offset="0.1877" stop-color="#FF0066"/>
<stop offset="0.9988" stop-color="#FDB2D1"/>
</linearGradient>
<linearGradient id="paint5_linear" x1="22.5621" y1="54.4268" x2="64.1852" y2="15.0571" gradientUnits="userSpaceOnUse">
<stop offset="0.1877" stop-color="#FF0066"/>
<stop offset="0.9988" stop-color="#FDB2D1"/>
</linearGradient>
<clipPath id="clip0">
<rect width="76" height="76" rx="38" fill="white"/>
</clipPath>
</defs>
</svg>
