<svg width="76" height="76" viewBox="0 0 76 76" fill="none" xmlns="http://www.w3.org/2000/svg">
<rect width="76" height="76" rx="38" fill="url(#paint0_linear)"/>
<path d="M66.9663 35.91C66.9663 35.91 54.1032 50.54 38.2382 50.54C22.3732 50.54 9.51025 35.91 9.51025 35.91C9.51025 35.91 22.3732 21.28 38.2382 21.28C54.1032 21.28 66.9663 35.91 66.9663 35.91Z" fill="url(#paint1_linear)"/>
<path d="M67.4605 30.7799C67.2135 30.7799 66.9855 30.6849 66.7956 30.4949C66.6626 30.3619 54.0085 17.9549 38.7325 17.9549C23.4565 17.9549 10.7835 30.3619 10.6695 30.4949C10.2895 30.8559 9.70055 30.8559 9.32055 30.4949C8.95955 30.1149 8.95955 29.5259 9.32055 29.1459C9.85255 28.6139 22.6395 16.0549 38.7325 16.0549C54.8065 16.0549 67.6125 28.6139 68.1445 29.1459C68.5245 29.5069 68.5245 30.1149 68.1445 30.4949C67.9545 30.6849 67.7075 30.7799 67.4605 30.7799Z" fill="#0047AC"/>
<path d="M26.7243 23.883C24.5773 26.467 23.2664 29.811 23.2664 33.44C23.2664 41.705 29.9733 48.412 38.2383 48.412C46.5033 48.412 53.2103 41.705 53.2103 33.44C53.2103 29.545 51.7094 26.011 49.2774 23.351C45.9904 22.097 42.4184 21.28 38.6754 21.28C34.4004 21.28 30.3533 22.344 26.7243 23.883Z" fill="url(#paint2_linear)"/>
<path d="M37.8015 47.1961C30.5435 47.1961 24.6155 41.2871 24.6155 34.0101H25.3755C25.3755 40.8501 30.9425 46.4361 37.8015 46.4361V47.1961Z" fill="white"/>
<path d="M38.2382 40.5651C42.2992 40.5651 45.5913 37.2731 45.5913 33.2121C45.5913 29.1512 42.2992 25.8591 38.2382 25.8591C34.1773 25.8591 30.8853 29.1512 30.8853 33.2121C30.8853 37.2731 34.1773 40.5651 38.2382 40.5651Z" fill="url(#paint3_linear)"/>
<path d="M38.6565 33.079L48.0615 24.795C48.0615 24.795 50.7215 26.391 51.3675 31.483C51.3105 31.426 38.6565 33.079 38.6565 33.079Z" fill="url(#paint4_linear)"/>
<path d="M38.4854 64.2199C37.9534 64.2199 37.5354 63.8019 37.5354 63.2699V54.53C37.5354 53.998 37.9534 53.58 38.4854 53.58C39.0174 53.58 39.4354 53.998 39.4354 54.53V63.2699C39.4354 63.8019 38.9984 64.2199 38.4854 64.2199Z" fill="#0047AC"/>
<path d="M56.1551 59.888C55.8131 59.888 55.4711 59.698 55.3191 59.375L51.7471 52.44C51.5001 51.965 51.6901 51.395 52.1461 51.167C52.6211 50.939 53.1911 51.11 53.4191 51.585L56.9911 58.52C57.2381 58.995 57.0481 59.565 56.5921 59.793C56.4591 59.869 56.3071 59.888 56.1551 59.888Z" fill="#0047AC"/>
<path d="M68.3914 48.849C68.1634 48.849 67.9354 48.773 67.7454 48.602L63.9074 45.03C63.5274 44.669 63.5084 44.08 63.8504 43.681C64.2114 43.301 64.8004 43.282 65.1994 43.643L69.0374 47.215C69.4174 47.576 69.4364 48.165 69.0944 48.564C68.9044 48.754 68.6384 48.849 68.3914 48.849Z" fill="#0047AC"/>
<path d="M20.7963 59.888C20.6443 59.888 20.4923 59.85 20.3593 59.774C19.8843 59.527 19.7133 58.957 19.9603 58.501L23.5323 51.566C23.7793 51.091 24.3493 50.92 24.8053 51.148C25.2803 51.395 25.4512 51.965 25.2042 52.421L21.6323 59.356C21.4613 59.717 21.1383 59.888 20.7963 59.888Z" fill="#0047AC"/>
<path d="M8.5603 48.849C8.3133 48.849 8.04731 48.754 7.85731 48.545C7.49631 48.165 7.51531 47.557 7.91431 47.196L11.7523 43.624C12.1323 43.263 12.7403 43.282 13.1013 43.662C13.4623 44.042 13.4433 44.65 13.0443 45.011L9.20629 48.583C9.03529 48.773 8.7883 48.849 8.5603 48.849Z" fill="#0047AC"/>
<defs>
<linearGradient id="paint0_linear" x1="76" y1="0" x2="0" y2="76" gradientUnits="userSpaceOnUse">
<stop stop-color="#EEF3FF"/>
<stop offset="1" stop-color="#D5F5E2"/>
</linearGradient>
<linearGradient id="paint1_linear" x1="3.17394" y1="19.4163" x2="81.2947" y2="56.179" gradientUnits="userSpaceOnUse">
<stop stop-color="#00ACED"/>
<stop offset="0.0111" stop-color="#07AEED"/>
<stop offset="0.1225" stop-color="#48C3F2"/>
<stop offset="0.2322" stop-color="#80D5F6"/>
<stop offset="0.3377" stop-color="#ADE4F9"/>
<stop offset="0.4378" stop-color="#D1F0FC"/>
<stop offset="0.5316" stop-color="#EAF8FE"/>
<stop offset="0.6163" stop-color="#FAFDFF"/>
<stop offset="0.6841" stop-color="white"/>
</linearGradient>
<linearGradient id="paint2_linear" x1="23.2664" y1="34.841" x2="53.1993" y2="34.841" gradientUnits="userSpaceOnUse">
<stop offset="0.2511" stop-color="#0069C2"/>
<stop offset="0.7136" stop-color="#06A0E3"/>
</linearGradient>
<linearGradient id="paint3_linear" x1="30.8733" y1="33.2131" x2="45.5924" y2="33.2131" gradientUnits="userSpaceOnUse">
<stop stop-color="#002596"/>
<stop offset="0.5895" stop-color="#0047AC"/>
<stop offset="1" stop-color="#008AD7"/>
</linearGradient>
<linearGradient id="paint4_linear" x1="35.3102" y1="48.5755" x2="56.166" y2="13.5801" gradientUnits="userSpaceOnUse">
<stop stop-color="#00ACED"/>
<stop offset="0.0128" stop-color="#07AEED"/>
<stop offset="0.1411" stop-color="#48C3F2"/>
<stop offset="0.2676" stop-color="#80D5F6"/>
<stop offset="0.389" stop-color="#ADE4F9"/>
<stop offset="0.5045" stop-color="#D1F0FC"/>
<stop offset="0.6125" stop-color="#EAF8FE"/>
<stop offset="0.7101" stop-color="#FAFDFF"/>
<stop offset="0.7882" stop-color="white"/>
</linearGradient>
</defs>
</svg>
