<svg width="16" height="16" viewBox="0 0 16 16" fill="none" xmlns="http://www.w3.org/2000/svg">
<path fill-rule="evenodd" clip-rule="evenodd" d="M6.06301 1.13376C6.15884 1.1057 6.25511 1.07968 6.35176 1.05571C5.84048 1.73721 5.41665 2.44618 5.08058 3.17734H2.78623C3.67046 2.20965 4.8037 1.50248 6.06301 1.13376ZM6.19297 3.17734C6.60985 2.37087 7.14921 1.59232 7.81325 0.849849C7.9848 0.843537 8.15652 0.843388 8.32809 0.849407C8.97577 1.5501 9.51917 2.33424 9.94595 3.17734H6.19297ZM11.4494 4.17734H14.1315C14.6293 4.9634 14.9714 5.8423 15.1344 6.76623C15.1824 7.03817 15.4418 7.21972 15.7137 7.17173C15.9857 7.12375 16.1672 6.86439 16.1192 6.59245C15.8524 5.08044 15.1648 3.67427 14.1352 2.53527C13.1056 1.39628 11.7758 0.570588 10.2983 0.152943C8.82081 -0.264702 7.25552 -0.257387 5.78201 0.174049C4.3085 0.605485 2.98646 1.44357 1.96756 2.59214C1.76052 2.82552 1.56771 3.06981 1.38976 3.32364C1.346 3.36736 1.3103 3.41916 1.28509 3.4766C0.644956 4.43527 0.212604 5.52233 0.0215086 6.66768C-0.0280447 6.96468 -0.0609814 7.26324 -0.077457 7.56202C-0.0861961 7.59904 -0.0908203 7.63765 -0.0908203 7.67734C-0.0908203 7.70187 -0.0890529 7.726 -0.0856385 7.74959C-0.122956 8.9119 0.0883077 10.0732 0.539017 11.1543C0.635133 11.3848 0.741505 11.6102 0.857649 11.8298C0.876969 11.8902 0.907464 11.9456 0.946703 11.9936C1.53923 13.0546 2.36318 13.9736 3.36182 14.6797C4.61544 15.5662 6.09357 16.0813 7.62661 16.1659C7.67831 16.1688 7.7286 16.1637 7.77631 16.1517C7.83887 16.136 7.89942 16.1078 7.95426 16.0667C8.02899 16.0106 8.08355 15.9377 8.11664 15.8571C8.12498 15.8368 8.13205 15.8159 8.13771 15.7943C8.17527 15.6516 8.14963 15.4938 8.05426 15.3667C7.25863 14.3058 6.6265 13.2383 6.15566 12.1773H8.07798C8.35413 12.1773 8.57798 11.9535 8.57798 11.6773C8.57798 11.4012 8.35413 11.1773 8.07798 11.1773H5.75875C5.40394 10.1637 5.1972 9.15979 5.13657 8.17734H8.40185C8.67799 8.17734 8.90185 7.95348 8.90185 7.67734C8.90185 7.4012 8.67799 7.17734 8.40185 7.17734H5.12553C5.16691 6.15235 5.37185 5.14796 5.74392 4.17734H10.3868C10.6207 4.79514 10.7955 5.43707 10.9069 6.09481C10.953 6.36708 11.2111 6.55042 11.4833 6.50431C11.7556 6.4582 11.9389 6.20011 11.8928 5.92785C11.7917 5.33075 11.643 4.74552 11.4494 4.17734ZM11.0543 3.17734C10.7157 2.42751 10.2953 1.71566 9.79981 1.0552C9.87553 1.07396 9.95103 1.09397 10.0263 1.11524C11.3105 1.47825 12.4676 2.19254 13.3674 3.17734H11.0543ZM2.02215 4.17734H4.68025C4.34762 5.14802 4.16224 6.15185 4.12478 7.17734H0.958889C0.972396 7.06211 0.988721 6.94705 1.00787 6.83225C1.16598 5.88463 1.51228 4.98247 2.02215 4.17734ZM0.912072 8.17734H4.13481C4.19044 9.16988 4.38122 10.1731 4.70395 11.1773H1.64723C1.58139 11.0436 1.5196 10.9076 1.46201 10.7695C1.11766 9.94349 0.932583 9.06416 0.912072 8.17734ZM2.24516 12.1773H5.06883C5.45806 13.1303 5.96525 14.0813 6.58765 15.0219C5.63902 14.8204 4.73725 14.4276 3.93916 13.8632C3.281 13.3978 2.7093 12.8271 2.24516 12.1773ZM12.3335 9.69666C12.0574 9.69666 11.8335 9.92051 11.8335 10.1967C11.8335 10.4728 12.0574 10.6967 12.3335 10.6967C12.6096 10.6967 12.8335 10.4728 12.8335 10.1967C12.8335 9.92051 12.6096 9.69666 12.3335 9.69666ZM10.8335 10.1967C10.8335 9.36823 11.5051 8.69666 12.3335 8.69666C13.1619 8.69666 13.8335 9.36823 13.8335 10.1967C13.8335 11.0251 13.1619 11.6967 12.3335 11.6967C11.5051 11.6967 10.8335 11.0251 10.8335 10.1967ZM10.5657 8.43225C11.0346 7.9634 11.6705 7.70001 12.3335 7.70001C12.9965 7.70001 13.6324 7.9634 14.1013 8.43225C14.5701 8.90109 14.8335 9.53697 14.8335 10.2C14.8335 10.5867 14.6846 11.0672 14.4175 11.6014C14.1545 12.1275 13.7983 12.6636 13.4335 13.15C13.0699 13.6348 12.705 14.0606 12.4306 14.3655C12.3968 14.4031 12.3643 14.4388 12.3335 14.4726C12.3027 14.4388 12.2702 14.4031 12.2364 14.3655C11.9619 14.0606 11.5971 13.6348 11.2335 13.15C10.8687 12.6636 10.5125 12.1275 10.2495 11.6014C9.98236 11.0672 9.8335 10.5867 9.8335 10.2C9.8335 9.53697 10.0969 8.90109 10.5657 8.43225ZM11.9798 15.5534C11.9799 15.5535 11.9799 15.5536 12.3335 15.2L11.9799 15.5536C12.1752 15.7488 12.4918 15.7488 12.687 15.5536L12.3335 15.2C12.687 15.5536 12.6871 15.5535 12.6872 15.5534L12.6874 15.5532L12.6881 15.5526L12.6902 15.5504L12.6975 15.543L12.7246 15.5155C12.7479 15.4916 12.7816 15.457 12.8241 15.4124C12.9091 15.3234 13.0296 15.1948 13.1739 15.0345C13.4619 14.7144 13.8471 14.2652 14.2335 13.75C14.6187 13.2365 15.0125 12.6475 15.312 12.0486C15.6074 11.4578 15.8335 10.8133 15.8335 10.2C15.8335 9.27175 15.4647 8.38152 14.8084 7.72514C14.152 7.06876 13.2618 6.70001 12.3335 6.70001C11.4052 6.70001 10.515 7.06876 9.85862 7.72514C9.20225 8.38152 8.8335 9.27175 8.8335 10.2C8.8335 10.8133 9.05963 11.4578 9.35503 12.0486C9.65449 12.6475 10.0483 13.2365 10.4335 13.75C10.8199 14.2652 11.205 14.7144 11.4931 15.0345C11.6374 15.1948 11.7579 15.3234 11.8429 15.4124C11.8854 15.457 11.9191 15.4916 11.9424 15.5155L11.9695 15.543L11.9768 15.5504L11.9789 15.5526L11.9796 15.5532L11.9798 15.5534Z" fill="#828EA5"/>
</svg>
