<svg width="16" height="16" viewBox="0 0 16 16" fill="none" xmlns="http://www.w3.org/2000/svg">
<path fill-rule="evenodd" clip-rule="evenodd" d="M8.35381 0.646447C8.15855 0.451184 7.84196 0.451184 7.6467 0.646447L-0.0199657 8.31311C-0.215228 8.50838 -0.215228 8.82496 -0.0199657 9.02022C0.175296 9.21548 0.491879 9.21548 0.687141 9.02022L8.00025 1.70711L15.3134 9.02022C15.5086 9.21548 15.8252 9.21548 16.0205 9.02022C16.2157 8.82496 16.2157 8.50838 16.0205 8.31311L8.35381 0.646447ZM2.83359 9C2.83359 8.72386 2.60973 8.5 2.33359 8.5C2.05745 8.5 1.83359 8.72386 1.83359 9V15C1.83359 15.3094 1.9565 15.6062 2.1753 15.825C2.39409 16.0438 2.69084 16.1667 3.00025 16.1667H6.00025C6.22127 16.1667 6.43323 16.0789 6.58951 15.9226C6.74579 15.7663 6.83359 15.5543 6.83359 15.3333V12.6667C6.83359 12.3572 6.9565 12.0605 7.1753 11.8417C7.39409 11.6229 7.69083 11.5 8.00025 11.5C8.30967 11.5 8.60642 11.6229 8.82521 11.8417C9.044 12.0605 9.16692 12.3572 9.16692 12.6667V15.3333C9.16692 15.5543 9.25472 15.7663 9.411 15.9226C9.56728 16.0789 9.77924 16.1667 10.0003 16.1667H13.0003C13.3097 16.1667 13.6064 16.0438 13.8252 15.825C14.044 15.6062 14.1669 15.3094 14.1669 15V9.33333C14.1669 9.05719 13.9431 8.83333 13.6669 8.83333C13.3908 8.83333 13.1669 9.05719 13.1669 9.33333V15C13.1669 15.0442 13.1494 15.0866 13.1181 15.1179C13.0869 15.1491 13.0445 15.1667 13.0003 15.1667H10.1669V12.6667C10.1669 12.092 9.93865 11.5409 9.53232 11.1346C9.12599 10.7283 8.57489 10.5 8.00025 10.5C7.42562 10.5 6.87452 10.7283 6.46819 11.1346C6.06186 11.5409 5.83359 12.092 5.83359 12.6667V15.1667H3.00025C2.95605 15.1667 2.91366 15.1491 2.8824 15.1179C2.85115 15.0866 2.83359 15.0442 2.83359 15V9Z" fill="#828EA5"/>
</svg>
