<svg width="16" height="16" viewBox="0 0 16 16" fill="none" xmlns="http://www.w3.org/2000/svg">
<path fill-rule="evenodd" clip-rule="evenodd" d="M13.5138 1.95358C13.7343 2.16096 13.8086 2.4806 13.702 2.76397C13.4158 3.52514 12.3419 6.28136 11.3427 8.83943C10.8424 10.1202 10.3599 11.3537 10.0025 12.267L9.41278 13.7731C9.41248 13.7739 8.24672 13.3171 9.41278 13.7731C9.29418 14.0759 8.99385 14.2681 8.6693 14.2486C8.34475 14.2291 8.06972 14.0027 7.98823 13.688L6.76557 8.96566L2.77271 7.69586C2.4763 7.60159 2.26884 7.33416 2.25121 7.02362C2.23359 6.71309 2.40947 6.4239 2.69331 6.2967L12.6933 1.81556C12.9696 1.69176 13.2932 1.7462 13.5138 1.95358Z" fill="#828EA5"/>
</svg>
