<svg width="40" height="40" fill="none" xmlns="http://www.w3.org/2000/svg"><path fill-rule="evenodd" clip-rule="evenodd" d="M23.62 12.667c2.546 0 3.878.35 4.6 1.206.726.86.78 2.178.78 4.09v3.457c0 2.191-.346 3.457-1.158 4.232-.791.756-2.014 1.064-4.222 1.064h-9.24C9.832 26.716 9 24.933 9 21.42v-3.457c0-1.813 0-3.123.701-4.012.72-.912 2.075-1.284 4.679-1.284h9.24zm-5.975 9.69l4.196-2.188a.644.644 0 00-.002-1.143l-4.196-2.174a.646.646 0 00-.942.571v4.364a.644.644 0 00.944.57z" fill="#26364B"/></svg>