<svg width="40" height="40" fill="none" xmlns="http://www.w3.org/2000/svg"><path d="M28.872 24.837a1.448 1.448 0 00-.07-.137c-.363-.657-1.056-1.463-2.08-2.42l-.02-.022-.012-.01-.01-.012h-.011c-.465-.445-.759-.744-.882-.898-.225-.292-.275-.587-.152-.887.087-.226.413-.704.979-1.434.298-.387.533-.697.707-.93 1.255-1.68 1.8-2.753 1.632-3.22l-.064-.11c-.044-.065-.156-.125-.337-.18-.182-.055-.414-.064-.697-.028l-3.134.022a.405.405 0 00-.218.006l-.141.033-.054.027-.044.033a.485.485 0 00-.12.115.752.752 0 00-.108.191c-.341.884-.73 1.705-1.165 2.464-.268.453-.514.845-.74 1.178a5.661 5.661 0 01-.565.733 3.97 3.97 0 01-.414.378c-.123.095-.217.135-.283.12a7.97 7.97 0 01-.185-.043.727.727 0 01-.244-.269 1.205 1.205 0 01-.126-.427 4.74 4.74 0 01-.038-.443 9.18 9.18 0 01.006-.526c.007-.226.01-.38.01-.46 0-.277.006-.579.017-.903.01-.325.02-.583.027-.772.008-.19.011-.391.011-.603a2.57 2.57 0 00-.038-.498 1.71 1.71 0 00-.114-.35.588.588 0 00-.223-.263 1.249 1.249 0 00-.365-.148c-.384-.088-.874-.135-1.469-.142-1.349-.015-2.216.073-2.6.262-.153.08-.29.19-.414.329-.13.16-.149.248-.054.263.435.065.743.222.925.47l.065.132c.05.095.102.263.152.504.051.24.084.507.098.799.036.533.036.99 0 1.369-.036.38-.07.675-.103.887a1.78 1.78 0 01-.147.515 2.164 2.164 0 01-.13.24.187.187 0 01-.055.055.81.81 0 01-.294.055c-.101 0-.225-.051-.37-.153a2.615 2.615 0 01-.451-.422 5.63 5.63 0 01-.528-.75c-.196-.321-.4-.7-.61-1.139l-.174-.318a27.395 27.395 0 01-.446-.892c-.188-.39-.355-.769-.5-1.134a.72.72 0 00-.261-.35l-.055-.033a.744.744 0 00-.174-.093 1.148 1.148 0 00-.25-.071l-2.981.022c-.305 0-.512.07-.62.208l-.044.066a.356.356 0 00-.033.175c0 .08.022.179.065.295.436 1.03.909 2.023 1.42 2.98.512.955.956 1.726 1.333 2.31.377.584.762 1.135 1.154 1.653.391.518.65.85.778.997.127.146.226.255.299.328l.272.263c.174.175.43.385.767.63.337.244.71.485 1.12.723.41.237.888.43 1.432.58a4.92 4.92 0 001.588.18h1.252c.253-.021.446-.102.576-.24l.044-.055a.728.728 0 00.081-.203 1.09 1.09 0 00.038-.3 3.636 3.636 0 01.07-.85c.055-.251.117-.441.186-.569a1.4 1.4 0 01.42-.482.717.717 0 01.086-.038c.174-.058.379-.002.615.17.236.172.457.383.664.635.207.252.455.535.745.849.29.314.544.547.762.7l.217.132c.146.088.334.168.566.241.232.073.435.091.61.055l2.785-.044c.276 0 .49-.046.642-.137.152-.091.243-.192.272-.301.03-.11.03-.234.005-.373a1.382 1.382 0 00-.076-.29z" fill="#26364B"/></svg>