<svg width="129" height="24" fill="none" xmlns="http://www.w3.org/2000/svg"><path fill="#fff" d="M0 0h129v24H0z"/><path d="M0 11.984v-.95c.005-.118.011-.236.02-.354l7.685 4.35L23.98 5.819a12.46 12.46 0 011.397 5.696 12.43 12.43 0 01-.238 2.412 12.384 12.384 0 01-2.116 4.83 12.637 12.637 0 01-3.72 3.418A12.874 12.874 0 0113.033 24h-.707a12.957 12.957 0 01-2.27-.263 12.837 12.837 0 01-4.731-2.047 12.566 12.566 0 01-3.607-3.883 12.258 12.258 0 01-1.517-4.028A12.513 12.513 0 010 11.984zM17.606 0c.51.212 1.006.456 1.482.731L7.705 7.175 2.412 4.177c.274-.372.57-.73.884-1.07l4.409 2.497L17.605 0zM7.705 8.747l12.666-7.17c.39.291.762.606 1.116.94l-13.782 7.8-6.667-3.773c.184-.417.392-.825.621-1.22l6.046 3.423zm0 3.14L22.453 3.54a11.733 11.733 0 01.35.432c.168.218.328.441.482.669l-15.58 8.82-7.5-4.246a12.467 12.467 0 01.346-1.376l7.154 4.048z" fill="#21A038"/><path fill-rule="evenodd" clip-rule="evenodd" d="M32.067 20.334v-.683h96.914v1.281H32.067v-.598zm9.705-5.435a6.158 6.158 0 01-.694.252c-.248.075-.53.135-.846.179a8.022 8.022 0 01-1.104.065c-.812 0-1.475-.15-1.99-.449a3.216 3.216 0 01-1.206-1.236c-.293-.524-.494-1.142-.6-1.854a15.542 15.542 0 01-.162-2.322c0-.648.032-1.307.095-1.976a5.588 5.588 0 01.456-1.797c.241-.53.596-.965 1.066-1.301.47-.339 1.11-.504 1.922-.504.736 0 1.372.195 1.911.588.54.393.874.99 1.001 1.788h.836V3.729a4.875 4.875 0 00-.846-.29 8.28 8.28 0 00-1.018-.187 23.231 23.231 0 00-1.047-.104 13.816 13.816 0 00-.932-.037c-1.167 0-2.163.157-2.988.469-.824.312-1.5.764-2.027 1.357-.526.593-.913 1.317-1.16 2.172-.247.856-.372 1.827-.372 2.912 0 1.023.125 1.94.372 2.753.247.812.628 1.5 1.14 2.068.515.569 1.165 1.002 1.953 1.302.785.3 1.725.448 2.816.448.545 0 1.046-.036 1.502-.111a8.653 8.653 0 002.246-.673c.292-.138.545-.269.761-.394l-.42-.805c-.226.1-.449.196-.665.29zm11.542-6.03c-.463-.318-1.067-.548-1.807-.693-.743-.142-1.648-.214-2.713-.214H47.69V4.853c0-.337.07-.55.21-.637.14-.088.43-.13.875-.13h1.599c.494 0 .897.017 1.208.055.31.038.568.126.771.263.203.137.366.343.495.617.126.275.252.643.38 1.105h.705V3.28h-9.818v.42c.052.014.106.037.245.075a.72.72 0 01.323.17.53.53 0 01.144.316c.018.135.028.31.028.526v2.621h.001v4.778-.001 2.623c-.002.215-.01.39-.029.524a.534.534 0 01-.143.317.71.71 0 01-.324.17c-.14.038-.193.062-.246.074v.42h4.984c.685 0 1.36-.037 2.026-.113a4.602 4.602 0 001.78-.552c.521-.293.938-.73 1.256-1.31.317-.582.476-1.378.476-2.388 0-.725-.104-1.34-.314-1.844a2.744 2.744 0 00-1.008-1.237zm-1.884 5.047c-.146.449-.34.793-.581 1.03a1.68 1.68 0 01-.828.458c-.31.07-.631.103-.961.103-.317 0-.564-.02-.742-.064a.835.835 0 01-.409-.217.717.717 0 01-.182-.391 4.27 4.27 0 01-.037-.62V8.767h1.143c1.026 0 1.753.259 2.178.776.425.518.638 1.365.638 2.538 0 .774-.074 1.386-.219 1.835zm13.07.58c-.092.3-.23.525-.406.675-.178.148-.429.243-.754.28-.321.037-.77.056-1.34.056-.533 0-.949-.02-1.247-.056-.297-.037-.522-.106-.675-.206a.642.642 0 01-.285-.44 3.812 3.812 0 01-.057-.739V9.964h1.788a11.59 11.59 0 011.189.076c.222.024.434.066.638.122.203.056.374.127.513.216V8.709c-.139.088-.31.157-.513.207a6.361 6.361 0 01-1.284.178c-.21.007-.39.01-.544.01h-1.787V4.779c0-.287.041-.475.123-.562.082-.088.257-.13.523-.13h1.428c.495 0 .896.017 1.209.055.31.038.567.126.77.263.202.137.367.343.494.617.128.275.254.643.38 1.105h.706V3.28h-9.191v.42c.052.014.106.037.245.075.14.038.247.095.324.17a.53.53 0 01.143.316c.019.138.029.32.029.544v9.984c0 .225-.01.405-.03.543a.53.53 0 01-.141.317.72.72 0 01-.325.17c-.138.038-.193.062-.246.074v.42h9.495V13.28h-.875c-.102.51-.2.917-.296 1.217zM75.996 3.87a4.079 4.079 0 00-1.55-.487 15.683 15.683 0 00-1.807-.103h-5.232v.42c.05.014.105.037.244.075.14.038.248.095.324.17a.53.53 0 01.144.316c.018.138.029.32.029.544v9.984c0 .225-.01.405-.03.543a.527.527 0 01-.143.317.7.7 0 01-.324.17c-.139.038-.193.062-.245.074v.42h4.336v-.42c-.052-.012-.106-.036-.245-.075a.71.71 0 01-.324-.169.536.536 0 01-.144-.317 4.217 4.217 0 01-.027-.543v-3.644h1.312c.686 0 1.338-.05 1.962-.15.62-.1 1.168-.298 1.644-.59a3.119 3.119 0 001.133-1.245c.28-.537.419-1.248.419-2.134 0-.85-.134-1.524-.4-2.023a2.77 2.77 0 00-1.076-1.133zm-1.959 5.58c-.324.593-.892.89-1.703.89H71V4.795c0-.123.01-.234.027-.328a.395.395 0 01.133-.224.75.75 0 01.325-.123c.146-.024.346-.036.599-.036.342 0 .663.043.962.131.297.087.555.241.779.459.222.219.394.51.514.871s.18.817.18 1.367c0 1.099-.161 1.944-.484 2.537zm13.947-.58c-.462-.319-1.065-.55-1.808-.694-.742-.142-1.646-.214-2.71-.214H82.36V4.853c0-.337.069-.55.208-.637.14-.088.433-.13.877-.13h1.597c.495 0 .898.017 1.209.055.312.038.567.126.77.263.203.137.368.343.496.617.126.275.253.643.38 1.105h.704V3.28h-9.817v.42c.052.014.106.037.245.075.14.038.248.095.324.17a.53.53 0 01.143.316c.019.138.028.32.028.544v2.603h.001v4.779-.002 2.604c0 .225-.01.405-.029.543a.526.526 0 01-.143.317.706.706 0 01-.324.17c-.139.038-.193.062-.245.074v.42h4.983a17.9 17.9 0 002.028-.113 4.622 4.622 0 001.78-.552c.519-.293.937-.73 1.255-1.31.317-.582.475-1.378.475-2.388 0-.725-.105-1.34-.314-1.844a2.741 2.741 0 00-1.009-1.237zM86.1 13.915c-.145.449-.34.793-.58 1.03-.241.236-.517.39-.828.458-.31.07-.63.103-.96.103-.318 0-.565-.02-.743-.064a.833.833 0 01-.408-.217.725.725 0 01-.182-.391 4.304 4.304 0 01-.037-.62V8.767h1.14c1.028 0 1.755.259 2.18.776.423.518.638 1.365.638 2.538 0 .774-.073 1.386-.22 1.835zM114.177 3.28h-3.576v.42c.052.014.106.037.244.075a.722.722 0 01.325.17.53.53 0 01.143.316c.019.138.029.32.029.544v4.167h-5.119V4.805c0-.224.009-.406.028-.544a.54.54 0 01.143-.317.73.73 0 01.324-.17c.14-.036.193-.062.246-.073v-.42h-4.318v.42c.052.013.107.036.246.074a.735.735 0 01.324.17.54.54 0 01.143.316c.018.134.028.307.028.522v10.029c0 .213-.01.387-.027.52a.54.54 0 01-.144.317.716.716 0 01-.324.17c-.139.038-.193.062-.246.074v.42h4.318v-.42c-.053-.012-.106-.036-.246-.075a.706.706 0 01-.324-.169.534.534 0 01-.143-.317 4.16 4.16 0 01-.028-.543v-2.604.002-2.354h5.119v4.956c0 .225-.01.405-.029.543a.528.528 0 01-.143.317.711.711 0 01-.324.17c-.139.038-.193.062-.245.074v.42h4.317v-.42c-.053-.012-.106-.036-.245-.075a.706.706 0 01-.324-.169.522.522 0 01-.143-.317 4.16 4.16 0 01-.028-.543v-2.604l-.02.058v-4.89l.019.055V4.805c0-.224.01-.406.029-.544a.532.532 0 01.142-.317.74.74 0 01.325-.17c.138-.036.192-.062.245-.073v-.42h-.741zm-13.434 10.111l-3.027-8.538a6.237 6.237 0 01-.276-.946c-.045-.243-.08-.453-.105-.627h-3.784v.42c.052.014.106.038.246.075a.73.73 0 01.322.17c.077.074.125.18.145.316.01.08.017.177.022.285a2.51 2.51 0 01-.166.85l-2.113 5.149a122.738 122.738 0 01-1.721 4.045 14.335 14.335 0 01-.904 1.723h2.397c.026-.313.125-.846.296-1.601.171-.755.478-1.795.923-3.118h4.205l.57 1.667c.253.747.457 1.38.61 1.89.152.512.24.9.265 1.162h3.369c-.14-.263-.314-.615-.523-1.058a22.616 22.616 0 01-.751-1.864zm-7.441-2.658l1.827-5.263 1.788 5.263h-3.615zm34.328 4.195a70.3 70.3 0 01-1.086-1.182c-.406-.448-.785-.872-1.141-1.272a35.129 35.129 0 01-1.007-1.18 21.23 21.23 0 01-1.752-2.434l.209-.263a75.02 75.02 0 011.123-1.375c.43-.518.875-1.03 1.332-1.536.457-.505.913-.972 1.369-1.404.458-.431.869-.758 1.238-.983V3.28h-3.101a8.309 8.309 0 01-.468.964c-.208.381-.453.79-.731 1.226-.28.437-.571.891-.876 1.359-.304.468-.608.914-.913 1.338l-.847 1.18c-.26.361-.479.654-.656.88l.866 1.16.741 1.002c.235.32.464.631.685.937.223.307.453.628.695.965.253.35.479.693.676 1.028.196.338.377.669.543.994l4.471.037c-.47-.476-.926-.949-1.37-1.422zm-7.363.721a.528.528 0 01-.144-.317 4.344 4.344 0 01-.028-.543V4.805c0-.224.01-.406.028-.544a.534.534 0 01.144-.317.73.73 0 01.324-.17c.138-.036.193-.062.245-.073v-.42h-4.318v.42c.052.013.106.036.245.074a.73.73 0 01.324.17.54.54 0 01.144.316c.018.138.028.32.028.544v9.984c0 .225-.01.405-.028.543a.534.534 0 01-.144.317.711.711 0 01-.324.17c-.139.038-.193.062-.245.074v.42h4.318v-.42c-.052-.012-.106-.036-.245-.075a.706.706 0 01-.324-.169z" fill="#21A038"/></svg>